<?xml version="1.0" encoding="UTF-8" standalone="no"?><svg xmlns="http://www.w3.org/2000/svg" xmlns:xlink="http://www.w3.org/1999/xlink" clip-rule="evenodd" stroke-miterlimit="4.00" viewBox="0 0 705 95"><desc>SVG generated by Keynote</desc><defs></defs><g transform="matrix(1.00, 0.00, -0.00, -1.00, 0.0, 95.0)"><path d="M 2.0 93.5 L 703.9 93.5 L 703.9 1.4 L 2.0 1.4 Z M 2.0 93.5 " fill="#333333"></path><g><clipPath id="clip-14"><path d="M 1.3 1.4 L 704.6 1.4 L 704.6 93.5 L 1.3 93.5 Z M 1.3 1.4 "></path></clipPath><g clip-path="url(#clip-14)"><text xml:space="preserve" font-family="CenturyGothic-Bold" font-weight="bold" font-size="14.0" fill="#FFFFFF" transform="matrix(1.00, 0.00, -0.00, -1.00, 6.0, 68.0)">M</text><text xml:space="preserve" font-family="CenturyGothic-Bold" font-weight="bold" font-size="14.0" fill="#FFFFFF" transform="matrix(1.00, 0.00, -0.00, -1.00, 18.6, 68.0)">E</text><text xml:space="preserve" font-family="CenturyGothic-Bold" font-weight="bold" font-size="14.0" fill="#FFFFFF" transform="matrix(1.00, 0.00, -0.00, -1.00, 25.9, 68.0)">A</text><text xml:space="preserve" font-family="CenturyGothic-Bold" font-weight="bold" font-size="14.0" fill="#FFFFFF" transform="matrix(1.00, 0.00, -0.00, -1.00, 36.2, 68.0)">S</text><text xml:space="preserve" font-family="CenturyGothic-Bold" font-weight="bold" font-size="14.0" fill="#FFFFFF" transform="matrix(1.00, 0.00, -0.00, -1.00, 43.5, 68.0)">U</text><text xml:space="preserve" font-family="CenturyGothic-Bold" font-weight="bold" font-size="14.0" fill="#FFFFFF" transform="matrix(1.00, 0.00, -0.00, -1.00, 52.5, 68.0)">R</text><text xml:space="preserve" font-family="CenturyGothic-Bold" font-weight="bold" font-size="14.0" fill="#FFFFFF" transform="matrix(1.00, 0.00, -0.00, -1.00, 60.6, 68.0)">E</text><text xml:space="preserve" font-family="CenturyGothic-Bold" font-weight="bold" font-size="14.0" fill="#FFFFFF" transform="matrix(1.00, 0.00, -0.00, -1.00, 67.9, 68.0)">M</text><text xml:space="preserve" font-family="CenturyGothic-Bold" font-weight="bold" font-size="14.0" fill="#FFFFFF" transform="matrix(1.00, 0.00, -0.00, -1.00, 80.5, 68.0)">E</text><text xml:space="preserve" font-family="CenturyGothic-Bold" font-weight="bold" font-size="14.0" fill="#FFFFFF" transform="matrix(1.00, 0.00, -0.00, -1.00, 87.8, 68.0)">N</text><text xml:space="preserve" font-family="CenturyGothic-Bold" font-weight="bold" font-size="14.0" fill="#FFFFFF" transform="matrix(1.00, 0.00, -0.00, -1.00, 98.1, 68.0)">T</text><text xml:space="preserve" font-family="LucidaGrande-Bold" font-weight="bold" font-size="14.0" fill="#FFFFFF" transform="matrix(1.00, 0.00, -0.00, -1.00, 104.0, 68.0)"> </text><text xml:space="preserve" font-family="LucidaGrande-Bold" font-weight="bold" font-size="14.0" fill="#FFFFFF" transform="matrix(1.00, 0.00, -0.00, -1.00, 6.0, 51.0)"> </text><text xml:space="preserve" font-family="CenturyGothic-Bold" font-weight="bold" font-size="14.0" fill="#FFFFFF" transform="matrix(1.00, 0.00, -0.00, -1.00, 6.0, 34.0)">P</text><text xml:space="preserve" font-family="CenturyGothic-Bold" font-weight="bold" font-size="14.0" fill="#FFFFFF" transform="matrix(1.00, 0.00, -0.00, -1.00, 13.8, 34.0)">r</text><text xml:space="preserve" font-family="CenturyGothic-Bold" font-weight="bold" font-size="14.0" fill="#FFFFFF" transform="matrix(1.00, 0.00, -0.00, -1.00, 18.3, 34.0)">o</text><text xml:space="preserve" font-family="CenturyGothic-Bold" font-weight="bold" font-size="14.0" fill="#FFFFFF" transform="matrix(1.00, 0.00, -0.00, -1.00, 27.3, 34.0)">b</text><text xml:space="preserve" font-family="CenturyGothic-Bold" font-weight="bold" font-size="14.0" fill="#FFFFFF" transform="matrix(1.00, 0.00, -0.00, -1.00, 36.5, 34.0)">l</text><text xml:space="preserve" font-family="CenturyGothic-Bold" font-weight="bold" font-size="14.0" fill="#FFFFFF" transform="matrix(1.00, 0.00, -0.00, -1.00, 39.9, 34.0)">e</text><text xml:space="preserve" font-family="CenturyGothic-Bold" font-weight="bold" font-size="14.0" fill="#FFFFFF" transform="matrix(1.00, 0.00, -0.00, -1.00, 48.8, 34.0)">m</text><text xml:space="preserve" font-family="CenturyGothic-Bold" font-weight="bold" font-size="14.0" fill="#FFFFFF" transform="matrix(1.00, 0.00, -0.00, -1.00, 62.0, 34.0)">:</text><text xml:space="preserve" font-family="CenturyGothic-Bold" font-weight="bold" font-size="14.0" fill="#FFFFFF" transform="matrix(1.00, 0.00, -0.00, -1.00, 65.9, 34.0)"> </text><text xml:space="preserve" font-family="CenturyGothic" font-size="14.0" fill="#FFFFFF" transform="matrix(1.00, 0.00, -0.00, -1.00, 69.8, 34.0)">t</text><text xml:space="preserve" font-family="CenturyGothic" font-size="14.0" fill="#FFFFFF" transform="matrix(1.00, 0.00, -0.00, -1.00, 74.6, 34.0)">h</text><text xml:space="preserve" font-family="CenturyGothic" font-size="14.0" fill="#FFFFFF" transform="matrix(1.00, 0.00, -0.00, -1.00, 83.1, 34.0)">e</text><text xml:space="preserve" font-family="CenturyGothic" font-size="14.0" fill="#FFFFFF" transform="matrix(1.00, 0.00, -0.00, -1.00, 92.2, 34.0)"> </text><text xml:space="preserve" font-family="CenturyGothic" font-size="14.0" fill="#FFFFFF" transform="matrix(1.00, 0.00, -0.00, -1.00, 96.1, 34.0)">u</text><text xml:space="preserve" font-family="CenturyGothic" font-size="14.0" fill="#FFFFFF" transform="matrix(1.00, 0.00, -0.00, -1.00, 104.6, 34.0)">s</text><text xml:space="preserve" font-family="CenturyGothic" font-size="14.0" fill="#FFFFFF" transform="matrix(1.00, 0.00, -0.00, -1.00, 110.0, 34.0)">e</text><text xml:space="preserve" font-family="CenturyGothic" font-size="14.0" fill="#FFFFFF" transform="matrix(1.00, 0.00, -0.00, -1.00, 119.1, 34.0)">r</text><text xml:space="preserve" font-family="CenturyGothic" font-size="14.0" fill="#FFFFFF" transform="matrix(1.00, 0.00, -0.00, -1.00, 123.3, 34.0)">s</text><text xml:space="preserve" font-family="CenturyGothic" font-size="14.0" fill="#FFFFFF" transform="matrix(1.00, 0.00, -0.00, -1.00, 128.8, 34.0)"> </text><text xml:space="preserve" font-family="CenturyGothic" font-size="14.0" fill="#FFFFFF" transform="matrix(1.00, 0.00, -0.00, -1.00, 132.6, 34.0)">g</text><text xml:space="preserve" font-family="CenturyGothic" font-size="14.0" fill="#FFFFFF" transform="matrix(1.00, 0.00, -0.00, -1.00, 142.1, 34.0)">o</text><text xml:space="preserve" font-family="CenturyGothic" font-size="14.0" fill="#FFFFFF" transform="matrix(1.00, 0.00, -0.00, -1.00, 151.2, 34.0)">t</text><text xml:space="preserve" font-family="CenturyGothic" font-size="14.0" fill="#FFFFFF" transform="matrix(1.00, 0.00, -0.00, -1.00, 156.0, 34.0)"> </text><text xml:space="preserve" font-family="CenturyGothic" font-size="14.0" fill="#FFFFFF" transform="matrix(1.00, 0.00, -0.00, -1.00, 159.8, 34.0)">c</text><text xml:space="preserve" font-family="CenturyGothic" font-size="14.0" fill="#FFFFFF" transform="matrix(1.00, 0.00, -0.00, -1.00, 168.9, 34.0)">o</text><text xml:space="preserve" font-family="CenturyGothic" font-size="14.0" fill="#FFFFFF" transform="matrix(1.00, 0.00, -0.00, -1.00, 178.1, 34.0)">n</text><text xml:space="preserve" font-family="CenturyGothic" font-size="14.0" fill="#FFFFFF" transform="matrix(1.00, 0.00, -0.00, -1.00, 186.6, 34.0)">f</text><text xml:space="preserve" font-family="CenturyGothic" font-size="14.0" fill="#FFFFFF" transform="matrix(1.00, 0.00, -0.00, -1.00, 191.0, 34.0)">u</text><text xml:space="preserve" font-family="CenturyGothic" font-size="14.0" fill="#FFFFFF" transform="matrix(1.00, 0.00, -0.00, -1.00, 199.5, 34.0)">s</text><text xml:space="preserve" font-family="CenturyGothic" font-size="14.0" fill="#FFFFFF" transform="matrix(1.00, 0.00, -0.00, -1.00, 204.9, 34.0)">e</text><text xml:space="preserve" font-family="CenturyGothic" font-size="14.0" fill="#FFFFFF" transform="matrix(1.00, 0.00, -0.00, -1.00, 214.0, 34.0)">d</text><text xml:space="preserve" font-family="CenturyGothic" font-size="14.0" fill="#FFFFFF" transform="matrix(1.00, 0.00, -0.00, -1.00, 223.6, 34.0)"> </text><text xml:space="preserve" font-family="CenturyGothic" font-size="14.0" fill="#FFFFFF" transform="matrix(1.00, 0.00, -0.00, -1.00, 227.5, 34.0)">w</text><text xml:space="preserve" font-family="CenturyGothic" font-size="14.0" fill="#FFFFFF" transform="matrix(1.00, 0.00, -0.00, -1.00, 239.2, 34.0)">i</text><text xml:space="preserve" font-family="CenturyGothic" font-size="14.0" fill="#FFFFFF" transform="matrix(1.00, 0.00, -0.00, -1.00, 242.0, 34.0)">t</text><text xml:space="preserve" font-family="CenturyGothic" font-size="14.0" fill="#FFFFFF" transform="matrix(1.00, 0.00, -0.00, -1.00, 246.7, 34.0)">h</text><text xml:space="preserve" font-family="CenturyGothic" font-size="14.0" fill="#FFFFFF" transform="matrix(1.00, 0.00, -0.00, -1.00, 255.2, 34.0)"> </text><text xml:space="preserve" font-family="CenturyGothic" font-size="14.0" fill="#FFFFFF" transform="matrix(1.00, 0.00, -0.00, -1.00, 259.1, 34.0)">t</text><text xml:space="preserve" font-family="CenturyGothic" font-size="14.0" fill="#FFFFFF" transform="matrix(1.00, 0.00, -0.00, -1.00, 263.9, 34.0)">h</text><text xml:space="preserve" font-family="CenturyGothic" font-size="14.0" fill="#FFFFFF" transform="matrix(1.00, 0.00, -0.00, -1.00, 272.4, 34.0)">e</text><text xml:space="preserve" font-family="CenturyGothic" font-size="14.0" fill="#FFFFFF" transform="matrix(1.00, 0.00, -0.00, -1.00, 281.5, 34.0)"> </text><text xml:space="preserve" font-family="CenturyGothic" font-size="14.0" fill="#FFFFFF" transform="matrix(1.00, 0.00, -0.00, -1.00, 285.4, 34.0)">m</text><text xml:space="preserve" font-family="CenturyGothic" font-size="14.0" fill="#FFFFFF" transform="matrix(1.00, 0.00, -0.00, -1.00, 298.5, 34.0)">e</text><text xml:space="preserve" font-family="CenturyGothic" font-size="14.0" fill="#FFFFFF" transform="matrix(1.00, 0.00, -0.00, -1.00, 307.6, 34.0)">a</text><text xml:space="preserve" font-family="CenturyGothic" font-size="14.0" fill="#FFFFFF" transform="matrix(1.00, 0.00, -0.00, -1.00, 317.2, 34.0)">s</text><text xml:space="preserve" font-family="CenturyGothic" font-size="14.0" fill="#FFFFFF" transform="matrix(1.00, 0.00, -0.00, -1.00, 322.6, 34.0)">u</text><text xml:space="preserve" font-family="CenturyGothic" font-size="14.0" fill="#FFFFFF" transform="matrix(1.00, 0.00, -0.00, -1.00, 331.1, 34.0)">r</text><text xml:space="preserve" font-family="CenturyGothic" font-size="14.0" fill="#FFFFFF" transform="matrix(1.00, 0.00, -0.00, -1.00, 335.3, 34.0)">e</text><text xml:space="preserve" font-family="CenturyGothic" font-size="14.0" fill="#FFFFFF" transform="matrix(1.00, 0.00, -0.00, -1.00, 344.4, 34.0)"> </text><text xml:space="preserve" font-family="CenturyGothic" font-size="14.0" fill="#FFFFFF" transform="matrix(1.00, 0.00, -0.00, -1.00, 348.2, 34.0)">o</text><text xml:space="preserve" font-family="CenturyGothic" font-size="14.0" fill="#FFFFFF" transform="matrix(1.00, 0.00, -0.00, -1.00, 357.4, 34.0)">f</text><text xml:space="preserve" font-family="CenturyGothic" font-size="14.0" fill="#FFFFFF" transform="matrix(1.00, 0.00, -0.00, -1.00, 361.8, 34.0)"> </text><text xml:space="preserve" font-family="CenturyGothic" font-size="14.0" fill="#FFFFFF" transform="matrix(1.00, 0.00, -0.00, -1.00, 365.7, 34.0)">t</text><text xml:space="preserve" font-family="CenturyGothic" font-size="14.0" fill="#FFFFFF" transform="matrix(1.00, 0.00, -0.00, -1.00, 370.4, 34.0)">h</text><text xml:space="preserve" font-family="CenturyGothic" font-size="14.0" fill="#FFFFFF" transform="matrix(1.00, 0.00, -0.00, -1.00, 378.9, 34.0)">e</text><text xml:space="preserve" font-family="CenturyGothic" font-size="14.0" fill="#FFFFFF" transform="matrix(1.00, 0.00, -0.00, -1.00, 388.0, 34.0)"> </text><text xml:space="preserve" font-family="CenturyGothic" font-size="14.0" fill="#FFFFFF" transform="matrix(1.00, 0.00, -0.00, -1.00, 391.9, 34.0)">w</text><text xml:space="preserve" font-family="CenturyGothic" font-size="14.0" fill="#FFFFFF" transform="matrix(1.00, 0.00, -0.00, -1.00, 403.5, 34.0)">i</text><text xml:space="preserve" font-family="CenturyGothic" font-size="14.0" fill="#FFFFFF" transform="matrix(1.00, 0.00, -0.00, -1.00, 406.4, 34.0)">d</text><text xml:space="preserve" font-family="CenturyGothic" font-size="14.0" fill="#FFFFFF" transform="matrix(1.00, 0.00, -0.00, -1.00, 415.9, 34.0)">t</text><text xml:space="preserve" font-family="CenturyGothic" font-size="14.0" fill="#FFFFFF" transform="matrix(1.00, 0.00, -0.00, -1.00, 420.7, 34.0)">h</text><text xml:space="preserve" font-family="CenturyGothic" font-size="14.0" fill="#FFFFFF" transform="matrix(1.00, 0.00, -0.00, -1.00, 429.2, 34.0)"> </text><text xml:space="preserve" font-family="CenturyGothic" font-size="14.0" fill="#FFFFFF" transform="matrix(1.00, 0.00, -0.00, -1.00, 433.1, 34.0)">o</text><text xml:space="preserve" font-family="CenturyGothic" font-size="14.0" fill="#FFFFFF" transform="matrix(1.00, 0.00, -0.00, -1.00, 442.3, 34.0)">f</text><text xml:space="preserve" font-family="CenturyGothic" font-size="14.0" fill="#FFFFFF" transform="matrix(1.00, 0.00, -0.00, -1.00, 446.7, 34.0)"> </text><text xml:space="preserve" font-family="CenturyGothic" font-size="14.0" fill="#FFFFFF" transform="matrix(1.00, 0.00, -0.00, -1.00, 450.5, 34.0)">t</text><text xml:space="preserve" font-family="CenturyGothic" font-size="14.0" fill="#FFFFFF" transform="matrix(1.00, 0.00, -0.00, -1.00, 455.3, 34.0)">h</text><text xml:space="preserve" font-family="CenturyGothic" font-size="14.0" fill="#FFFFFF" transform="matrix(1.00, 0.00, -0.00, -1.00, 463.8, 34.0)">e</text><text xml:space="preserve" font-family="CenturyGothic" font-size="14.0" fill="#FFFFFF" transform="matrix(1.00, 0.00, -0.00, -1.00, 472.9, 34.0)"> </text><text xml:space="preserve" font-family="CenturyGothic" font-size="14.0" fill="#FFFFFF" transform="matrix(1.00, 0.00, -0.00, -1.00, 476.8, 34.0)">s</text><text xml:space="preserve" font-family="CenturyGothic" font-size="14.0" fill="#FFFFFF" transform="matrix(1.00, 0.00, -0.00, -1.00, 482.2, 34.0)">e</text><text xml:space="preserve" font-family="CenturyGothic" font-size="14.0" fill="#FFFFFF" transform="matrix(1.00, 0.00, -0.00, -1.00, 491.3, 34.0)">l</text><text xml:space="preserve" font-family="CenturyGothic" font-size="14.0" fill="#FFFFFF" transform="matrix(1.00, 0.00, -0.00, -1.00, 494.1, 34.0)">f</text><text xml:space="preserve" font-family="CenturyGothic" font-size="14.0" fill="#FFFFFF" transform="matrix(1.00, 0.00, -0.00, -1.00, 498.5, 34.0)"> </text><text xml:space="preserve" font-family="CenturyGothic" font-size="14.0" fill="#FFFFFF" transform="matrix(1.00, 0.00, -0.00, -1.00, 502.4, 34.0)">w</text><text xml:space="preserve" font-family="CenturyGothic" font-size="14.0" fill="#FFFFFF" transform="matrix(1.00, 0.00, -0.00, -1.00, 514.0, 34.0)">h</text><text xml:space="preserve" font-family="CenturyGothic" font-size="14.0" fill="#FFFFFF" transform="matrix(1.00, 0.00, -0.00, -1.00, 522.6, 34.0)">e</text><text xml:space="preserve" font-family="CenturyGothic" font-size="14.0" fill="#FFFFFF" transform="matrix(1.00, 0.00, -0.00, -1.00, 531.7, 34.0)">n</text><text xml:space="preserve" font-family="CenturyGothic" font-size="14.0" fill="#FFFFFF" transform="matrix(1.00, 0.00, -0.00, -1.00, 540.2, 34.0)"> </text><text xml:space="preserve" font-family="CenturyGothic" font-size="14.0" fill="#FFFFFF" transform="matrix(1.00, 0.00, -0.00, -1.00, 544.1, 34.0)">t</text><text xml:space="preserve" font-family="CenturyGothic" font-size="14.0" fill="#FFFFFF" transform="matrix(1.00, 0.00, -0.00, -1.00, 548.8, 34.0)">h</text><text xml:space="preserve" font-family="CenturyGothic" font-size="14.0" fill="#FFFFFF" transform="matrix(1.00, 0.00, -0.00, -1.00, 557.4, 34.0)">e</text><text xml:space="preserve" font-family="CenturyGothic" font-size="14.0" fill="#FFFFFF" transform="matrix(1.00, 0.00, -0.00, -1.00, 566.5, 34.0)">y</text><text xml:space="preserve" font-family="CenturyGothic" font-size="14.0" fill="#FFFFFF" transform="matrix(1.00, 0.00, -0.00, -1.00, 574.0, 34.0)"> </text><text xml:space="preserve" font-family="CenturyGothic" font-size="14.0" fill="#FFFFFF" transform="matrix(1.00, 0.00, -0.00, -1.00, 577.8, 34.0)">c</text><text xml:space="preserve" font-family="CenturyGothic" font-size="14.0" fill="#FFFFFF" transform="matrix(1.00, 0.00, -0.00, -1.00, 586.9, 34.0)">h</text><text xml:space="preserve" font-family="CenturyGothic" font-size="14.0" fill="#FFFFFF" transform="matrix(1.00, 0.00, -0.00, -1.00, 595.4, 34.0)">a</text><text xml:space="preserve" font-family="CenturyGothic" font-size="14.0" fill="#FFFFFF" transform="matrix(1.00, 0.00, -0.00, -1.00, 605.0, 34.0)">n</text><text xml:space="preserve" font-family="CenturyGothic" font-size="14.0" fill="#FFFFFF" transform="matrix(1.00, 0.00, -0.00, -1.00, 613.5, 34.0)">g</text><text xml:space="preserve" font-family="CenturyGothic" font-size="14.0" fill="#FFFFFF" transform="matrix(1.00, 0.00, -0.00, -1.00, 623.0, 34.0)">e</text><text xml:space="preserve" font-family="CenturyGothic" font-size="14.0" fill="#FFFFFF" transform="matrix(1.00, 0.00, -0.00, -1.00, 632.0, 34.0)">d</text><text xml:space="preserve" font-family="CenturyGothic" font-size="14.0" fill="#FFFFFF" transform="matrix(1.00, 0.00, -0.00, -1.00, 641.6, 34.0)"> </text><text xml:space="preserve" font-family="CenturyGothic" font-size="14.0" fill="#FFFFFF" transform="matrix(1.00, 0.00, -0.00, -1.00, 645.5, 34.0)">t</text><text xml:space="preserve" font-family="CenturyGothic" font-size="14.0" fill="#FFFFFF" transform="matrix(1.00, 0.00, -0.00, -1.00, 650.3, 34.0)">h</text><text xml:space="preserve" font-family="CenturyGothic" font-size="14.0" fill="#FFFFFF" transform="matrix(1.00, 0.00, -0.00, -1.00, 658.8, 34.0)">e</text><text xml:space="preserve" font-family="CenturyGothic" font-size="14.0" fill="#FFFFFF" transform="matrix(1.00, 0.00, -0.00, -1.00, 667.9, 34.0)"> </text><text xml:space="preserve" font-family="CenturyGothic" font-size="14.0" fill="#FFFFFF" transform="matrix(1.00, 0.00, -0.00, -1.00, 6.0, 17.0)">d</text><text xml:space="preserve" font-family="CenturyGothic" font-size="14.0" fill="#FFFFFF" transform="matrix(1.00, 0.00, -0.00, -1.00, 15.6, 17.0)">i</text><text xml:space="preserve" font-family="CenturyGothic" font-size="14.0" fill="#FFFFFF" transform="matrix(1.00, 0.00, -0.00, -1.00, 18.4, 17.0)">m</text><text xml:space="preserve" font-family="CenturyGothic" font-size="14.0" fill="#FFFFFF" transform="matrix(1.00, 0.00, -0.00, -1.00, 31.5, 17.0)">e</text><text xml:space="preserve" font-family="CenturyGothic" font-size="14.0" fill="#FFFFFF" transform="matrix(1.00, 0.00, -0.00, -1.00, 40.6, 17.0)">n</text><text xml:space="preserve" font-family="CenturyGothic" font-size="14.0" fill="#FFFFFF" transform="matrix(1.00, 0.00, -0.00, -1.00, 49.2, 17.0)">s</text><text xml:space="preserve" font-family="CenturyGothic" font-size="14.0" fill="#FFFFFF" transform="matrix(1.00, 0.00, -0.00, -1.00, 54.6, 17.0)">i</text><text xml:space="preserve" font-family="CenturyGothic" font-size="14.0" fill="#FFFFFF" transform="matrix(1.00, 0.00, -0.00, -1.00, 57.4, 17.0)">o</text><text xml:space="preserve" font-family="CenturyGothic" font-size="14.0" fill="#FFFFFF" transform="matrix(1.00, 0.00, -0.00, -1.00, 66.6, 17.0)">n</text><text xml:space="preserve" font-family="CenturyGothic" font-size="14.0" fill="#FFFFFF" transform="matrix(1.00, 0.00, -0.00, -1.00, 75.1, 17.0)">s</text></g></g></g></svg>