<?xml version="1.0" encoding="UTF-8" standalone="no"?><svg xmlns="http://www.w3.org/2000/svg" xmlns:xlink="http://www.w3.org/1999/xlink" clip-rule="evenodd" stroke-miterlimit="4.00" viewBox="0 0 720 540"><desc>SVG generated by Keynote</desc><defs></defs><g transform="matrix(1.00, 0.00, -0.00, -1.00, 0.0, 540.0)"><path d="M 0.0 540.0 L 720.0 540.0 L 720.0 0.0 L 0.0 0.0 Z M 0.0 540.0 " fill="#FFFFFF"></path><path d="M 72.0 540.0 L 701.9 540.0 L 701.9 525.6 L 72.0 525.6 Z M 72.0 540.0 " fill="#D6D9CD"></path><path d="M 72.0 14.4 L 701.9 14.4 L 701.9 0.0 L 72.0 0.0 Z M 72.0 14.4 " fill="#E3E5DD"></path><path d="M -0.0 451.5 L 701.9 451.5 L 701.9 359.4 L -0.0 359.4 Z M -0.0 451.5 " fill="#333333"></path><g><clipPath id="clip-15"><path d="M -0.7 359.4 L 702.6 359.4 L 702.6 451.5 L -0.7 451.5 Z M -0.7 359.4 "></path></clipPath><g clip-path="url(#clip-15)"><text xml:space="preserve" font-family="CenturyGothic-Bold" font-weight="bold" font-size="14.0" fill="#FFFFFF" transform="matrix(1.00, 0.00, -0.00, -1.00, 4.0, 426.0)">M</text><text xml:space="preserve" font-family="CenturyGothic-Bold" font-weight="bold" font-size="14.0" fill="#FFFFFF" transform="matrix(1.00, 0.00, -0.00, -1.00, 16.6, 426.0)">E</text><text xml:space="preserve" font-family="CenturyGothic-Bold" font-weight="bold" font-size="14.0" fill="#FFFFFF" transform="matrix(1.00, 0.00, -0.00, -1.00, 23.9, 426.0)">A</text><text xml:space="preserve" font-family="CenturyGothic-Bold" font-weight="bold" font-size="14.0" fill="#FFFFFF" transform="matrix(1.00, 0.00, -0.00, -1.00, 34.2, 426.0)">S</text><text xml:space="preserve" font-family="CenturyGothic-Bold" font-weight="bold" font-size="14.0" fill="#FFFFFF" transform="matrix(1.00, 0.00, -0.00, -1.00, 41.5, 426.0)">U</text><text xml:space="preserve" font-family="CenturyGothic-Bold" font-weight="bold" font-size="14.0" fill="#FFFFFF" transform="matrix(1.00, 0.00, -0.00, -1.00, 50.5, 426.0)">R</text><text xml:space="preserve" font-family="CenturyGothic-Bold" font-weight="bold" font-size="14.0" fill="#FFFFFF" transform="matrix(1.00, 0.00, -0.00, -1.00, 58.6, 426.0)">E</text><text xml:space="preserve" font-family="CenturyGothic-Bold" font-weight="bold" font-size="14.0" fill="#FFFFFF" transform="matrix(1.00, 0.00, -0.00, -1.00, 65.9, 426.0)">M</text><text xml:space="preserve" font-family="CenturyGothic-Bold" font-weight="bold" font-size="14.0" fill="#FFFFFF" transform="matrix(1.00, 0.00, -0.00, -1.00, 78.5, 426.0)">E</text><text xml:space="preserve" font-family="CenturyGothic-Bold" font-weight="bold" font-size="14.0" fill="#FFFFFF" transform="matrix(1.00, 0.00, -0.00, -1.00, 85.8, 426.0)">N</text><text xml:space="preserve" font-family="CenturyGothic-Bold" font-weight="bold" font-size="14.0" fill="#FFFFFF" transform="matrix(1.00, 0.00, -0.00, -1.00, 96.1, 426.0)">T</text><text xml:space="preserve" font-family="LucidaGrande-Bold" font-weight="bold" font-size="14.0" fill="#FFFFFF" transform="matrix(1.00, 0.00, -0.00, -1.00, 102.0, 426.0)"> </text><text xml:space="preserve" font-family="LucidaGrande-Bold" font-weight="bold" font-size="14.0" fill="#FFFFFF" transform="matrix(1.00, 0.00, -0.00, -1.00, 4.0, 409.0)"> </text><text xml:space="preserve" font-family="CenturyGothic-Bold" font-weight="bold" font-size="14.0" fill="#FFFFFF" transform="matrix(1.00, 0.00, -0.00, -1.00, 4.0, 392.0)">P</text><text xml:space="preserve" font-family="CenturyGothic-Bold" font-weight="bold" font-size="14.0" fill="#FFFFFF" transform="matrix(1.00, 0.00, -0.00, -1.00, 11.8, 392.0)">r</text><text xml:space="preserve" font-family="CenturyGothic-Bold" font-weight="bold" font-size="14.0" fill="#FFFFFF" transform="matrix(1.00, 0.00, -0.00, -1.00, 16.3, 392.0)">o</text><text xml:space="preserve" font-family="CenturyGothic-Bold" font-weight="bold" font-size="14.0" fill="#FFFFFF" transform="matrix(1.00, 0.00, -0.00, -1.00, 25.3, 392.0)">b</text><text xml:space="preserve" font-family="CenturyGothic-Bold" font-weight="bold" font-size="14.0" fill="#FFFFFF" transform="matrix(1.00, 0.00, -0.00, -1.00, 34.5, 392.0)">l</text><text xml:space="preserve" font-family="CenturyGothic-Bold" font-weight="bold" font-size="14.0" fill="#FFFFFF" transform="matrix(1.00, 0.00, -0.00, -1.00, 37.9, 392.0)">e</text><text xml:space="preserve" font-family="CenturyGothic-Bold" font-weight="bold" font-size="14.0" fill="#FFFFFF" transform="matrix(1.00, 0.00, -0.00, -1.00, 46.8, 392.0)">m</text><text xml:space="preserve" font-family="CenturyGothic-Bold" font-weight="bold" font-size="14.0" fill="#FFFFFF" transform="matrix(1.00, 0.00, -0.00, -1.00, 60.0, 392.0)">:</text><text xml:space="preserve" font-family="CenturyGothic-Bold" font-weight="bold" font-size="14.0" fill="#FFFFFF" transform="matrix(1.00, 0.00, -0.00, -1.00, 63.9, 392.0)"> </text><text xml:space="preserve" font-family="CenturyGothic" font-size="14.0" fill="#FFFFFF" transform="matrix(1.00, 0.00, -0.00, -1.00, 67.8, 392.0)">t</text><text xml:space="preserve" font-family="CenturyGothic" font-size="14.0" fill="#FFFFFF" transform="matrix(1.00, 0.00, -0.00, -1.00, 72.6, 392.0)">h</text><text xml:space="preserve" font-family="CenturyGothic" font-size="14.0" fill="#FFFFFF" transform="matrix(1.00, 0.00, -0.00, -1.00, 81.1, 392.0)">e</text><text xml:space="preserve" font-family="CenturyGothic" font-size="14.0" fill="#FFFFFF" transform="matrix(1.00, 0.00, -0.00, -1.00, 90.2, 392.0)"> </text><text xml:space="preserve" font-family="CenturyGothic" font-size="14.0" fill="#FFFFFF" transform="matrix(1.00, 0.00, -0.00, -1.00, 94.1, 392.0)">u</text><text xml:space="preserve" font-family="CenturyGothic" font-size="14.0" fill="#FFFFFF" transform="matrix(1.00, 0.00, -0.00, -1.00, 102.6, 392.0)">s</text><text xml:space="preserve" font-family="CenturyGothic" font-size="14.0" fill="#FFFFFF" transform="matrix(1.00, 0.00, -0.00, -1.00, 108.0, 392.0)">e</text><text xml:space="preserve" font-family="CenturyGothic" font-size="14.0" fill="#FFFFFF" transform="matrix(1.00, 0.00, -0.00, -1.00, 117.1, 392.0)">r</text><text xml:space="preserve" font-family="CenturyGothic" font-size="14.0" fill="#FFFFFF" transform="matrix(1.00, 0.00, -0.00, -1.00, 121.3, 392.0)">s</text><text xml:space="preserve" font-family="CenturyGothic" font-size="14.0" fill="#FFFFFF" transform="matrix(1.00, 0.00, -0.00, -1.00, 126.8, 392.0)"> </text><text xml:space="preserve" font-family="CenturyGothic" font-size="14.0" fill="#FFFFFF" transform="matrix(1.00, 0.00, -0.00, -1.00, 130.6, 392.0)">g</text><text xml:space="preserve" font-family="CenturyGothic" font-size="14.0" fill="#FFFFFF" transform="matrix(1.00, 0.00, -0.00, -1.00, 140.1, 392.0)">o</text><text xml:space="preserve" font-family="CenturyGothic" font-size="14.0" fill="#FFFFFF" transform="matrix(1.00, 0.00, -0.00, -1.00, 149.2, 392.0)">t</text><text xml:space="preserve" font-family="CenturyGothic" font-size="14.0" fill="#FFFFFF" transform="matrix(1.00, 0.00, -0.00, -1.00, 154.0, 392.0)"> </text><text xml:space="preserve" font-family="CenturyGothic" font-size="14.0" fill="#FFFFFF" transform="matrix(1.00, 0.00, -0.00, -1.00, 157.8, 392.0)">c</text><text xml:space="preserve" font-family="CenturyGothic" font-size="14.0" fill="#FFFFFF" transform="matrix(1.00, 0.00, -0.00, -1.00, 166.9, 392.0)">o</text><text xml:space="preserve" font-family="CenturyGothic" font-size="14.0" fill="#FFFFFF" transform="matrix(1.00, 0.00, -0.00, -1.00, 176.1, 392.0)">n</text><text xml:space="preserve" font-family="CenturyGothic" font-size="14.0" fill="#FFFFFF" transform="matrix(1.00, 0.00, -0.00, -1.00, 184.6, 392.0)">f</text><text xml:space="preserve" font-family="CenturyGothic" font-size="14.0" fill="#FFFFFF" transform="matrix(1.00, 0.00, -0.00, -1.00, 189.0, 392.0)">u</text><text xml:space="preserve" font-family="CenturyGothic" font-size="14.0" fill="#FFFFFF" transform="matrix(1.00, 0.00, -0.00, -1.00, 197.5, 392.0)">s</text><text xml:space="preserve" font-family="CenturyGothic" font-size="14.0" fill="#FFFFFF" transform="matrix(1.00, 0.00, -0.00, -1.00, 202.9, 392.0)">e</text><text xml:space="preserve" font-family="CenturyGothic" font-size="14.0" fill="#FFFFFF" transform="matrix(1.00, 0.00, -0.00, -1.00, 212.0, 392.0)">d</text><text xml:space="preserve" font-family="CenturyGothic" font-size="14.0" fill="#FFFFFF" transform="matrix(1.00, 0.00, -0.00, -1.00, 221.6, 392.0)"> </text><text xml:space="preserve" font-family="CenturyGothic" font-size="14.0" fill="#FFFFFF" transform="matrix(1.00, 0.00, -0.00, -1.00, 225.5, 392.0)">w</text><text xml:space="preserve" font-family="CenturyGothic" font-size="14.0" fill="#FFFFFF" transform="matrix(1.00, 0.00, -0.00, -1.00, 237.2, 392.0)">i</text><text xml:space="preserve" font-family="CenturyGothic" font-size="14.0" fill="#FFFFFF" transform="matrix(1.00, 0.00, -0.00, -1.00, 240.0, 392.0)">t</text><text xml:space="preserve" font-family="CenturyGothic" font-size="14.0" fill="#FFFFFF" transform="matrix(1.00, 0.00, -0.00, -1.00, 244.7, 392.0)">h</text><text xml:space="preserve" font-family="CenturyGothic" font-size="14.0" fill="#FFFFFF" transform="matrix(1.00, 0.00, -0.00, -1.00, 253.2, 392.0)"> </text><text xml:space="preserve" font-family="CenturyGothic" font-size="14.0" fill="#FFFFFF" transform="matrix(1.00, 0.00, -0.00, -1.00, 257.1, 392.0)">t</text><text xml:space="preserve" font-family="CenturyGothic" font-size="14.0" fill="#FFFFFF" transform="matrix(1.00, 0.00, -0.00, -1.00, 261.9, 392.0)">h</text><text xml:space="preserve" font-family="CenturyGothic" font-size="14.0" fill="#FFFFFF" transform="matrix(1.00, 0.00, -0.00, -1.00, 270.4, 392.0)">e</text><text xml:space="preserve" font-family="CenturyGothic" font-size="14.0" fill="#FFFFFF" transform="matrix(1.00, 0.00, -0.00, -1.00, 279.5, 392.0)"> </text><text xml:space="preserve" font-family="CenturyGothic" font-size="14.0" fill="#FFFFFF" transform="matrix(1.00, 0.00, -0.00, -1.00, 283.4, 392.0)">m</text><text xml:space="preserve" font-family="CenturyGothic" font-size="14.0" fill="#FFFFFF" transform="matrix(1.00, 0.00, -0.00, -1.00, 296.5, 392.0)">e</text><text xml:space="preserve" font-family="CenturyGothic" font-size="14.0" fill="#FFFFFF" transform="matrix(1.00, 0.00, -0.00, -1.00, 305.6, 392.0)">a</text><text xml:space="preserve" font-family="CenturyGothic" font-size="14.0" fill="#FFFFFF" transform="matrix(1.00, 0.00, -0.00, -1.00, 315.2, 392.0)">s</text><text xml:space="preserve" font-family="CenturyGothic" font-size="14.0" fill="#FFFFFF" transform="matrix(1.00, 0.00, -0.00, -1.00, 320.6, 392.0)">u</text><text xml:space="preserve" font-family="CenturyGothic" font-size="14.0" fill="#FFFFFF" transform="matrix(1.00, 0.00, -0.00, -1.00, 329.1, 392.0)">r</text><text xml:space="preserve" font-family="CenturyGothic" font-size="14.0" fill="#FFFFFF" transform="matrix(1.00, 0.00, -0.00, -1.00, 333.3, 392.0)">e</text><text xml:space="preserve" font-family="CenturyGothic" font-size="14.0" fill="#FFFFFF" transform="matrix(1.00, 0.00, -0.00, -1.00, 342.4, 392.0)"> </text><text xml:space="preserve" font-family="CenturyGothic" font-size="14.0" fill="#FFFFFF" transform="matrix(1.00, 0.00, -0.00, -1.00, 346.2, 392.0)">o</text><text xml:space="preserve" font-family="CenturyGothic" font-size="14.0" fill="#FFFFFF" transform="matrix(1.00, 0.00, -0.00, -1.00, 355.4, 392.0)">f</text><text xml:space="preserve" font-family="CenturyGothic" font-size="14.0" fill="#FFFFFF" transform="matrix(1.00, 0.00, -0.00, -1.00, 359.8, 392.0)"> </text><text xml:space="preserve" font-family="CenturyGothic" font-size="14.0" fill="#FFFFFF" transform="matrix(1.00, 0.00, -0.00, -1.00, 363.7, 392.0)">t</text><text xml:space="preserve" font-family="CenturyGothic" font-size="14.0" fill="#FFFFFF" transform="matrix(1.00, 0.00, -0.00, -1.00, 368.4, 392.0)">h</text><text xml:space="preserve" font-family="CenturyGothic" font-size="14.0" fill="#FFFFFF" transform="matrix(1.00, 0.00, -0.00, -1.00, 376.9, 392.0)">e</text><text xml:space="preserve" font-family="CenturyGothic" font-size="14.0" fill="#FFFFFF" transform="matrix(1.00, 0.00, -0.00, -1.00, 386.0, 392.0)"> </text><text xml:space="preserve" font-family="CenturyGothic" font-size="14.0" fill="#FFFFFF" transform="matrix(1.00, 0.00, -0.00, -1.00, 389.9, 392.0)">w</text><text xml:space="preserve" font-family="CenturyGothic" font-size="14.0" fill="#FFFFFF" transform="matrix(1.00, 0.00, -0.00, -1.00, 401.5, 392.0)">i</text><text xml:space="preserve" font-family="CenturyGothic" font-size="14.0" fill="#FFFFFF" transform="matrix(1.00, 0.00, -0.00, -1.00, 404.4, 392.0)">d</text><text xml:space="preserve" font-family="CenturyGothic" font-size="14.0" fill="#FFFFFF" transform="matrix(1.00, 0.00, -0.00, -1.00, 413.9, 392.0)">t</text><text xml:space="preserve" font-family="CenturyGothic" font-size="14.0" fill="#FFFFFF" transform="matrix(1.00, 0.00, -0.00, -1.00, 418.7, 392.0)">h</text><text xml:space="preserve" font-family="CenturyGothic" font-size="14.0" fill="#FFFFFF" transform="matrix(1.00, 0.00, -0.00, -1.00, 427.2, 392.0)"> </text><text xml:space="preserve" font-family="CenturyGothic" font-size="14.0" fill="#FFFFFF" transform="matrix(1.00, 0.00, -0.00, -1.00, 431.1, 392.0)">o</text><text xml:space="preserve" font-family="CenturyGothic" font-size="14.0" fill="#FFFFFF" transform="matrix(1.00, 0.00, -0.00, -1.00, 440.3, 392.0)">f</text><text xml:space="preserve" font-family="CenturyGothic" font-size="14.0" fill="#FFFFFF" transform="matrix(1.00, 0.00, -0.00, -1.00, 444.7, 392.0)"> </text><text xml:space="preserve" font-family="CenturyGothic" font-size="14.0" fill="#FFFFFF" transform="matrix(1.00, 0.00, -0.00, -1.00, 448.5, 392.0)">t</text><text xml:space="preserve" font-family="CenturyGothic" font-size="14.0" fill="#FFFFFF" transform="matrix(1.00, 0.00, -0.00, -1.00, 453.3, 392.0)">h</text><text xml:space="preserve" font-family="CenturyGothic" font-size="14.0" fill="#FFFFFF" transform="matrix(1.00, 0.00, -0.00, -1.00, 461.8, 392.0)">e</text><text xml:space="preserve" font-family="CenturyGothic" font-size="14.0" fill="#FFFFFF" transform="matrix(1.00, 0.00, -0.00, -1.00, 470.9, 392.0)"> </text><text xml:space="preserve" font-family="CenturyGothic" font-size="14.0" fill="#FFFFFF" transform="matrix(1.00, 0.00, -0.00, -1.00, 474.8, 392.0)">s</text><text xml:space="preserve" font-family="CenturyGothic" font-size="14.0" fill="#FFFFFF" transform="matrix(1.00, 0.00, -0.00, -1.00, 480.2, 392.0)">e</text><text xml:space="preserve" font-family="CenturyGothic" font-size="14.0" fill="#FFFFFF" transform="matrix(1.00, 0.00, -0.00, -1.00, 489.3, 392.0)">l</text><text xml:space="preserve" font-family="CenturyGothic" font-size="14.0" fill="#FFFFFF" transform="matrix(1.00, 0.00, -0.00, -1.00, 492.1, 392.0)">f</text><text xml:space="preserve" font-family="CenturyGothic" font-size="14.0" fill="#FFFFFF" transform="matrix(1.00, 0.00, -0.00, -1.00, 496.5, 392.0)"> </text><text xml:space="preserve" font-family="CenturyGothic" font-size="14.0" fill="#FFFFFF" transform="matrix(1.00, 0.00, -0.00, -1.00, 500.4, 392.0)">w</text><text xml:space="preserve" font-family="CenturyGothic" font-size="14.0" fill="#FFFFFF" transform="matrix(1.00, 0.00, -0.00, -1.00, 512.0, 392.0)">h</text><text xml:space="preserve" font-family="CenturyGothic" font-size="14.0" fill="#FFFFFF" transform="matrix(1.00, 0.00, -0.00, -1.00, 520.6, 392.0)">e</text><text xml:space="preserve" font-family="CenturyGothic" font-size="14.0" fill="#FFFFFF" transform="matrix(1.00, 0.00, -0.00, -1.00, 529.7, 392.0)">n</text><text xml:space="preserve" font-family="CenturyGothic" font-size="14.0" fill="#FFFFFF" transform="matrix(1.00, 0.00, -0.00, -1.00, 538.2, 392.0)"> </text><text xml:space="preserve" font-family="CenturyGothic" font-size="14.0" fill="#FFFFFF" transform="matrix(1.00, 0.00, -0.00, -1.00, 542.1, 392.0)">t</text><text xml:space="preserve" font-family="CenturyGothic" font-size="14.0" fill="#FFFFFF" transform="matrix(1.00, 0.00, -0.00, -1.00, 546.8, 392.0)">h</text><text xml:space="preserve" font-family="CenturyGothic" font-size="14.0" fill="#FFFFFF" transform="matrix(1.00, 0.00, -0.00, -1.00, 555.4, 392.0)">e</text><text xml:space="preserve" font-family="CenturyGothic" font-size="14.0" fill="#FFFFFF" transform="matrix(1.00, 0.00, -0.00, -1.00, 564.5, 392.0)">y</text><text xml:space="preserve" font-family="CenturyGothic" font-size="14.0" fill="#FFFFFF" transform="matrix(1.00, 0.00, -0.00, -1.00, 572.0, 392.0)"> </text><text xml:space="preserve" font-family="CenturyGothic" font-size="14.0" fill="#FFFFFF" transform="matrix(1.00, 0.00, -0.00, -1.00, 575.8, 392.0)">c</text><text xml:space="preserve" font-family="CenturyGothic" font-size="14.0" fill="#FFFFFF" transform="matrix(1.00, 0.00, -0.00, -1.00, 584.9, 392.0)">h</text><text xml:space="preserve" font-family="CenturyGothic" font-size="14.0" fill="#FFFFFF" transform="matrix(1.00, 0.00, -0.00, -1.00, 593.4, 392.0)">a</text><text xml:space="preserve" font-family="CenturyGothic" font-size="14.0" fill="#FFFFFF" transform="matrix(1.00, 0.00, -0.00, -1.00, 603.0, 392.0)">n</text><text xml:space="preserve" font-family="CenturyGothic" font-size="14.0" fill="#FFFFFF" transform="matrix(1.00, 0.00, -0.00, -1.00, 611.5, 392.0)">g</text><text xml:space="preserve" font-family="CenturyGothic" font-size="14.0" fill="#FFFFFF" transform="matrix(1.00, 0.00, -0.00, -1.00, 621.0, 392.0)">e</text><text xml:space="preserve" font-family="CenturyGothic" font-size="14.0" fill="#FFFFFF" transform="matrix(1.00, 0.00, -0.00, -1.00, 630.0, 392.0)">d</text><text xml:space="preserve" font-family="CenturyGothic" font-size="14.0" fill="#FFFFFF" transform="matrix(1.00, 0.00, -0.00, -1.00, 639.6, 392.0)"> </text><text xml:space="preserve" font-family="CenturyGothic" font-size="14.0" fill="#FFFFFF" transform="matrix(1.00, 0.00, -0.00, -1.00, 643.5, 392.0)">t</text><text xml:space="preserve" font-family="CenturyGothic" font-size="14.0" fill="#FFFFFF" transform="matrix(1.00, 0.00, -0.00, -1.00, 648.3, 392.0)">h</text><text xml:space="preserve" font-family="CenturyGothic" font-size="14.0" fill="#FFFFFF" transform="matrix(1.00, 0.00, -0.00, -1.00, 656.8, 392.0)">e</text><text xml:space="preserve" font-family="CenturyGothic" font-size="14.0" fill="#FFFFFF" transform="matrix(1.00, 0.00, -0.00, -1.00, 665.9, 392.0)"> </text><text xml:space="preserve" font-family="CenturyGothic" font-size="14.0" fill="#FFFFFF" transform="matrix(1.00, 0.00, -0.00, -1.00, 4.0, 375.0)">d</text><text xml:space="preserve" font-family="CenturyGothic" font-size="14.0" fill="#FFFFFF" transform="matrix(1.00, 0.00, -0.00, -1.00, 13.6, 375.0)">i</text><text xml:space="preserve" font-family="CenturyGothic" font-size="14.0" fill="#FFFFFF" transform="matrix(1.00, 0.00, -0.00, -1.00, 16.4, 375.0)">m</text><text xml:space="preserve" font-family="CenturyGothic" font-size="14.0" fill="#FFFFFF" transform="matrix(1.00, 0.00, -0.00, -1.00, 29.5, 375.0)">e</text><text xml:space="preserve" font-family="CenturyGothic" font-size="14.0" fill="#FFFFFF" transform="matrix(1.00, 0.00, -0.00, -1.00, 38.6, 375.0)">n</text><text xml:space="preserve" font-family="CenturyGothic" font-size="14.0" fill="#FFFFFF" transform="matrix(1.00, 0.00, -0.00, -1.00, 47.2, 375.0)">s</text><text xml:space="preserve" font-family="CenturyGothic" font-size="14.0" fill="#FFFFFF" transform="matrix(1.00, 0.00, -0.00, -1.00, 52.6, 375.0)">i</text><text xml:space="preserve" font-family="CenturyGothic" font-size="14.0" fill="#FFFFFF" transform="matrix(1.00, 0.00, -0.00, -1.00, 55.4, 375.0)">o</text><text xml:space="preserve" font-family="CenturyGothic" font-size="14.0" fill="#FFFFFF" transform="matrix(1.00, 0.00, -0.00, -1.00, 64.6, 375.0)">n</text><text xml:space="preserve" font-family="CenturyGothic" font-size="14.0" fill="#FFFFFF" transform="matrix(1.00, 0.00, -0.00, -1.00, 73.1, 375.0)">s</text></g></g><image xlink:href="../../F08D27C5-98DB-499F-9435-461232BB8C67/assets/560F4E142895BCA18C41BB8813E48945.png" width="1280.00" height="718.00" transform="matrix(0.40, 0.00, -0.00, -0.40, 91.0, 336.0)"></image><image xlink:href="../../5A05CCC6-1FDC-4835-83CD-9E25B9EEC5FF/assets/E4BF2466407E3B2116F1E6DCB356DBE4.png" width="81.00" height="26.00" transform="matrix(0.99, 0.00, -0.00, -1.00, 607.0, 504.0)"></image></g></svg>