<?xml version="1.0" encoding="UTF-8" standalone="no"?><svg xmlns="http://www.w3.org/2000/svg" xmlns:xlink="http://www.w3.org/1999/xlink" clip-rule="evenodd" stroke-miterlimit="4.00" viewBox="0 0 705 100"><desc>SVG generated by Keynote</desc><defs></defs><g transform="matrix(1.00, 0.00, -0.00, -1.00, 0.0, 100.0)"><path d="M 2.0 98.7 L 703.9 98.7 L 703.9 1.9 L 2.0 1.9 Z M 2.0 98.7 " fill="#333333"></path><g><clipPath id="clip-11"><path d="M 1.3 1.9 L 704.6 1.9 L 704.6 98.7 L 1.3 98.7 Z M 1.3 1.9 "></path></clipPath><g clip-path="url(#clip-11)"><text xml:space="preserve" font-family="CenturyGothic-Bold" font-weight="bold" font-size="14.0" fill="#FFFFFF" transform="matrix(1.00, 0.00, -0.00, -1.00, 6.0, 70.0)">S</text><text xml:space="preserve" font-family="CenturyGothic-Bold" font-weight="bold" font-size="14.0" fill="#FFFFFF" transform="matrix(1.00, 0.00, -0.00, -1.00, 13.3, 70.0)">C</text><text xml:space="preserve" font-family="CenturyGothic-Bold" font-weight="bold" font-size="14.0" fill="#FFFFFF" transform="matrix(1.00, 0.00, -0.00, -1.00, 24.2, 70.0)">R</text><text xml:space="preserve" font-family="CenturyGothic-Bold" font-weight="bold" font-size="14.0" fill="#FFFFFF" transform="matrix(1.00, 0.00, -0.00, -1.00, 32.3, 70.0)">O</text><text xml:space="preserve" font-family="CenturyGothic-Bold" font-weight="bold" font-size="14.0" fill="#FFFFFF" transform="matrix(1.00, 0.00, -0.00, -1.00, 44.1, 70.0)">L</text><text xml:space="preserve" font-family="CenturyGothic-Bold" font-weight="bold" font-size="14.0" fill="#FFFFFF" transform="matrix(1.00, 0.00, -0.00, -1.00, 50.2, 70.0)">L</text><text xml:space="preserve" font-family="CenturyGothic-Bold" font-weight="bold" font-size="14.0" fill="#FFFFFF" transform="matrix(1.00, 0.00, -0.00, -1.00, 56.4, 70.0)">I</text><text xml:space="preserve" font-family="CenturyGothic-Bold" font-weight="bold" font-size="14.0" fill="#FFFFFF" transform="matrix(1.00, 0.00, -0.00, -1.00, 60.3, 70.0)">N</text><text xml:space="preserve" font-family="CenturyGothic-Bold" font-weight="bold" font-size="14.0" fill="#FFFFFF" transform="matrix(1.00, 0.00, -0.00, -1.00, 70.7, 70.0)">G</text><text xml:space="preserve" font-family="CenturyGothic-Bold" font-weight="bold" font-size="14.0" fill="#FFFFFF" transform="matrix(1.00, 0.00, -0.00, -1.00, 82.4, 70.0)"> </text><text xml:space="preserve" font-family="LucidaGrande-Bold" font-weight="bold" font-size="14.0" fill="#FFFFFF" transform="matrix(1.00, 0.00, -0.00, -1.00, 86.3, 70.0)"> </text><text xml:space="preserve" font-family="LucidaGrande-Bold" font-weight="bold" font-size="14.0" fill="#FFFFFF" transform="matrix(1.00, 0.00, -0.00, -1.00, 6.0, 53.0)"> </text><text xml:space="preserve" font-family="CenturyGothic-Bold" font-weight="bold" font-size="14.0" fill="#FFFFFF" transform="matrix(1.00, 0.00, -0.00, -1.00, 6.0, 36.0)">P</text><text xml:space="preserve" font-family="CenturyGothic-Bold" font-weight="bold" font-size="14.0" fill="#FFFFFF" transform="matrix(1.00, 0.00, -0.00, -1.00, 13.8, 36.0)">r</text><text xml:space="preserve" font-family="CenturyGothic-Bold" font-weight="bold" font-size="14.0" fill="#FFFFFF" transform="matrix(1.00, 0.00, -0.00, -1.00, 18.3, 36.0)">o</text><text xml:space="preserve" font-family="CenturyGothic-Bold" font-weight="bold" font-size="14.0" fill="#FFFFFF" transform="matrix(1.00, 0.00, -0.00, -1.00, 27.3, 36.0)">b</text><text xml:space="preserve" font-family="CenturyGothic-Bold" font-weight="bold" font-size="14.0" fill="#FFFFFF" transform="matrix(1.00, 0.00, -0.00, -1.00, 36.5, 36.0)">l</text><text xml:space="preserve" font-family="CenturyGothic-Bold" font-weight="bold" font-size="14.0" fill="#FFFFFF" transform="matrix(1.00, 0.00, -0.00, -1.00, 39.9, 36.0)">e</text><text xml:space="preserve" font-family="CenturyGothic-Bold" font-weight="bold" font-size="14.0" fill="#FFFFFF" transform="matrix(1.00, 0.00, -0.00, -1.00, 48.8, 36.0)">m</text><text xml:space="preserve" font-family="CenturyGothic-Bold" font-weight="bold" font-size="14.0" fill="#FFFFFF" transform="matrix(1.00, 0.00, -0.00, -1.00, 62.0, 36.0)">:</text><text xml:space="preserve" font-family="CenturyGothic-Bold" font-weight="bold" font-size="14.0" fill="#FFFFFF" transform="matrix(1.00, 0.00, -0.00, -1.00, 65.9, 36.0)"> </text><text xml:space="preserve" font-family="CenturyGothic" font-size="14.0" fill="#FFFFFF" transform="matrix(1.00, 0.00, -0.00, -1.00, 69.8, 36.0)">w</text><text xml:space="preserve" font-family="CenturyGothic" font-size="14.0" fill="#FFFFFF" transform="matrix(1.00, 0.00, -0.00, -1.00, 81.5, 36.0)">h</text><text xml:space="preserve" font-family="CenturyGothic" font-size="14.0" fill="#FFFFFF" transform="matrix(1.00, 0.00, -0.00, -1.00, 90.0, 36.0)">e</text><text xml:space="preserve" font-family="CenturyGothic" font-size="14.0" fill="#FFFFFF" transform="matrix(1.00, 0.00, -0.00, -1.00, 99.1, 36.0)">n</text><text xml:space="preserve" font-family="CenturyGothic" font-size="14.0" fill="#FFFFFF" transform="matrix(1.00, 0.00, -0.00, -1.00, 107.6, 36.0)"> </text><text xml:space="preserve" font-family="CenturyGothic" font-size="14.0" fill="#FFFFFF" transform="matrix(1.00, 0.00, -0.00, -1.00, 111.5, 36.0)">t</text><text xml:space="preserve" font-family="CenturyGothic" font-size="14.0" fill="#FFFFFF" transform="matrix(1.00, 0.00, -0.00, -1.00, 116.3, 36.0)">h</text><text xml:space="preserve" font-family="CenturyGothic" font-size="14.0" fill="#FFFFFF" transform="matrix(1.00, 0.00, -0.00, -1.00, 124.8, 36.0)">e</text><text xml:space="preserve" font-family="CenturyGothic" font-size="14.0" fill="#FFFFFF" transform="matrix(1.00, 0.00, -0.00, -1.00, 133.9, 36.0)"> </text><text xml:space="preserve" font-family="CenturyGothic" font-size="14.0" fill="#FFFFFF" transform="matrix(1.00, 0.00, -0.00, -1.00, 137.8, 36.0)">u</text><text xml:space="preserve" font-family="CenturyGothic" font-size="14.0" fill="#FFFFFF" transform="matrix(1.00, 0.00, -0.00, -1.00, 146.3, 36.0)">s</text><text xml:space="preserve" font-family="CenturyGothic" font-size="14.0" fill="#FFFFFF" transform="matrix(1.00, 0.00, -0.00, -1.00, 151.7, 36.0)">e</text><text xml:space="preserve" font-family="CenturyGothic" font-size="14.0" fill="#FFFFFF" transform="matrix(1.00, 0.00, -0.00, -1.00, 160.8, 36.0)">r</text><text xml:space="preserve" font-family="CenturyGothic" font-size="14.0" fill="#FFFFFF" transform="matrix(1.00, 0.00, -0.00, -1.00, 165.0, 36.0)">s</text><text xml:space="preserve" font-family="CenturyGothic" font-size="14.0" fill="#FFFFFF" transform="matrix(1.00, 0.00, -0.00, -1.00, 170.5, 36.0)"> </text><text xml:space="preserve" font-family="CenturyGothic" font-size="14.0" fill="#FFFFFF" transform="matrix(1.00, 0.00, -0.00, -1.00, 174.3, 36.0)">s</text><text xml:space="preserve" font-family="CenturyGothic" font-size="14.0" fill="#FFFFFF" transform="matrix(1.00, 0.00, -0.00, -1.00, 179.8, 36.0)">t</text><text xml:space="preserve" font-family="CenturyGothic" font-size="14.0" fill="#FFFFFF" transform="matrix(1.00, 0.00, -0.00, -1.00, 184.5, 36.0)">a</text><text xml:space="preserve" font-family="CenturyGothic" font-size="14.0" fill="#FFFFFF" transform="matrix(1.00, 0.00, -0.00, -1.00, 194.1, 36.0)">r</text><text xml:space="preserve" font-family="CenturyGothic" font-size="14.0" fill="#FFFFFF" transform="matrix(1.00, 0.00, -0.00, -1.00, 198.3, 36.0)">t</text><text xml:space="preserve" font-family="CenturyGothic" font-size="14.0" fill="#FFFFFF" transform="matrix(1.00, 0.00, -0.00, -1.00, 203.0, 36.0)">e</text><text xml:space="preserve" font-family="CenturyGothic" font-size="14.0" fill="#FFFFFF" transform="matrix(1.00, 0.00, -0.00, -1.00, 212.1, 36.0)">d</text><text xml:space="preserve" font-family="CenturyGothic" font-size="14.0" fill="#FFFFFF" transform="matrix(1.00, 0.00, -0.00, -1.00, 221.7, 36.0)"> </text><text xml:space="preserve" font-family="CenturyGothic" font-size="14.0" fill="#FFFFFF" transform="matrix(1.00, 0.00, -0.00, -1.00, 225.6, 36.0)">t</text><text xml:space="preserve" font-family="CenturyGothic" font-size="14.0" fill="#FFFFFF" transform="matrix(1.00, 0.00, -0.00, -1.00, 230.3, 36.0)">o</text><text xml:space="preserve" font-family="CenturyGothic" font-size="14.0" fill="#FFFFFF" transform="matrix(1.00, 0.00, -0.00, -1.00, 239.5, 36.0)"> </text><text xml:space="preserve" font-family="CenturyGothic" font-size="14.0" fill="#FFFFFF" transform="matrix(1.00, 0.00, -0.00, -1.00, 243.4, 36.0)">w</text><text xml:space="preserve" font-family="CenturyGothic" font-size="14.0" fill="#FFFFFF" transform="matrix(1.00, 0.00, -0.00, -1.00, 255.0, 36.0)">o</text><text xml:space="preserve" font-family="CenturyGothic" font-size="14.0" fill="#FFFFFF" transform="matrix(1.00, 0.00, -0.00, -1.00, 264.2, 36.0)">r</text><text xml:space="preserve" font-family="CenturyGothic" font-size="14.0" fill="#FFFFFF" transform="matrix(1.00, 0.00, -0.00, -1.00, 268.4, 36.0)">k</text><text xml:space="preserve" font-family="CenturyGothic" font-size="14.0" fill="#FFFFFF" transform="matrix(1.00, 0.00, -0.00, -1.00, 275.4, 36.0)"> </text><text xml:space="preserve" font-family="CenturyGothic" font-size="14.0" fill="#FFFFFF" transform="matrix(1.00, 0.00, -0.00, -1.00, 279.3, 36.0)">w</text><text xml:space="preserve" font-family="CenturyGothic" font-size="14.0" fill="#FFFFFF" transform="matrix(1.00, 0.00, -0.00, -1.00, 290.9, 36.0)">i</text><text xml:space="preserve" font-family="CenturyGothic" font-size="14.0" fill="#FFFFFF" transform="matrix(1.00, 0.00, -0.00, -1.00, 293.7, 36.0)">t</text><text xml:space="preserve" font-family="CenturyGothic" font-size="14.0" fill="#FFFFFF" transform="matrix(1.00, 0.00, -0.00, -1.00, 298.5, 36.0)">h</text><text xml:space="preserve" font-family="CenturyGothic" font-size="14.0" fill="#FFFFFF" transform="matrix(1.00, 0.00, -0.00, -1.00, 307.0, 36.0)"> </text><text xml:space="preserve" font-family="CenturyGothic" font-size="14.0" fill="#FFFFFF" transform="matrix(1.00, 0.00, -0.00, -1.00, 310.9, 36.0)">t</text><text xml:space="preserve" font-family="CenturyGothic" font-size="14.0" fill="#FFFFFF" transform="matrix(1.00, 0.00, -0.00, -1.00, 315.6, 36.0)">h</text><text xml:space="preserve" font-family="CenturyGothic" font-size="14.0" fill="#FFFFFF" transform="matrix(1.00, 0.00, -0.00, -1.00, 324.2, 36.0)">e</text><text xml:space="preserve" font-family="CenturyGothic" font-size="14.0" fill="#FFFFFF" transform="matrix(1.00, 0.00, -0.00, -1.00, 333.3, 36.0)"> </text><text xml:space="preserve" font-family="CenturyGothic" font-size="14.0" fill="#FFFFFF" transform="matrix(1.00, 0.00, -0.00, -1.00, 337.1, 36.0)">K</text><text xml:space="preserve" font-family="CenturyGothic" font-size="14.0" fill="#FFFFFF" transform="matrix(1.00, 0.00, -0.00, -1.00, 345.4, 36.0)">o</text><text xml:space="preserve" font-family="CenturyGothic" font-size="14.0" fill="#FFFFFF" transform="matrix(1.00, 0.00, -0.00, -1.00, 354.6, 36.0)">n</text><text xml:space="preserve" font-family="CenturyGothic" font-size="14.0" fill="#FFFFFF" transform="matrix(1.00, 0.00, -0.00, -1.00, 363.1, 36.0)">f</text><text xml:space="preserve" font-family="CenturyGothic" font-size="14.0" fill="#FFFFFF" transform="matrix(1.00, 0.00, -0.00, -1.00, 367.5, 36.0)">i</text><text xml:space="preserve" font-family="CenturyGothic" font-size="14.0" fill="#FFFFFF" transform="matrix(1.00, 0.00, -0.00, -1.00, 370.3, 36.0)">g</text><text xml:space="preserve" font-family="CenturyGothic" font-size="14.0" fill="#FFFFFF" transform="matrix(1.00, 0.00, -0.00, -1.00, 379.7, 36.0)">u</text><text xml:space="preserve" font-family="CenturyGothic" font-size="14.0" fill="#FFFFFF" transform="matrix(1.00, 0.00, -0.00, -1.00, 388.2, 36.0)">r</text><text xml:space="preserve" font-family="CenturyGothic" font-size="14.0" fill="#FFFFFF" transform="matrix(1.00, 0.00, -0.00, -1.00, 392.4, 36.0)">a</text><text xml:space="preserve" font-family="CenturyGothic" font-size="14.0" fill="#FFFFFF" transform="matrix(1.00, 0.00, -0.00, -1.00, 402.0, 36.0)">t</text><text xml:space="preserve" font-family="CenturyGothic" font-size="14.0" fill="#FFFFFF" transform="matrix(1.00, 0.00, -0.00, -1.00, 406.7, 36.0)">o</text><text xml:space="preserve" font-family="CenturyGothic" font-size="14.0" fill="#FFFFFF" transform="matrix(1.00, 0.00, -0.00, -1.00, 415.9, 36.0)">r</text><text xml:space="preserve" font-family="CenturyGothic" font-size="14.0" fill="#FFFFFF" transform="matrix(1.00, 0.00, -0.00, -1.00, 420.1, 36.0)"> </text><text xml:space="preserve" font-family="CenturyGothic" font-size="14.0" fill="#FFFFFF" transform="matrix(1.00, 0.00, -0.00, -1.00, 424.0, 36.0)">t</text><text xml:space="preserve" font-family="CenturyGothic" font-size="14.0" fill="#FFFFFF" transform="matrix(1.00, 0.00, -0.00, -1.00, 428.7, 36.0)">h</text><text xml:space="preserve" font-family="CenturyGothic" font-size="14.0" fill="#FFFFFF" transform="matrix(1.00, 0.00, -0.00, -1.00, 437.3, 36.0)">e</text><text xml:space="preserve" font-family="CenturyGothic" font-size="14.0" fill="#FFFFFF" transform="matrix(1.00, 0.00, -0.00, -1.00, 446.4, 36.0)">y</text><text xml:space="preserve" font-family="CenturyGothic" font-size="14.0" fill="#FFFFFF" transform="matrix(1.00, 0.00, -0.00, -1.00, 453.9, 36.0)"> </text><text xml:space="preserve" font-family="CenturyGothic" font-size="14.0" fill="#FFFFFF" transform="matrix(1.00, 0.00, -0.00, -1.00, 457.7, 36.0)">o</text><text xml:space="preserve" font-family="CenturyGothic" font-size="14.0" fill="#FFFFFF" transform="matrix(1.00, 0.00, -0.00, -1.00, 466.9, 36.0)">v</text><text xml:space="preserve" font-family="CenturyGothic" font-size="14.0" fill="#FFFFFF" transform="matrix(1.00, 0.00, -0.00, -1.00, 474.7, 36.0)">e</text><text xml:space="preserve" font-family="CenturyGothic" font-size="14.0" fill="#FFFFFF" transform="matrix(1.00, 0.00, -0.00, -1.00, 483.8, 36.0)">r</text><text xml:space="preserve" font-family="CenturyGothic" font-size="14.0" fill="#FFFFFF" transform="matrix(1.00, 0.00, -0.00, -1.00, 488.0, 36.0)">s</text><text xml:space="preserve" font-family="CenturyGothic" font-size="14.0" fill="#FFFFFF" transform="matrix(1.00, 0.00, -0.00, -1.00, 493.4, 36.0)">a</text><text xml:space="preserve" font-family="CenturyGothic" font-size="14.0" fill="#FFFFFF" transform="matrix(1.00, 0.00, -0.00, -1.00, 503.0, 36.0)">w</text><text xml:space="preserve" font-family="CenturyGothic" font-size="14.0" fill="#FFFFFF" transform="matrix(1.00, 0.00, -0.00, -1.00, 514.6, 36.0)"> </text><text xml:space="preserve" font-family="CenturyGothic" font-size="14.0" fill="#FFFFFF" transform="matrix(1.00, 0.00, -0.00, -1.00, 518.5, 36.0)">t</text><text xml:space="preserve" font-family="CenturyGothic" font-size="14.0" fill="#FFFFFF" transform="matrix(1.00, 0.00, -0.00, -1.00, 523.3, 36.0)">h</text><text xml:space="preserve" font-family="CenturyGothic" font-size="14.0" fill="#FFFFFF" transform="matrix(1.00, 0.00, -0.00, -1.00, 531.8, 36.0)">e</text><text xml:space="preserve" font-family="CenturyGothic" font-size="14.0" fill="#FFFFFF" transform="matrix(1.00, 0.00, -0.00, -1.00, 540.9, 36.0)"> </text><text xml:space="preserve" font-family="CenturyGothic" font-size="14.0" fill="#FFFFFF" transform="matrix(1.00, 0.00, -0.00, -1.00, 544.8, 36.0)">c</text><text xml:space="preserve" font-family="CenturyGothic" font-size="14.0" fill="#FFFFFF" transform="matrix(1.00, 0.00, -0.00, -1.00, 553.9, 36.0)">o</text><text xml:space="preserve" font-family="CenturyGothic" font-size="14.0" fill="#FFFFFF" transform="matrix(1.00, 0.00, -0.00, -1.00, 563.0, 36.0)">n</text><text xml:space="preserve" font-family="CenturyGothic" font-size="14.0" fill="#FFFFFF" transform="matrix(1.00, 0.00, -0.00, -1.00, 571.6, 36.0)">t</text><text xml:space="preserve" font-family="CenturyGothic" font-size="14.0" fill="#FFFFFF" transform="matrix(1.00, 0.00, -0.00, -1.00, 576.3, 36.0)">e</text><text xml:space="preserve" font-family="CenturyGothic" font-size="14.0" fill="#FFFFFF" transform="matrix(1.00, 0.00, -0.00, -1.00, 585.4, 36.0)">n</text><text xml:space="preserve" font-family="CenturyGothic" font-size="14.0" fill="#FFFFFF" transform="matrix(1.00, 0.00, -0.00, -1.00, 593.9, 36.0)">t</text><text xml:space="preserve" font-family="CenturyGothic" font-size="14.0" fill="#FFFFFF" transform="matrix(1.00, 0.00, -0.00, -1.00, 598.7, 36.0)"> </text><text xml:space="preserve" font-family="CenturyGothic" font-size="14.0" fill="#FFFFFF" transform="matrix(1.00, 0.00, -0.00, -1.00, 602.5, 36.0)">i</text><text xml:space="preserve" font-family="CenturyGothic" font-size="14.0" fill="#FFFFFF" transform="matrix(1.00, 0.00, -0.00, -1.00, 605.4, 36.0)">n</text><text xml:space="preserve" font-family="CenturyGothic" font-size="14.0" fill="#FFFFFF" transform="matrix(1.00, 0.00, -0.00, -1.00, 613.9, 36.0)"> </text><text xml:space="preserve" font-family="CenturyGothic" font-size="14.0" fill="#FFFFFF" transform="matrix(1.00, 0.00, -0.00, -1.00, 617.8, 36.0)">t</text><text xml:space="preserve" font-family="CenturyGothic" font-size="14.0" fill="#FFFFFF" transform="matrix(1.00, 0.00, -0.00, -1.00, 622.5, 36.0)">h</text><text xml:space="preserve" font-family="CenturyGothic" font-size="14.0" fill="#FFFFFF" transform="matrix(1.00, 0.00, -0.00, -1.00, 631.0, 36.0)">e</text><text xml:space="preserve" font-family="CenturyGothic" font-size="14.0" fill="#FFFFFF" transform="matrix(1.00, 0.00, -0.00, -1.00, 640.1, 36.0)"> </text><text xml:space="preserve" font-family="CenturyGothic" font-size="14.0" fill="#FFFFFF" transform="matrix(1.00, 0.00, -0.00, -1.00, 644.0, 36.0)">t</text><text xml:space="preserve" font-family="CenturyGothic" font-size="14.0" fill="#FFFFFF" transform="matrix(1.00, 0.00, -0.00, -1.00, 648.8, 36.0)">o</text><text xml:space="preserve" font-family="CenturyGothic" font-size="14.0" fill="#FFFFFF" transform="matrix(1.00, 0.00, -0.00, -1.00, 657.9, 36.0)">p</text><text xml:space="preserve" font-family="CenturyGothic" font-size="14.0" fill="#FFFFFF" transform="matrix(1.00, 0.00, -0.00, -1.00, 667.5, 36.0)"> </text><text xml:space="preserve" font-family="CenturyGothic" font-size="14.0" fill="#FFFFFF" transform="matrix(1.00, 0.00, -0.00, -1.00, 6.0, 19.0)">(</text><text xml:space="preserve" font-family="CenturyGothic" font-size="14.0" fill="#FFFFFF" transform="matrix(1.00, 0.00, -0.00, -1.00, 11.2, 19.0)">m</text><text xml:space="preserve" font-family="CenturyGothic" font-size="14.0" fill="#FFFFFF" transform="matrix(1.00, 0.00, -0.00, -1.00, 24.3, 19.0)">e</text><text xml:space="preserve" font-family="CenturyGothic" font-size="14.0" fill="#FFFFFF" transform="matrix(1.00, 0.00, -0.00, -1.00, 33.4, 19.0)">n</text><text xml:space="preserve" font-family="CenturyGothic" font-size="14.0" fill="#FFFFFF" transform="matrix(1.00, 0.00, -0.00, -1.00, 41.9, 19.0)">u</text><text xml:space="preserve" font-family="CenturyGothic" font-size="14.0" fill="#FFFFFF" transform="matrix(1.00, 0.00, -0.00, -1.00, 50.4, 19.0)">,</text><text xml:space="preserve" font-family="CenturyGothic" font-size="14.0" fill="#FFFFFF" transform="matrix(1.00, 0.00, -0.00, -1.00, 54.3, 19.0)"> </text><text xml:space="preserve" font-family="CenturyGothic" font-size="14.0" fill="#FFFFFF" transform="matrix(1.00, 0.00, -0.00, -1.00, 58.2, 19.0)">p</text><text xml:space="preserve" font-family="CenturyGothic" font-size="14.0" fill="#FFFFFF" transform="matrix(1.00, 0.00, -0.00, -1.00, 67.7, 19.0)">r</text><text xml:space="preserve" font-family="CenturyGothic" font-size="14.0" fill="#FFFFFF" transform="matrix(1.00, 0.00, -0.00, -1.00, 72.0, 19.0)">i</text><text xml:space="preserve" font-family="CenturyGothic" font-size="14.0" fill="#FFFFFF" transform="matrix(1.00, 0.00, -0.00, -1.00, 74.8, 19.0)">c</text><text xml:space="preserve" font-family="CenturyGothic" font-size="14.0" fill="#FFFFFF" transform="matrix(1.00, 0.00, -0.00, -1.00, 83.8, 19.0)">e</text><text xml:space="preserve" font-family="CenturyGothic" font-size="14.0" fill="#FFFFFF" transform="matrix(1.00, 0.00, -0.00, -1.00, 92.9, 19.0)">,</text><text xml:space="preserve" font-family="CenturyGothic" font-size="14.0" fill="#FFFFFF" transform="matrix(1.00, 0.00, -0.00, -1.00, 96.8, 19.0)"> </text><text xml:space="preserve" font-family="CenturyGothic" font-size="14.0" fill="#FFFFFF" transform="matrix(1.00, 0.00, -0.00, -1.00, 100.7, 19.0)">s</text><text xml:space="preserve" font-family="CenturyGothic" font-size="14.0" fill="#FFFFFF" transform="matrix(1.00, 0.00, -0.00, -1.00, 106.1, 19.0)">h</text><text xml:space="preserve" font-family="CenturyGothic" font-size="14.0" fill="#FFFFFF" transform="matrix(1.00, 0.00, -0.00, -1.00, 114.6, 19.0)">o</text><text xml:space="preserve" font-family="CenturyGothic" font-size="14.0" fill="#FFFFFF" transform="matrix(1.00, 0.00, -0.00, -1.00, 123.8, 19.0)">p</text><text xml:space="preserve" font-family="CenturyGothic" font-size="14.0" fill="#FFFFFF" transform="matrix(1.00, 0.00, -0.00, -1.00, 133.4, 19.0)">p</text><text xml:space="preserve" font-family="CenturyGothic" font-size="14.0" fill="#FFFFFF" transform="matrix(1.00, 0.00, -0.00, -1.00, 142.9, 19.0)">i</text><text xml:space="preserve" font-family="CenturyGothic" font-size="14.0" fill="#FFFFFF" transform="matrix(1.00, 0.00, -0.00, -1.00, 145.7, 19.0)">n</text><text xml:space="preserve" font-family="CenturyGothic" font-size="14.0" fill="#FFFFFF" transform="matrix(1.00, 0.00, -0.00, -1.00, 154.2, 19.0)">g</text><text xml:space="preserve" font-family="CenturyGothic" font-size="14.0" fill="#FFFFFF" transform="matrix(1.00, 0.00, -0.00, -1.00, 163.7, 19.0)"> </text><text xml:space="preserve" font-family="CenturyGothic" font-size="14.0" fill="#FFFFFF" transform="matrix(1.00, 0.00, -0.00, -1.00, 167.5, 19.0)">b</text><text xml:space="preserve" font-family="CenturyGothic" font-size="14.0" fill="#FFFFFF" transform="matrix(1.00, 0.00, -0.00, -1.00, 177.1, 19.0)">a</text><text xml:space="preserve" font-family="CenturyGothic" font-size="14.0" fill="#FFFFFF" transform="matrix(1.00, 0.00, -0.00, -1.00, 186.7, 19.0)">s</text><text xml:space="preserve" font-family="CenturyGothic" font-size="14.0" fill="#FFFFFF" transform="matrix(1.00, 0.00, -0.00, -1.00, 192.1, 19.0)">k</text><text xml:space="preserve" font-family="CenturyGothic" font-size="14.0" fill="#FFFFFF" transform="matrix(1.00, 0.00, -0.00, -1.00, 199.1, 19.0)">e</text><text xml:space="preserve" font-family="CenturyGothic" font-size="14.0" fill="#FFFFFF" transform="matrix(1.00, 0.00, -0.00, -1.00, 208.2, 19.0)">t</text><text xml:space="preserve" font-family="CenturyGothic" font-size="14.0" fill="#FFFFFF" transform="matrix(1.00, 0.00, -0.00, -1.00, 213.0, 19.0)">)</text></g></g></g></svg>