<?xml version="1.0" encoding="UTF-8" standalone="no"?><svg xmlns="http://www.w3.org/2000/svg" xmlns:xlink="http://www.w3.org/1999/xlink" clip-rule="evenodd" stroke-miterlimit="4.00" viewBox="0 0 720 540"><desc>SVG generated by Keynote</desc><defs></defs><g transform="matrix(1.00, 0.00, -0.00, -1.00, 0.0, 540.0)"><path d="M 0.0 540.0 L 720.0 540.0 L 720.0 0.0 L 0.0 0.0 Z M 0.0 540.0 " fill="#FFFFFF"></path><path d="M 72.0 540.0 L 701.9 540.0 L 701.9 525.6 L 72.0 525.6 Z M 72.0 540.0 " fill="#D6D9CD"></path><path d="M 72.0 14.4 L 701.9 14.4 L 701.9 0.0 L 72.0 0.0 Z M 72.0 14.4 " fill="#E3E5DD"></path><path d="M -0.0 452.9 L 701.9 452.9 L 701.9 369.0 L -0.0 369.0 Z M -0.0 452.9 " fill="#333333"></path><g><clipPath id="clip-18"><path d="M -0.7 369.0 L 702.6 369.0 L 702.6 452.9 L -0.7 452.9 Z M -0.7 369.0 "></path></clipPath><g clip-path="url(#clip-18)"><text xml:space="preserve" font-family="CenturyGothic-Bold" font-weight="bold" font-size="14.0" fill="#FFFFFF" transform="matrix(1.00, 0.00, -0.00, -1.00, 4.0, 422.0)">F</text><text xml:space="preserve" font-family="CenturyGothic-Bold" font-weight="bold" font-size="14.0" fill="#FFFFFF" transform="matrix(1.00, 0.00, -0.00, -1.00, 10.7, 422.0)">R</text><text xml:space="preserve" font-family="CenturyGothic-Bold" font-weight="bold" font-size="14.0" fill="#FFFFFF" transform="matrix(1.00, 0.00, -0.00, -1.00, 18.8, 422.0)">O</text><text xml:space="preserve" font-family="CenturyGothic-Bold" font-weight="bold" font-size="14.0" fill="#FFFFFF" transform="matrix(1.00, 0.00, -0.00, -1.00, 30.6, 422.0)">N</text><text xml:space="preserve" font-family="CenturyGothic-Bold" font-weight="bold" font-size="14.0" fill="#FFFFFF" transform="matrix(1.00, 0.00, -0.00, -1.00, 40.9, 422.0)">T</text><text xml:space="preserve" font-family="CenturyGothic-Bold" font-weight="bold" font-size="14.0" fill="#FFFFFF" transform="matrix(1.00, 0.00, -0.00, -1.00, 46.8, 422.0)">S</text><text xml:space="preserve" font-family="CenturyGothic-Bold" font-weight="bold" font-size="14.0" fill="#FFFFFF" transform="matrix(1.00, 0.00, -0.00, -1.00, 54.1, 422.0)"> </text><text xml:space="preserve" font-family="CenturyGothic-Bold" font-weight="bold" font-size="14.0" fill="#FFFFFF" transform="matrix(1.00, 0.00, -0.00, -1.00, 58.0, 422.0)">U</text><text xml:space="preserve" font-family="CenturyGothic-Bold" font-weight="bold" font-size="14.0" fill="#FFFFFF" transform="matrix(1.00, 0.00, -0.00, -1.00, 67.0, 422.0)">N</text><text xml:space="preserve" font-family="CenturyGothic-Bold" font-weight="bold" font-size="14.0" fill="#FFFFFF" transform="matrix(1.00, 0.00, -0.00, -1.00, 77.3, 422.0)">D</text><text xml:space="preserve" font-family="CenturyGothic-Bold" font-weight="bold" font-size="14.0" fill="#FFFFFF" transform="matrix(1.00, 0.00, -0.00, -1.00, 87.1, 422.0)"> </text><text xml:space="preserve" font-family="CenturyGothic-Bold" font-weight="bold" font-size="14.0" fill="#FFFFFF" transform="matrix(1.00, 0.00, -0.00, -1.00, 91.1, 422.0)">F</text><text xml:space="preserve" font-family="CenturyGothic-Bold" font-weight="bold" font-size="14.0" fill="#FFFFFF" transform="matrix(1.00, 0.00, -0.00, -1.00, 97.8, 422.0)">L</text><text xml:space="preserve" font-family="CenturyGothic-Bold" font-weight="bold" font-size="14.0" fill="#FFFFFF" transform="matrix(1.00, 0.00, -0.00, -1.00, 103.9, 422.0)">O</text><text xml:space="preserve" font-family="CenturyGothic-Bold" font-weight="bold" font-size="14.0" fill="#FFFFFF" transform="matrix(1.00, 0.00, -0.00, -1.00, 115.7, 422.0)">O</text><text xml:space="preserve" font-family="CenturyGothic-Bold" font-weight="bold" font-size="14.0" fill="#FFFFFF" transform="matrix(1.00, 0.00, -0.00, -1.00, 127.4, 422.0)">R</text><text xml:space="preserve" font-family="CenturyGothic-Bold" font-weight="bold" font-size="14.0" fill="#FFFFFF" transform="matrix(1.00, 0.00, -0.00, -1.00, 135.6, 422.0)">S</text><text xml:space="preserve" font-family="CenturyGothic-Bold" font-weight="bold" font-size="14.0" fill="#FFFFFF" transform="matrix(1.00, 0.00, -0.00, -1.00, 142.8, 422.0)"> </text><text xml:space="preserve" font-family="LucidaGrande-Bold" font-weight="bold" font-size="14.0" fill="#FFFFFF" transform="matrix(1.00, 0.00, -0.00, -1.00, 146.8, 422.0)"> </text><text xml:space="preserve" font-family="LucidaGrande-Bold" font-weight="bold" font-size="14.0" fill="#FFFFFF" transform="matrix(1.00, 0.00, -0.00, -1.00, 4.0, 405.0)"> </text><text xml:space="preserve" font-family="CenturyGothic-Bold" font-weight="bold" font-size="14.0" fill="#FFFFFF" transform="matrix(1.00, 0.00, -0.00, -1.00, 4.0, 388.0)">P</text><text xml:space="preserve" font-family="CenturyGothic-Bold" font-weight="bold" font-size="14.0" fill="#FFFFFF" transform="matrix(1.00, 0.00, -0.00, -1.00, 11.8, 388.0)">r</text><text xml:space="preserve" font-family="CenturyGothic-Bold" font-weight="bold" font-size="14.0" fill="#FFFFFF" transform="matrix(1.00, 0.00, -0.00, -1.00, 16.3, 388.0)">o</text><text xml:space="preserve" font-family="CenturyGothic-Bold" font-weight="bold" font-size="14.0" fill="#FFFFFF" transform="matrix(1.00, 0.00, -0.00, -1.00, 25.3, 388.0)">b</text><text xml:space="preserve" font-family="CenturyGothic-Bold" font-weight="bold" font-size="14.0" fill="#FFFFFF" transform="matrix(1.00, 0.00, -0.00, -1.00, 34.5, 388.0)">l</text><text xml:space="preserve" font-family="CenturyGothic-Bold" font-weight="bold" font-size="14.0" fill="#FFFFFF" transform="matrix(1.00, 0.00, -0.00, -1.00, 37.9, 388.0)">e</text><text xml:space="preserve" font-family="CenturyGothic-Bold" font-weight="bold" font-size="14.0" fill="#FFFFFF" transform="matrix(1.00, 0.00, -0.00, -1.00, 46.8, 388.0)">m</text><text xml:space="preserve" font-family="CenturyGothic" font-size="14.0" fill="#FFFFFF" transform="matrix(1.00, 0.00, -0.00, -1.00, 60.0, 388.0)">:</text><text xml:space="preserve" font-family="CenturyGothic" font-size="14.0" fill="#FFFFFF" transform="matrix(1.00, 0.00, -0.00, -1.00, 63.9, 388.0)"> </text><text xml:space="preserve" font-family="CenturyGothic" font-size="14.0" fill="#FFFFFF" transform="matrix(1.00, 0.00, -0.00, -1.00, 67.7, 388.0)">t</text><text xml:space="preserve" font-family="CenturyGothic" font-size="14.0" fill="#FFFFFF" transform="matrix(1.00, 0.00, -0.00, -1.00, 72.5, 388.0)">h</text><text xml:space="preserve" font-family="CenturyGothic" font-size="14.0" fill="#FFFFFF" transform="matrix(1.00, 0.00, -0.00, -1.00, 81.0, 388.0)">e</text><text xml:space="preserve" font-family="CenturyGothic" font-size="14.0" fill="#FFFFFF" transform="matrix(1.00, 0.00, -0.00, -1.00, 90.1, 388.0)"> </text><text xml:space="preserve" font-family="CenturyGothic" font-size="14.0" fill="#FFFFFF" transform="matrix(1.00, 0.00, -0.00, -1.00, 94.0, 388.0)">u</text><text xml:space="preserve" font-family="CenturyGothic" font-size="14.0" fill="#FFFFFF" transform="matrix(1.00, 0.00, -0.00, -1.00, 102.5, 388.0)">s</text><text xml:space="preserve" font-family="CenturyGothic" font-size="14.0" fill="#FFFFFF" transform="matrix(1.00, 0.00, -0.00, -1.00, 107.9, 388.0)">e</text><text xml:space="preserve" font-family="CenturyGothic" font-size="14.0" fill="#FFFFFF" transform="matrix(1.00, 0.00, -0.00, -1.00, 117.0, 388.0)">r</text><text xml:space="preserve" font-family="CenturyGothic" font-size="14.0" fill="#FFFFFF" transform="matrix(1.00, 0.00, -0.00, -1.00, 121.3, 388.0)">s</text><text xml:space="preserve" font-family="CenturyGothic" font-size="14.0" fill="#FFFFFF" transform="matrix(1.00, 0.00, -0.00, -1.00, 126.7, 388.0)"> </text><text xml:space="preserve" font-family="CenturyGothic" font-size="14.0" fill="#FFFFFF" transform="matrix(1.00, 0.00, -0.00, -1.00, 130.6, 388.0)">g</text><text xml:space="preserve" font-family="CenturyGothic" font-size="14.0" fill="#FFFFFF" transform="matrix(1.00, 0.00, -0.00, -1.00, 140.0, 388.0)">o</text><text xml:space="preserve" font-family="CenturyGothic" font-size="14.0" fill="#FFFFFF" transform="matrix(1.00, 0.00, -0.00, -1.00, 149.1, 388.0)">t</text><text xml:space="preserve" font-family="CenturyGothic" font-size="14.0" fill="#FFFFFF" transform="matrix(1.00, 0.00, -0.00, -1.00, 153.9, 388.0)"> </text><text xml:space="preserve" font-family="CenturyGothic" font-size="14.0" fill="#FFFFFF" transform="matrix(1.00, 0.00, -0.00, -1.00, 157.8, 388.0)">c</text><text xml:space="preserve" font-family="CenturyGothic" font-size="14.0" fill="#FFFFFF" transform="matrix(1.00, 0.00, -0.00, -1.00, 166.8, 388.0)">o</text><text xml:space="preserve" font-family="CenturyGothic" font-size="14.0" fill="#FFFFFF" transform="matrix(1.00, 0.00, -0.00, -1.00, 176.0, 388.0)">n</text><text xml:space="preserve" font-family="CenturyGothic" font-size="14.0" fill="#FFFFFF" transform="matrix(1.00, 0.00, -0.00, -1.00, 184.5, 388.0)">f</text><text xml:space="preserve" font-family="CenturyGothic" font-size="14.0" fill="#FFFFFF" transform="matrix(1.00, 0.00, -0.00, -1.00, 188.9, 388.0)">u</text><text xml:space="preserve" font-family="CenturyGothic" font-size="14.0" fill="#FFFFFF" transform="matrix(1.00, 0.00, -0.00, -1.00, 197.4, 388.0)">s</text><text xml:space="preserve" font-family="CenturyGothic" font-size="14.0" fill="#FFFFFF" transform="matrix(1.00, 0.00, -0.00, -1.00, 202.9, 388.0)">e</text><text xml:space="preserve" font-family="CenturyGothic" font-size="14.0" fill="#FFFFFF" transform="matrix(1.00, 0.00, -0.00, -1.00, 212.0, 388.0)">d</text><text xml:space="preserve" font-family="CenturyGothic" font-size="14.0" fill="#FFFFFF" transform="matrix(1.00, 0.00, -0.00, -1.00, 221.6, 388.0)"> </text><text xml:space="preserve" font-family="CenturyGothic" font-size="14.0" fill="#FFFFFF" transform="matrix(1.00, 0.00, -0.00, -1.00, 225.4, 388.0)">w</text><text xml:space="preserve" font-family="CenturyGothic" font-size="14.0" fill="#FFFFFF" transform="matrix(1.00, 0.00, -0.00, -1.00, 237.1, 388.0)">h</text><text xml:space="preserve" font-family="CenturyGothic" font-size="14.0" fill="#FFFFFF" transform="matrix(1.00, 0.00, -0.00, -1.00, 245.6, 388.0)">e</text><text xml:space="preserve" font-family="CenturyGothic" font-size="14.0" fill="#FFFFFF" transform="matrix(1.00, 0.00, -0.00, -1.00, 254.7, 388.0)">n</text><text xml:space="preserve" font-family="CenturyGothic" font-size="14.0" fill="#FFFFFF" transform="matrix(1.00, 0.00, -0.00, -1.00, 263.2, 388.0)"> </text><text xml:space="preserve" font-family="CenturyGothic" font-size="14.0" fill="#FFFFFF" transform="matrix(1.00, 0.00, -0.00, -1.00, 267.1, 388.0)">t</text><text xml:space="preserve" font-family="CenturyGothic" font-size="14.0" fill="#FFFFFF" transform="matrix(1.00, 0.00, -0.00, -1.00, 271.9, 388.0)">h</text><text xml:space="preserve" font-family="CenturyGothic" font-size="14.0" fill="#FFFFFF" transform="matrix(1.00, 0.00, -0.00, -1.00, 280.4, 388.0)">e</text><text xml:space="preserve" font-family="CenturyGothic" font-size="14.0" fill="#FFFFFF" transform="matrix(1.00, 0.00, -0.00, -1.00, 289.5, 388.0)">y</text><text xml:space="preserve" font-family="CenturyGothic" font-size="14.0" fill="#FFFFFF" transform="matrix(1.00, 0.00, -0.00, -1.00, 297.0, 388.0)"> </text><text xml:space="preserve" font-family="CenturyGothic" font-size="14.0" fill="#FFFFFF" transform="matrix(1.00, 0.00, -0.00, -1.00, 300.9, 388.0)">s</text><text xml:space="preserve" font-family="CenturyGothic" font-size="14.0" fill="#FFFFFF" transform="matrix(1.00, 0.00, -0.00, -1.00, 306.3, 388.0)">a</text><text xml:space="preserve" font-family="CenturyGothic" font-size="14.0" fill="#FFFFFF" transform="matrix(1.00, 0.00, -0.00, -1.00, 315.9, 388.0)">w</text><text xml:space="preserve" font-family="CenturyGothic" font-size="14.0" fill="#FFFFFF" transform="matrix(1.00, 0.00, -0.00, -1.00, 327.5, 388.0)"> </text><text xml:space="preserve" font-family="CenturyGothic" font-size="14.0" fill="#FFFFFF" transform="matrix(1.00, 0.00, -0.00, -1.00, 331.4, 388.0)">a</text><text xml:space="preserve" font-family="CenturyGothic" font-size="14.0" fill="#FFFFFF" transform="matrix(1.00, 0.00, -0.00, -1.00, 340.9, 388.0)"> </text><text xml:space="preserve" font-family="CenturyGothic" font-size="14.0" fill="#FFFFFF" transform="matrix(1.00, 0.00, -0.00, -1.00, 344.8, 388.0)">l</text><text xml:space="preserve" font-family="CenturyGothic" font-size="14.0" fill="#FFFFFF" transform="matrix(1.00, 0.00, -0.00, -1.00, 347.6, 388.0)">o</text><text xml:space="preserve" font-family="CenturyGothic" font-size="14.0" fill="#FFFFFF" transform="matrix(1.00, 0.00, -0.00, -1.00, 356.8, 388.0)">t</text><text xml:space="preserve" font-family="CenturyGothic" font-size="14.0" fill="#FFFFFF" transform="matrix(1.00, 0.00, -0.00, -1.00, 361.5, 388.0)"> </text><text xml:space="preserve" font-family="CenturyGothic" font-size="14.0" fill="#FFFFFF" transform="matrix(1.00, 0.00, -0.00, -1.00, 365.4, 388.0)">+</text><text xml:space="preserve" font-family="CenturyGothic" font-size="14.0" fill="#FFFFFF" transform="matrix(1.00, 0.00, -0.00, -1.00, 373.9, 388.0)">s</text><text xml:space="preserve" font-family="CenturyGothic" font-size="14.0" fill="#FFFFFF" transform="matrix(1.00, 0.00, -0.00, -1.00, 379.3, 388.0)"> </text><text xml:space="preserve" font-family="CenturyGothic" font-size="14.0" fill="#FFFFFF" transform="matrix(1.00, 0.00, -0.00, -1.00, 383.2, 388.0)">a</text><text xml:space="preserve" font-family="CenturyGothic" font-size="14.0" fill="#FFFFFF" transform="matrix(1.00, 0.00, -0.00, -1.00, 392.8, 388.0)">n</text><text xml:space="preserve" font-family="CenturyGothic" font-size="14.0" fill="#FFFFFF" transform="matrix(1.00, 0.00, -0.00, -1.00, 401.3, 388.0)">d</text><text xml:space="preserve" font-family="CenturyGothic" font-size="14.0" fill="#FFFFFF" transform="matrix(1.00, 0.00, -0.00, -1.00, 410.9, 388.0)"> </text><text xml:space="preserve" font-family="CenturyGothic" font-size="14.0" fill="#FFFFFF" transform="matrix(1.00, 0.00, -0.00, -1.00, 414.8, 388.0)">X</text><text xml:space="preserve" font-family="CenturyGothic" font-size="14.0" fill="#FFFFFF" transform="matrix(1.00, 0.00, -0.00, -1.00, 423.3, 388.0)">s</text></g></g><image xlink:href="../../5A05CCC6-1FDC-4835-83CD-9E25B9EEC5FF/assets/E4BF2466407E3B2116F1E6DCB356DBE4.png" width="81.00" height="26.00" transform="matrix(0.99, 0.00, -0.00, -1.00, 607.0, 504.0)"></image><image xlink:href="../../6EEC9A71-8AEF-4779-838E-9457A8752149/assets/0D2944600CB0D9DE1EA8A6B5CEA029B6.png" width="1280.00" height="718.00" transform="matrix(0.40, 0.00, -0.00, -0.40, 91.0, 336.0)"></image></g></svg>