<?xml version="1.0" encoding="UTF-8" standalone="no"?><svg xmlns="http://www.w3.org/2000/svg" xmlns:xlink="http://www.w3.org/1999/xlink" clip-rule="evenodd" stroke-miterlimit="4.00" viewBox="0 0 720 540"><desc>SVG generated by Keynote</desc><defs></defs><g transform="matrix(1.00, 0.00, -0.00, -1.00, 0.0, 540.0)"><path d="M 0.0 540.0 L 720.0 540.0 L 720.0 0.0 L 0.0 0.0 Z M 0.0 540.0 " fill="#FFFFFF"></path><path d="M 72.0 540.0 L 701.9 540.0 L 701.9 525.6 L 72.0 525.6 Z M 72.0 540.0 " fill="#D6D9CD"></path><path d="M 72.0 14.4 L 701.9 14.4 L 701.9 0.0 L 72.0 0.0 Z M 72.0 14.4 " fill="#E3E5DD"></path><path d="M -0.0 462.6 L 701.9 462.6 L 701.9 378.4 L -0.0 378.4 Z M -0.0 462.6 " fill="#333333"></path><g><clipPath id="clip-9"><path d="M -0.0 378.4 L 701.9 378.4 L 701.9 462.6 L -0.0 462.6 Z M -0.0 378.4 "></path></clipPath><g clip-path="url(#clip-9)"><text xml:space="preserve" font-family="LucidaGrande-Bold" font-weight="bold" font-size="9.4" fill="#FFFFFF" transform="matrix(1.00, 0.00, -0.00, -1.00, 4.0, 450.0)"> </text><text xml:space="preserve" font-family="LucidaGrande-Bold" font-weight="bold" font-size="9.4" fill="#FFFFFF" transform="matrix(1.00, 0.00, -0.00, -1.00, 4.0, 439.0)"> </text><text xml:space="preserve" font-family="CenturyGothic-Bold" font-weight="bold" font-size="9.4" fill="#FFFFFF" transform="matrix(1.00, 0.00, -0.00, -1.00, 4.0, 428.0)">F</text><text xml:space="preserve" font-family="CenturyGothic-Bold" font-weight="bold" font-size="9.4" fill="#FFFFFF" transform="matrix(1.00, 0.00, -0.00, -1.00, 8.5, 428.0)">I</text><text xml:space="preserve" font-family="CenturyGothic-Bold" font-weight="bold" font-size="9.4" fill="#FFFFFF" transform="matrix(1.00, 0.00, -0.00, -1.00, 11.1, 428.0)">R</text><text xml:space="preserve" font-family="CenturyGothic-Bold" font-weight="bold" font-size="9.4" fill="#FFFFFF" transform="matrix(1.00, 0.00, -0.00, -1.00, 16.6, 428.0)">S</text><text xml:space="preserve" font-family="CenturyGothic-Bold" font-weight="bold" font-size="9.4" fill="#FFFFFF" transform="matrix(1.00, 0.00, -0.00, -1.00, 21.4, 428.0)">T</text><text xml:space="preserve" font-family="CenturyGothic-Bold" font-weight="bold" font-size="9.4" fill="#FFFFFF" transform="matrix(1.00, 0.00, -0.00, -1.00, 25.4, 428.0)"> </text><text xml:space="preserve" font-family="CenturyGothic-Bold" font-weight="bold" font-size="9.4" fill="#FFFFFF" transform="matrix(1.00, 0.00, -0.00, -1.00, 28.0, 428.0)">I</text><text xml:space="preserve" font-family="CenturyGothic-Bold" font-weight="bold" font-size="9.4" fill="#FFFFFF" transform="matrix(1.00, 0.00, -0.00, -1.00, 30.6, 428.0)">M</text><text xml:space="preserve" font-family="CenturyGothic-Bold" font-weight="bold" font-size="9.4" fill="#FFFFFF" transform="matrix(1.00, 0.00, -0.00, -1.00, 39.1, 428.0)">P</text><text xml:space="preserve" font-family="CenturyGothic-Bold" font-weight="bold" font-size="9.4" fill="#FFFFFF" transform="matrix(1.00, 0.00, -0.00, -1.00, 44.3, 428.0)">R</text><text xml:space="preserve" font-family="CenturyGothic-Bold" font-weight="bold" font-size="9.4" fill="#FFFFFF" transform="matrix(1.00, 0.00, -0.00, -1.00, 49.8, 428.0)">E</text><text xml:space="preserve" font-family="CenturyGothic-Bold" font-weight="bold" font-size="9.4" fill="#FFFFFF" transform="matrix(1.00, 0.00, -0.00, -1.00, 54.6, 428.0)">S</text><text xml:space="preserve" font-family="CenturyGothic-Bold" font-weight="bold" font-size="9.4" fill="#FFFFFF" transform="matrix(1.00, 0.00, -0.00, -1.00, 59.5, 428.0)">S</text><text xml:space="preserve" font-family="CenturyGothic-Bold" font-weight="bold" font-size="9.4" fill="#FFFFFF" transform="matrix(1.00, 0.00, -0.00, -1.00, 64.4, 428.0)">I</text><text xml:space="preserve" font-family="CenturyGothic-Bold" font-weight="bold" font-size="9.4" fill="#FFFFFF" transform="matrix(1.00, 0.00, -0.00, -1.00, 67.0, 428.0)">O</text><text xml:space="preserve" font-family="CenturyGothic-Bold" font-weight="bold" font-size="9.4" fill="#FFFFFF" transform="matrix(1.00, 0.00, -0.00, -1.00, 74.9, 428.0)">N</text><text xml:space="preserve" font-family="CenturyGothic-Bold" font-weight="bold" font-size="9.4" fill="#FFFFFF" transform="matrix(1.00, 0.00, -0.00, -1.00, 81.8, 428.0)"> </text><text xml:space="preserve" font-family="CenturyGothic-Bold" font-weight="bold" font-size="9.4" fill="#FFFFFF" transform="matrix(1.00, 0.00, -0.00, -1.00, 84.5, 428.0)">O</text><text xml:space="preserve" font-family="CenturyGothic-Bold" font-weight="bold" font-size="9.4" fill="#FFFFFF" transform="matrix(1.00, 0.00, -0.00, -1.00, 92.3, 428.0)">F</text><text xml:space="preserve" font-family="CenturyGothic-Bold" font-weight="bold" font-size="9.4" fill="#FFFFFF" transform="matrix(1.00, 0.00, -0.00, -1.00, 96.8, 428.0)"> </text><text xml:space="preserve" font-family="CenturyGothic-Bold" font-weight="bold" font-size="9.4" fill="#FFFFFF" transform="matrix(1.00, 0.00, -0.00, -1.00, 99.5, 428.0)">T</text><text xml:space="preserve" font-family="CenturyGothic-Bold" font-weight="bold" font-size="9.4" fill="#FFFFFF" transform="matrix(1.00, 0.00, -0.00, -1.00, 103.4, 428.0)">H</text><text xml:space="preserve" font-family="CenturyGothic-Bold" font-weight="bold" font-size="9.4" fill="#FFFFFF" transform="matrix(1.00, 0.00, -0.00, -1.00, 109.8, 428.0)">E</text><text xml:space="preserve" font-family="CenturyGothic-Bold" font-weight="bold" font-size="9.4" fill="#FFFFFF" transform="matrix(1.00, 0.00, -0.00, -1.00, 114.7, 428.0)"> </text><text xml:space="preserve" font-family="CenturyGothic-Bold" font-weight="bold" font-size="9.4" fill="#FFFFFF" transform="matrix(1.00, 0.00, -0.00, -1.00, 117.3, 428.0)">W</text><text xml:space="preserve" font-family="CenturyGothic-Bold" font-weight="bold" font-size="9.4" fill="#FFFFFF" transform="matrix(1.00, 0.00, -0.00, -1.00, 125.7, 428.0)">E</text><text xml:space="preserve" font-family="CenturyGothic-Bold" font-weight="bold" font-size="9.4" fill="#FFFFFF" transform="matrix(1.00, 0.00, -0.00, -1.00, 130.6, 428.0)">B</text><text xml:space="preserve" font-family="CenturyGothic-Bold" font-weight="bold" font-size="9.4" fill="#FFFFFF" transform="matrix(1.00, 0.00, -0.00, -1.00, 136.0, 428.0)">S</text><text xml:space="preserve" font-family="CenturyGothic-Bold" font-weight="bold" font-size="9.4" fill="#FFFFFF" transform="matrix(1.00, 0.00, -0.00, -1.00, 140.9, 428.0)">I</text><text xml:space="preserve" font-family="CenturyGothic-Bold" font-weight="bold" font-size="9.4" fill="#FFFFFF" transform="matrix(1.00, 0.00, -0.00, -1.00, 143.5, 428.0)">T</text><text xml:space="preserve" font-family="CenturyGothic-Bold" font-weight="bold" font-size="9.4" fill="#FFFFFF" transform="matrix(1.00, 0.00, -0.00, -1.00, 147.5, 428.0)">E</text><text xml:space="preserve" font-family="LucidaGrande-Bold" font-weight="bold" font-size="9.4" fill="#FFFFFF" transform="matrix(1.00, 0.00, -0.00, -1.00, 152.4, 428.0)"> </text><text xml:space="preserve" font-family="LucidaGrande-Bold" font-weight="bold" font-size="9.4" fill="#FFFFFF" transform="matrix(1.00, 0.00, -0.00, -1.00, 4.0, 417.0)"> </text><text xml:space="preserve" font-family="CenturyGothic" font-size="9.4" fill="#FFFFFF" transform="matrix(1.00, 0.00, -0.00, -1.00, 4.0, 406.0)">T</text><text xml:space="preserve" font-family="CenturyGothic" font-size="9.4" fill="#FFFFFF" transform="matrix(1.00, 0.00, -0.00, -1.00, 8.0, 406.0)">h</text><text xml:space="preserve" font-family="CenturyGothic" font-size="9.4" fill="#FFFFFF" transform="matrix(1.00, 0.00, -0.00, -1.00, 13.7, 406.0)">e</text><text xml:space="preserve" font-family="CenturyGothic" font-size="9.4" fill="#FFFFFF" transform="matrix(1.00, 0.00, -0.00, -1.00, 19.8, 406.0)"> </text><text xml:space="preserve" font-family="CenturyGothic" font-size="9.4" fill="#FFFFFF" transform="matrix(1.00, 0.00, -0.00, -1.00, 22.4, 406.0)">u</text><text xml:space="preserve" font-family="CenturyGothic" font-size="9.4" fill="#FFFFFF" transform="matrix(1.00, 0.00, -0.00, -1.00, 28.1, 406.0)">s</text><text xml:space="preserve" font-family="CenturyGothic" font-size="9.4" fill="#FFFFFF" transform="matrix(1.00, 0.00, -0.00, -1.00, 31.7, 406.0)">e</text><text xml:space="preserve" font-family="CenturyGothic" font-size="9.4" fill="#FFFFFF" transform="matrix(1.00, 0.00, -0.00, -1.00, 37.8, 406.0)">r</text><text xml:space="preserve" font-family="CenturyGothic" font-size="9.4" fill="#FFFFFF" transform="matrix(1.00, 0.00, -0.00, -1.00, 40.7, 406.0)"> </text><text xml:space="preserve" font-family="CenturyGothic" font-size="9.4" fill="#FFFFFF" transform="matrix(1.00, 0.00, -0.00, -1.00, 43.3, 406.0)">l</text><text xml:space="preserve" font-family="CenturyGothic" font-size="9.4" fill="#FFFFFF" transform="matrix(1.00, 0.00, -0.00, -1.00, 45.1, 406.0)">i</text><text xml:space="preserve" font-family="CenturyGothic" font-size="9.4" fill="#FFFFFF" transform="matrix(1.00, 0.00, -0.00, -1.00, 47.0, 406.0)">k</text><text xml:space="preserve" font-family="CenturyGothic" font-size="9.4" fill="#FFFFFF" transform="matrix(1.00, 0.00, -0.00, -1.00, 51.7, 406.0)">e</text><text xml:space="preserve" font-family="CenturyGothic" font-size="9.4" fill="#FFFFFF" transform="matrix(1.00, 0.00, -0.00, -1.00, 57.8, 406.0)">d</text><text xml:space="preserve" font-family="CenturyGothic" font-size="9.4" fill="#FFFFFF" transform="matrix(1.00, 0.00, -0.00, -1.00, 64.2, 406.0)"> </text><text xml:space="preserve" font-family="CenturyGothic" font-size="9.4" fill="#FFFFFF" transform="matrix(1.00, 0.00, -0.00, -1.00, 66.8, 406.0)">t</text><text xml:space="preserve" font-family="CenturyGothic" font-size="9.4" fill="#FFFFFF" transform="matrix(1.00, 0.00, -0.00, -1.00, 70.0, 406.0)">h</text><text xml:space="preserve" font-family="CenturyGothic" font-size="9.4" fill="#FFFFFF" transform="matrix(1.00, 0.00, -0.00, -1.00, 75.7, 406.0)">e</text><text xml:space="preserve" font-family="CenturyGothic" font-size="9.4" fill="#FFFFFF" transform="matrix(1.00, 0.00, -0.00, -1.00, 81.8, 406.0)"> </text><text xml:space="preserve" font-family="CenturyGothic" font-size="9.4" fill="#FFFFFF" transform="matrix(1.00, 0.00, -0.00, -1.00, 84.4, 406.0)">r</text><text xml:space="preserve" font-family="CenturyGothic" font-size="9.4" fill="#FFFFFF" transform="matrix(1.00, 0.00, -0.00, -1.00, 87.2, 406.0)">e</text><text xml:space="preserve" font-family="CenturyGothic" font-size="9.4" fill="#FFFFFF" transform="matrix(1.00, 0.00, -0.00, -1.00, 93.3, 406.0)">d</text><text xml:space="preserve" font-family="CenturyGothic" font-size="9.4" fill="#FFFFFF" transform="matrix(1.00, 0.00, -0.00, -1.00, 99.7, 406.0)"> </text><text xml:space="preserve" font-family="CenturyGothic" font-size="9.4" fill="#FFFFFF" transform="matrix(1.00, 0.00, -0.00, -1.00, 102.3, 406.0)">c</text><text xml:space="preserve" font-family="CenturyGothic" font-size="9.4" fill="#FFFFFF" transform="matrix(1.00, 0.00, -0.00, -1.00, 108.4, 406.0)">i</text><text xml:space="preserve" font-family="CenturyGothic" font-size="9.4" fill="#FFFFFF" transform="matrix(1.00, 0.00, -0.00, -1.00, 110.3, 406.0)">r</text><text xml:space="preserve" font-family="CenturyGothic" font-size="9.4" fill="#FFFFFF" transform="matrix(1.00, 0.00, -0.00, -1.00, 113.0, 406.0)">c</text><text xml:space="preserve" font-family="CenturyGothic" font-size="9.4" fill="#FFFFFF" transform="matrix(1.00, 0.00, -0.00, -1.00, 119.1, 406.0)">l</text><text xml:space="preserve" font-family="CenturyGothic" font-size="9.4" fill="#FFFFFF" transform="matrix(1.00, 0.00, -0.00, -1.00, 121.0, 406.0)">e</text><text xml:space="preserve" font-family="CenturyGothic" font-size="9.4" fill="#FFFFFF" transform="matrix(1.00, 0.00, -0.00, -1.00, 127.1, 406.0)">s</text><text xml:space="preserve" font-family="CenturyGothic" font-size="9.4" fill="#FFFFFF" transform="matrix(1.00, 0.00, -0.00, -1.00, 130.7, 406.0)"> </text><text xml:space="preserve" font-family="CenturyGothic" font-size="9.4" fill="#FFFFFF" transform="matrix(1.00, 0.00, -0.00, -1.00, 133.3, 406.0)">o</text><text xml:space="preserve" font-family="CenturyGothic" font-size="9.4" fill="#FFFFFF" transform="matrix(1.00, 0.00, -0.00, -1.00, 139.5, 406.0)">v</text><text xml:space="preserve" font-family="CenturyGothic" font-size="9.4" fill="#FFFFFF" transform="matrix(1.00, 0.00, -0.00, -1.00, 144.7, 406.0)">e</text><text xml:space="preserve" font-family="CenturyGothic" font-size="9.4" fill="#FFFFFF" transform="matrix(1.00, 0.00, -0.00, -1.00, 150.8, 406.0)">r</text><text xml:space="preserve" font-family="CenturyGothic" font-size="9.4" fill="#FFFFFF" transform="matrix(1.00, 0.00, -0.00, -1.00, 153.6, 406.0)"> </text><text xml:space="preserve" font-family="CenturyGothic" font-size="9.4" fill="#FFFFFF" transform="matrix(1.00, 0.00, -0.00, -1.00, 156.2, 406.0)">t</text><text xml:space="preserve" font-family="CenturyGothic" font-size="9.4" fill="#FFFFFF" transform="matrix(1.00, 0.00, -0.00, -1.00, 159.3, 406.0)">h</text><text xml:space="preserve" font-family="CenturyGothic" font-size="9.4" fill="#FFFFFF" transform="matrix(1.00, 0.00, -0.00, -1.00, 165.1, 406.0)">e</text><text xml:space="preserve" font-family="CenturyGothic" font-size="9.4" fill="#FFFFFF" transform="matrix(1.00, 0.00, -0.00, -1.00, 171.2, 406.0)"> </text><text xml:space="preserve" font-family="CenturyGothic" font-size="9.4" fill="#FFFFFF" transform="matrix(1.00, 0.00, -0.00, -1.00, 173.8, 406.0)">f</text><text xml:space="preserve" font-family="CenturyGothic" font-size="9.4" fill="#FFFFFF" transform="matrix(1.00, 0.00, -0.00, -1.00, 176.7, 406.0)">u</text><text xml:space="preserve" font-family="CenturyGothic" font-size="9.4" fill="#FFFFFF" transform="matrix(1.00, 0.00, -0.00, -1.00, 182.4, 406.0)">r</text><text xml:space="preserve" font-family="CenturyGothic" font-size="9.4" fill="#FFFFFF" transform="matrix(1.00, 0.00, -0.00, -1.00, 185.4, 406.0)">n</text><text xml:space="preserve" font-family="CenturyGothic" font-size="9.4" fill="#FFFFFF" transform="matrix(1.00, 0.00, -0.00, -1.00, 191.1, 406.0)">i</text><text xml:space="preserve" font-family="CenturyGothic" font-size="9.4" fill="#FFFFFF" transform="matrix(1.00, 0.00, -0.00, -1.00, 193.0, 406.0)">t</text><text xml:space="preserve" font-family="CenturyGothic" font-size="9.4" fill="#FFFFFF" transform="matrix(1.00, 0.00, -0.00, -1.00, 196.2, 406.0)">u</text><text xml:space="preserve" font-family="CenturyGothic" font-size="9.4" fill="#FFFFFF" transform="matrix(1.00, 0.00, -0.00, -1.00, 201.9, 406.0)">r</text><text xml:space="preserve" font-family="CenturyGothic" font-size="9.4" fill="#FFFFFF" transform="matrix(1.00, 0.00, -0.00, -1.00, 204.7, 406.0)">e</text><text xml:space="preserve" font-family="LucidaGrande" font-size="9.4" fill="#FFFFFF" transform="matrix(1.00, 0.00, -0.00, -1.00, 210.8, 406.0)"> </text><text xml:space="preserve" font-family="LucidaGrande" font-size="9.4" fill="#FFFFFF" transform="matrix(1.00, 0.00, -0.00, -1.00, 4.0, 395.0)"> </text></g></g><image xlink:href="../../5A05CCC6-1FDC-4835-83CD-9E25B9EEC5FF/assets/E4BF2466407E3B2116F1E6DCB356DBE4.png" width="81.00" height="26.00" transform="matrix(0.99, 0.00, -0.00, -1.00, 607.0, 504.0)"></image><image xlink:href="../../287D7F57-DAC7-4453-98A3-49AF47C6E9A4/assets/33D1A4126303E7C27639C3FC0472AE8A.png" width="1280.00" height="718.00" transform="matrix(0.40, 0.00, -0.00, -0.40, 91.0, 350.0)"></image></g></svg>