<?xml version="1.0" encoding="UTF-8" standalone="no"?><svg xmlns="http://www.w3.org/2000/svg" xmlns:xlink="http://www.w3.org/1999/xlink" clip-rule="evenodd" stroke-miterlimit="4.00" viewBox="0 0 720 540"><desc>SVG generated by Keynote</desc><defs></defs><g transform="matrix(1.00, 0.00, -0.00, -1.00, 0.0, 540.0)"><path d="M 0.0 540.0 L 720.0 540.0 L 720.0 0.0 L 0.0 0.0 Z M 0.0 540.0 " fill="#FFFFFF"></path><path d="M 72.0 540.0 L 701.9 540.0 L 701.9 525.6 L 72.0 525.6 Z M 72.0 540.0 " fill="#D6D9CD"></path><path d="M 72.0 14.4 L 701.9 14.4 L 701.9 0.0 L 72.0 0.0 Z M 72.0 14.4 " fill="#E3E5DD"></path><path d="M -0.0 451.5 L 701.9 451.5 L 701.9 365.8 L -0.0 365.8 Z M -0.0 451.5 " fill="#333333"></path><g><clipPath id="clip-3"><path d="M -7.4 365.8 L 709.3 365.8 L 709.3 451.5 L -7.4 451.5 Z M -7.4 365.8 "></path></clipPath><g clip-path="url(#clip-3)"><text xml:space="preserve" font-family="CenturyGothic" font-size="36.0" fill="#FFFFFF" transform="matrix(1.00, 0.00, -0.00, -1.00, 4.0, 395.0)">T</text><text xml:space="preserve" font-family="CenturyGothic" font-size="36.0" fill="#FFFFFF" transform="matrix(1.00, 0.00, -0.00, -1.00, 19.3, 395.0)">h</text><text xml:space="preserve" font-family="CenturyGothic" font-size="36.0" fill="#FFFFFF" transform="matrix(1.00, 0.00, -0.00, -1.00, 41.3, 395.0)">e</text><text xml:space="preserve" font-family="CenturyGothic" font-size="36.0" fill="#FFFFFF" transform="matrix(1.00, 0.00, -0.00, -1.00, 64.7, 395.0)"> </text><text xml:space="preserve" font-family="CenturyGothic" font-size="36.0" fill="#FFFFFF" transform="matrix(1.00, 0.00, -0.00, -1.00, 74.6, 395.0)">U</text><text xml:space="preserve" font-family="CenturyGothic" font-size="36.0" fill="#FFFFFF" transform="matrix(1.00, 0.00, -0.00, -1.00, 98.2, 395.0)">s</text><text xml:space="preserve" font-family="CenturyGothic" font-size="36.0" fill="#FFFFFF" transform="matrix(1.00, 0.00, -0.00, -1.00, 112.2, 395.0)">e</text><text xml:space="preserve" font-family="CenturyGothic" font-size="36.0" fill="#FFFFFF" transform="matrix(1.00, 0.00, -0.00, -1.00, 135.5, 395.0)">r</text></g></g><text xml:space="preserve" font-family="CenturyGothic" font-size="28.0" fill="#595959" transform="matrix(1.00, 0.00, -0.00, -1.00, 118.0, 304.0)">a</text><text xml:space="preserve" font-family="CenturyGothic" font-size="28.0" fill="#595959" transform="matrix(1.00, 0.00, -0.00, -1.00, 137.1, 304.0)">g</text><text xml:space="preserve" font-family="CenturyGothic" font-size="28.0" fill="#595959" transform="matrix(1.00, 0.00, -0.00, -1.00, 156.0, 304.0)">e</text><text xml:space="preserve" font-family="CenturyGothic" font-size="28.0" fill="#595959" transform="matrix(1.00, 0.00, -0.00, -1.00, 174.2, 304.0)">:</text><text xml:space="preserve" font-family="CenturyGothic" font-size="28.0" fill="#595959" transform="matrix(1.00, 0.00, -0.00, -1.00, 181.9, 304.0)"> </text><text xml:space="preserve" font-family="CenturyGothic" font-size="28.0" fill="#595959" transform="matrix(1.00, 0.00, -0.00, -1.00, 189.7, 304.0)">3</text><text xml:space="preserve" font-family="CenturyGothic" font-size="28.0" fill="#595959" transform="matrix(1.00, 0.00, -0.00, -1.00, 205.2, 304.0)">5</text><text xml:space="preserve" font-family="CenturyGothic" font-size="28.0" fill="#595959" transform="matrix(1.00, 0.00, -0.00, -1.00, 220.7, 304.0)">–</text><text xml:space="preserve" font-family="CenturyGothic" font-size="28.0" fill="#595959" transform="matrix(1.00, 0.00, -0.00, -1.00, 234.7, 304.0)">6</text><text xml:space="preserve" font-family="CenturyGothic" font-size="28.0" fill="#595959" transform="matrix(1.00, 0.00, -0.00, -1.00, 250.2, 304.0)">5</text><text xml:space="preserve" font-family="CenturyGothic" font-size="28.0" fill="#595959" transform="matrix(1.00, 0.00, -0.00, -1.00, 265.8, 304.0)">+</text><text xml:space="preserve" font-family="CenturyGothic" font-size="28.0" fill="#595959" transform="matrix(1.00, 0.00, -0.00, -1.00, 282.7, 304.0)"> </text><text xml:space="preserve" font-family="CenturyGothic" font-size="28.0" fill="#595959" transform="matrix(1.00, 0.00, -0.00, -1.00, 290.5, 304.0)"> </text><text xml:space="preserve" font-family="CenturyGothic" font-size="28.0" fill="#595959" transform="matrix(1.00, 0.00, -0.00, -1.00, 118.0, 250.0)">g</text><text xml:space="preserve" font-family="CenturyGothic" font-size="28.0" fill="#595959" transform="matrix(1.00, 0.00, -0.00, -1.00, 136.8, 250.0)">e</text><text xml:space="preserve" font-family="CenturyGothic" font-size="28.0" fill="#595959" transform="matrix(1.00, 0.00, -0.00, -1.00, 155.0, 250.0)">n</text><text xml:space="preserve" font-family="CenturyGothic" font-size="28.0" fill="#595959" transform="matrix(1.00, 0.00, -0.00, -1.00, 172.1, 250.0)">d</text><text xml:space="preserve" font-family="CenturyGothic" font-size="28.0" fill="#595959" transform="matrix(1.00, 0.00, -0.00, -1.00, 191.3, 250.0)">e</text><text xml:space="preserve" font-family="CenturyGothic" font-size="28.0" fill="#595959" transform="matrix(1.00, 0.00, -0.00, -1.00, 209.5, 250.0)">r</text><text xml:space="preserve" font-family="CenturyGothic" font-size="28.0" fill="#595959" transform="matrix(1.00, 0.00, -0.00, -1.00, 217.9, 250.0)">:</text><text xml:space="preserve" font-family="CenturyGothic" font-size="28.0" fill="#595959" transform="matrix(1.00, 0.00, -0.00, -1.00, 225.6, 250.0)"> </text><text xml:space="preserve" font-family="CenturyGothic" font-size="28.0" fill="#595959" transform="matrix(1.00, 0.00, -0.00, -1.00, 233.4, 250.0)">m</text><text xml:space="preserve" font-family="CenturyGothic" font-size="28.0" fill="#595959" transform="matrix(1.00, 0.00, -0.00, -1.00, 259.7, 250.0)">a</text><text xml:space="preserve" font-family="CenturyGothic" font-size="28.0" fill="#595959" transform="matrix(1.00, 0.00, -0.00, -1.00, 278.8, 250.0)">l</text><text xml:space="preserve" font-family="CenturyGothic" font-size="28.0" fill="#595959" transform="matrix(1.00, 0.00, -0.00, -1.00, 284.4, 250.0)">e</text><text xml:space="preserve" font-family="CenturyGothic" font-size="28.0" fill="#595959" transform="matrix(1.00, 0.00, -0.00, -1.00, 302.6, 250.0)"> </text><text xml:space="preserve" font-family="CenturyGothic" font-size="28.0" fill="#595959" transform="matrix(1.00, 0.00, -0.00, -1.00, 310.3, 250.0)">a</text><text xml:space="preserve" font-family="CenturyGothic" font-size="28.0" fill="#595959" transform="matrix(1.00, 0.00, -0.00, -1.00, 329.5, 250.0)">n</text><text xml:space="preserve" font-family="CenturyGothic" font-size="28.0" fill="#595959" transform="matrix(1.00, 0.00, -0.00, -1.00, 346.5, 250.0)">d</text><text xml:space="preserve" font-family="CenturyGothic" font-size="28.0" fill="#595959" transform="matrix(1.00, 0.00, -0.00, -1.00, 365.7, 250.0)"> </text><text xml:space="preserve" font-family="CenturyGothic" font-size="28.0" fill="#595959" transform="matrix(1.00, 0.00, -0.00, -1.00, 373.5, 250.0)">f</text><text xml:space="preserve" font-family="CenturyGothic" font-size="28.0" fill="#595959" transform="matrix(1.00, 0.00, -0.00, -1.00, 382.3, 250.0)">e</text><text xml:space="preserve" font-family="CenturyGothic" font-size="28.0" fill="#595959" transform="matrix(1.00, 0.00, -0.00, -1.00, 400.5, 250.0)">m</text><text xml:space="preserve" font-family="CenturyGothic" font-size="28.0" fill="#595959" transform="matrix(1.00, 0.00, -0.00, -1.00, 426.7, 250.0)">a</text><text xml:space="preserve" font-family="CenturyGothic" font-size="28.0" fill="#595959" transform="matrix(1.00, 0.00, -0.00, -1.00, 445.9, 250.0)">l</text><text xml:space="preserve" font-family="CenturyGothic" font-size="28.0" fill="#595959" transform="matrix(1.00, 0.00, -0.00, -1.00, 451.5, 250.0)">e</text><text xml:space="preserve" font-family="CenturyGothic" font-size="28.0" fill="#595959" transform="matrix(1.00, 0.00, -0.00, -1.00, 469.7, 250.0)"> </text><text xml:space="preserve" font-family="CenturyGothic" font-size="28.0" fill="#595959" transform="matrix(1.00, 0.00, -0.00, -1.00, 118.0, 196.0)">I</text><text xml:space="preserve" font-family="CenturyGothic" font-size="28.0" fill="#595959" transform="matrix(1.00, 0.00, -0.00, -1.00, 124.3, 196.0)">n</text><text xml:space="preserve" font-family="CenturyGothic" font-size="28.0" fill="#595959" transform="matrix(1.00, 0.00, -0.00, -1.00, 141.4, 196.0)">c</text><text xml:space="preserve" font-family="CenturyGothic" font-size="28.0" fill="#595959" transform="matrix(1.00, 0.00, -0.00, -1.00, 159.5, 196.0)">o</text><text xml:space="preserve" font-family="CenturyGothic" font-size="28.0" fill="#595959" transform="matrix(1.00, 0.00, -0.00, -1.00, 177.8, 196.0)">m</text><text xml:space="preserve" font-family="CenturyGothic" font-size="28.0" fill="#595959" transform="matrix(1.00, 0.00, -0.00, -1.00, 204.1, 196.0)">e</text><text xml:space="preserve" font-family="CenturyGothic" font-size="28.0" fill="#595959" transform="matrix(1.00, 0.00, -0.00, -1.00, 222.3, 196.0)"> </text><text xml:space="preserve" font-family="CenturyGothic" font-size="28.0" fill="#595959" transform="matrix(1.00, 0.00, -0.00, -1.00, 230.1, 196.0)">$</text><text xml:space="preserve" font-family="CenturyGothic" font-size="28.0" fill="#595959" transform="matrix(1.00, 0.00, -0.00, -1.00, 245.6, 196.0)">0</text><text xml:space="preserve" font-family="CenturyGothic" font-size="28.0" fill="#595959" transform="matrix(1.00, 0.00, -0.00, -1.00, 261.1, 196.0)">K</text><text xml:space="preserve" font-family="CenturyGothic" font-size="28.0" fill="#595959" transform="matrix(1.00, 0.00, -0.00, -1.00, 277.6, 196.0)">–</text><text xml:space="preserve" font-family="CenturyGothic" font-size="28.0" fill="#595959" transform="matrix(1.00, 0.00, -0.00, -1.00, 291.6, 196.0)">$</text><text xml:space="preserve" font-family="CenturyGothic" font-size="28.0" fill="#595959" transform="matrix(1.00, 0.00, -0.00, -1.00, 307.2, 196.0)">1</text><text xml:space="preserve" font-family="CenturyGothic" font-size="28.0" fill="#595959" transform="matrix(1.00, 0.00, -0.00, -1.00, 322.7, 196.0)">5</text><text xml:space="preserve" font-family="CenturyGothic" font-size="28.0" fill="#595959" transform="matrix(1.00, 0.00, -0.00, -1.00, 338.2, 196.0)">0</text><text xml:space="preserve" font-family="CenturyGothic" font-size="28.0" fill="#595959" transform="matrix(1.00, 0.00, -0.00, -1.00, 353.7, 196.0)">K</text><text xml:space="preserve" font-family="CenturyGothic" font-size="28.0" fill="#595959" transform="matrix(1.00, 0.00, -0.00, -1.00, 370.3, 196.0)">+</text><text xml:space="preserve" font-family="CenturyGothic" font-size="28.0" fill="#595959" transform="matrix(1.00, 0.00, -0.00, -1.00, 387.2, 196.0)"> </text><text xml:space="preserve" font-family="CenturyGothic" font-size="28.0" fill="#595959" transform="matrix(1.00, 0.00, -0.00, -1.00, 118.0, 142.0)">a</text><text xml:space="preserve" font-family="CenturyGothic" font-size="28.0" fill="#595959" transform="matrix(1.00, 0.00, -0.00, -1.00, 137.1, 142.0)">v</text><text xml:space="preserve" font-family="CenturyGothic" font-size="28.0" fill="#595959" transform="matrix(1.00, 0.00, -0.00, -1.00, 152.7, 142.0)">e</text><text xml:space="preserve" font-family="CenturyGothic" font-size="28.0" fill="#595959" transform="matrix(1.00, 0.00, -0.00, -1.00, 170.8, 142.0)">r</text><text xml:space="preserve" font-family="CenturyGothic" font-size="28.0" fill="#595959" transform="matrix(1.00, 0.00, -0.00, -1.00, 179.3, 142.0)">a</text><text xml:space="preserve" font-family="CenturyGothic" font-size="28.0" fill="#595959" transform="matrix(1.00, 0.00, -0.00, -1.00, 198.4, 142.0)">g</text><text xml:space="preserve" font-family="CenturyGothic" font-size="28.0" fill="#595959" transform="matrix(1.00, 0.00, -0.00, -1.00, 217.2, 142.0)">e</text><text xml:space="preserve" font-family="CenturyGothic" font-size="28.0" fill="#595959" transform="matrix(1.00, 0.00, -0.00, -1.00, 235.4, 142.0)"> </text><text xml:space="preserve" font-family="CenturyGothic" font-size="28.0" fill="#595959" transform="matrix(1.00, 0.00, -0.00, -1.00, 243.2, 142.0)">c</text><text xml:space="preserve" font-family="CenturyGothic" font-size="28.0" fill="#595959" transform="matrix(1.00, 0.00, -0.00, -1.00, 261.3, 142.0)">o</text><text xml:space="preserve" font-family="CenturyGothic" font-size="28.0" fill="#595959" transform="matrix(1.00, 0.00, -0.00, -1.00, 279.6, 142.0)">m</text><text xml:space="preserve" font-family="CenturyGothic" font-size="28.0" fill="#595959" transform="matrix(1.00, 0.00, -0.00, -1.00, 305.9, 142.0)">p</text><text xml:space="preserve" font-family="CenturyGothic" font-size="28.0" fill="#595959" transform="matrix(1.00, 0.00, -0.00, -1.00, 325.0, 142.0)">u</text><text xml:space="preserve" font-family="CenturyGothic" font-size="28.0" fill="#595959" transform="matrix(1.00, 0.00, -0.00, -1.00, 342.0, 142.0)">t</text><text xml:space="preserve" font-family="CenturyGothic" font-size="28.0" fill="#595959" transform="matrix(1.00, 0.00, -0.00, -1.00, 351.5, 142.0)">e</text><text xml:space="preserve" font-family="CenturyGothic" font-size="28.0" fill="#595959" transform="matrix(1.00, 0.00, -0.00, -1.00, 369.7, 142.0)">r</text><text xml:space="preserve" font-family="CenturyGothic" font-size="28.0" fill="#595959" transform="matrix(1.00, 0.00, -0.00, -1.00, 378.1, 142.0)"> </text><text xml:space="preserve" font-family="CenturyGothic" font-size="28.0" fill="#595959" transform="matrix(1.00, 0.00, -0.00, -1.00, 385.8, 142.0)">u</text><text xml:space="preserve" font-family="CenturyGothic" font-size="28.0" fill="#595959" transform="matrix(1.00, 0.00, -0.00, -1.00, 402.9, 142.0)">s</text><text xml:space="preserve" font-family="CenturyGothic" font-size="28.0" fill="#595959" transform="matrix(1.00, 0.00, -0.00, -1.00, 413.7, 142.0)">e</text><text xml:space="preserve" font-family="CenturyGothic" font-size="28.0" fill="#595959" transform="matrix(1.00, 0.00, -0.00, -1.00, 431.9, 142.0)">r</text><text xml:space="preserve" font-family="CenturyGothic" font-size="28.0" fill="#595959" transform="matrix(1.00, 0.00, -0.00, -1.00, 440.4, 142.0)">s</text><image xlink:href="../../5A05CCC6-1FDC-4835-83CD-9E25B9EEC5FF/assets/E4BF2466407E3B2116F1E6DCB356DBE4.png" width="81.00" height="26.00" transform="matrix(0.99, 0.00, -0.00, -1.00, 607.0, 504.0)"></image></g></svg>