<?xml version="1.0" encoding="UTF-8" standalone="no"?><svg xmlns="http://www.w3.org/2000/svg" xmlns:xlink="http://www.w3.org/1999/xlink" clip-rule="evenodd" stroke-miterlimit="4.00" viewBox="0 0 720 540"><desc>SVG generated by Keynote</desc><defs></defs><g transform="matrix(1.00, 0.00, -0.00, -1.00, 0.0, 540.0)"><path d="M 0.0 540.0 L 720.0 540.0 L 720.0 0.0 L 0.0 0.0 Z M 0.0 540.0 " fill="#FFFFFF"></path><path d="M 72.0 540.0 L 701.9 540.0 L 701.9 525.6 L 72.0 525.6 Z M 72.0 540.0 " fill="#D6D9CD"></path><path d="M 72.0 14.4 L 701.9 14.4 L 701.9 0.0 L 72.0 0.0 Z M 72.0 14.4 " fill="#E3E5DD"></path><path d="M -0.0 462.6 L 701.9 462.6 L 701.9 378.4 L -0.0 378.4 Z M -0.0 462.6 " fill="#333333"></path><g><clipPath id="clip-4"><path d="M -0.0 378.4 L 701.9 378.4 L 701.9 462.6 L -0.0 462.6 Z M -0.0 378.4 "></path></clipPath><g clip-path="url(#clip-4)"><text xml:space="preserve" font-family="LucidaGrande-Bold" font-weight="bold" font-size="9.4" fill="#FFFFFF" transform="matrix(1.00, 0.00, -0.00, -1.00, 4.0, 450.0)"> </text><text xml:space="preserve" font-family="LucidaGrande-Bold" font-weight="bold" font-size="9.4" fill="#FFFFFF" transform="matrix(1.00, 0.00, -0.00, -1.00, 4.0, 439.0)"> </text><text xml:space="preserve" font-family="CenturyGothic-Bold" font-weight="bold" font-size="9.4" fill="#FFFFFF" transform="matrix(1.00, 0.00, -0.00, -1.00, 4.0, 428.0)">F</text><text xml:space="preserve" font-family="CenturyGothic-Bold" font-weight="bold" font-size="9.4" fill="#FFFFFF" transform="matrix(1.00, 0.00, -0.00, -1.00, 8.5, 428.0)">I</text><text xml:space="preserve" font-family="CenturyGothic-Bold" font-weight="bold" font-size="9.4" fill="#FFFFFF" transform="matrix(1.00, 0.00, -0.00, -1.00, 11.1, 428.0)">R</text><text xml:space="preserve" font-family="CenturyGothic-Bold" font-weight="bold" font-size="9.4" fill="#FFFFFF" transform="matrix(1.00, 0.00, -0.00, -1.00, 16.6, 428.0)">S</text><text xml:space="preserve" font-family="CenturyGothic-Bold" font-weight="bold" font-size="9.4" fill="#FFFFFF" transform="matrix(1.00, 0.00, -0.00, -1.00, 21.4, 428.0)">T</text><text xml:space="preserve" font-family="CenturyGothic-Bold" font-weight="bold" font-size="9.4" fill="#FFFFFF" transform="matrix(1.00, 0.00, -0.00, -1.00, 25.4, 428.0)"> </text><text xml:space="preserve" font-family="CenturyGothic-Bold" font-weight="bold" font-size="9.4" fill="#FFFFFF" transform="matrix(1.00, 0.00, -0.00, -1.00, 28.0, 428.0)">I</text><text xml:space="preserve" font-family="CenturyGothic-Bold" font-weight="bold" font-size="9.4" fill="#FFFFFF" transform="matrix(1.00, 0.00, -0.00, -1.00, 30.6, 428.0)">M</text><text xml:space="preserve" font-family="CenturyGothic-Bold" font-weight="bold" font-size="9.4" fill="#FFFFFF" transform="matrix(1.00, 0.00, -0.00, -1.00, 39.1, 428.0)">P</text><text xml:space="preserve" font-family="CenturyGothic-Bold" font-weight="bold" font-size="9.4" fill="#FFFFFF" transform="matrix(1.00, 0.00, -0.00, -1.00, 44.3, 428.0)">R</text><text xml:space="preserve" font-family="CenturyGothic-Bold" font-weight="bold" font-size="9.4" fill="#FFFFFF" transform="matrix(1.00, 0.00, -0.00, -1.00, 49.8, 428.0)">E</text><text xml:space="preserve" font-family="CenturyGothic-Bold" font-weight="bold" font-size="9.4" fill="#FFFFFF" transform="matrix(1.00, 0.00, -0.00, -1.00, 54.6, 428.0)">S</text><text xml:space="preserve" font-family="CenturyGothic-Bold" font-weight="bold" font-size="9.4" fill="#FFFFFF" transform="matrix(1.00, 0.00, -0.00, -1.00, 59.5, 428.0)">S</text><text xml:space="preserve" font-family="CenturyGothic-Bold" font-weight="bold" font-size="9.4" fill="#FFFFFF" transform="matrix(1.00, 0.00, -0.00, -1.00, 64.4, 428.0)">I</text><text xml:space="preserve" font-family="CenturyGothic-Bold" font-weight="bold" font-size="9.4" fill="#FFFFFF" transform="matrix(1.00, 0.00, -0.00, -1.00, 67.0, 428.0)">O</text><text xml:space="preserve" font-family="CenturyGothic-Bold" font-weight="bold" font-size="9.4" fill="#FFFFFF" transform="matrix(1.00, 0.00, -0.00, -1.00, 74.9, 428.0)">N</text><text xml:space="preserve" font-family="CenturyGothic-Bold" font-weight="bold" font-size="9.4" fill="#FFFFFF" transform="matrix(1.00, 0.00, -0.00, -1.00, 81.8, 428.0)"> </text><text xml:space="preserve" font-family="CenturyGothic-Bold" font-weight="bold" font-size="9.4" fill="#FFFFFF" transform="matrix(1.00, 0.00, -0.00, -1.00, 84.5, 428.0)">O</text><text xml:space="preserve" font-family="CenturyGothic-Bold" font-weight="bold" font-size="9.4" fill="#FFFFFF" transform="matrix(1.00, 0.00, -0.00, -1.00, 92.3, 428.0)">F</text><text xml:space="preserve" font-family="CenturyGothic-Bold" font-weight="bold" font-size="9.4" fill="#FFFFFF" transform="matrix(1.00, 0.00, -0.00, -1.00, 96.8, 428.0)"> </text><text xml:space="preserve" font-family="CenturyGothic-Bold" font-weight="bold" font-size="9.4" fill="#FFFFFF" transform="matrix(1.00, 0.00, -0.00, -1.00, 99.5, 428.0)">T</text><text xml:space="preserve" font-family="CenturyGothic-Bold" font-weight="bold" font-size="9.4" fill="#FFFFFF" transform="matrix(1.00, 0.00, -0.00, -1.00, 103.4, 428.0)">H</text><text xml:space="preserve" font-family="CenturyGothic-Bold" font-weight="bold" font-size="9.4" fill="#FFFFFF" transform="matrix(1.00, 0.00, -0.00, -1.00, 109.8, 428.0)">E</text><text xml:space="preserve" font-family="CenturyGothic-Bold" font-weight="bold" font-size="9.4" fill="#FFFFFF" transform="matrix(1.00, 0.00, -0.00, -1.00, 114.7, 428.0)"> </text><text xml:space="preserve" font-family="CenturyGothic-Bold" font-weight="bold" font-size="9.4" fill="#FFFFFF" transform="matrix(1.00, 0.00, -0.00, -1.00, 117.3, 428.0)">W</text><text xml:space="preserve" font-family="CenturyGothic-Bold" font-weight="bold" font-size="9.4" fill="#FFFFFF" transform="matrix(1.00, 0.00, -0.00, -1.00, 125.7, 428.0)">E</text><text xml:space="preserve" font-family="CenturyGothic-Bold" font-weight="bold" font-size="9.4" fill="#FFFFFF" transform="matrix(1.00, 0.00, -0.00, -1.00, 130.6, 428.0)">B</text><text xml:space="preserve" font-family="CenturyGothic-Bold" font-weight="bold" font-size="9.4" fill="#FFFFFF" transform="matrix(1.00, 0.00, -0.00, -1.00, 136.0, 428.0)">S</text><text xml:space="preserve" font-family="CenturyGothic-Bold" font-weight="bold" font-size="9.4" fill="#FFFFFF" transform="matrix(1.00, 0.00, -0.00, -1.00, 140.9, 428.0)">I</text><text xml:space="preserve" font-family="CenturyGothic-Bold" font-weight="bold" font-size="9.4" fill="#FFFFFF" transform="matrix(1.00, 0.00, -0.00, -1.00, 143.5, 428.0)">T</text><text xml:space="preserve" font-family="CenturyGothic-Bold" font-weight="bold" font-size="9.4" fill="#FFFFFF" transform="matrix(1.00, 0.00, -0.00, -1.00, 147.5, 428.0)">E</text><text xml:space="preserve" font-family="LucidaGrande-Bold" font-weight="bold" font-size="9.4" fill="#FFFFFF" transform="matrix(1.00, 0.00, -0.00, -1.00, 152.4, 428.0)"> </text><text xml:space="preserve" font-family="LucidaGrande-Bold" font-weight="bold" font-size="9.4" fill="#FFFFFF" transform="matrix(1.00, 0.00, -0.00, -1.00, 4.0, 417.0)"> </text><text xml:space="preserve" font-family="CenturyGothic" font-size="9.4" fill="#FFFFFF" transform="matrix(1.00, 0.00, -0.00, -1.00, 4.0, 406.0)">A</text><text xml:space="preserve" font-family="CenturyGothic" font-size="9.4" fill="#FFFFFF" transform="matrix(1.00, 0.00, -0.00, -1.00, 10.9, 406.0)">l</text><text xml:space="preserve" font-family="CenturyGothic-Bold" font-weight="bold" font-size="9.4" fill="#FFFFFF" transform="matrix(1.00, 0.00, -0.00, -1.00, 12.8, 406.0)">l</text><text xml:space="preserve" font-family="CenturyGothic-Bold" font-weight="bold" font-size="9.4" fill="#FFFFFF" transform="matrix(1.00, 0.00, -0.00, -1.00, 15.1, 406.0)"> </text><text xml:space="preserve" font-family="CenturyGothic" font-size="9.4" fill="#FFFFFF" transform="matrix(1.00, 0.00, -0.00, -1.00, 17.7, 406.0)">t</text><text xml:space="preserve" font-family="CenturyGothic" font-size="9.4" fill="#FFFFFF" transform="matrix(1.00, 0.00, -0.00, -1.00, 20.9, 406.0)">h</text><text xml:space="preserve" font-family="CenturyGothic" font-size="9.4" fill="#FFFFFF" transform="matrix(1.00, 0.00, -0.00, -1.00, 26.6, 406.0)">e</text><text xml:space="preserve" font-family="CenturyGothic" font-size="9.4" fill="#FFFFFF" transform="matrix(1.00, 0.00, -0.00, -1.00, 32.7, 406.0)"> </text><text xml:space="preserve" font-family="CenturyGothic" font-size="9.4" fill="#FFFFFF" transform="matrix(1.00, 0.00, -0.00, -1.00, 35.3, 406.0)">u</text><text xml:space="preserve" font-family="CenturyGothic" font-size="9.4" fill="#FFFFFF" transform="matrix(1.00, 0.00, -0.00, -1.00, 41.0, 406.0)">s</text><text xml:space="preserve" font-family="CenturyGothic" font-size="9.4" fill="#FFFFFF" transform="matrix(1.00, 0.00, -0.00, -1.00, 44.6, 406.0)">e</text><text xml:space="preserve" font-family="CenturyGothic" font-size="9.4" fill="#FFFFFF" transform="matrix(1.00, 0.00, -0.00, -1.00, 50.7, 406.0)">r</text><text xml:space="preserve" font-family="CenturyGothic" font-size="9.4" fill="#FFFFFF" transform="matrix(1.00, 0.00, -0.00, -1.00, 53.5, 406.0)">s</text><text xml:space="preserve" font-family="CenturyGothic" font-size="9.4" fill="#FFFFFF" transform="matrix(1.00, 0.00, -0.00, -1.00, 57.2, 406.0)"> </text><text xml:space="preserve" font-family="CenturyGothic" font-size="9.4" fill="#FFFFFF" transform="matrix(1.00, 0.00, -0.00, -1.00, 59.8, 406.0)">t</text><text xml:space="preserve" font-family="CenturyGothic" font-size="9.4" fill="#FFFFFF" transform="matrix(1.00, 0.00, -0.00, -1.00, 63.0, 406.0)">r</text><text xml:space="preserve" font-family="CenturyGothic" font-size="9.4" fill="#FFFFFF" transform="matrix(1.00, 0.00, -0.00, -1.00, 65.8, 406.0)">u</text><text xml:space="preserve" font-family="CenturyGothic" font-size="9.4" fill="#FFFFFF" transform="matrix(1.00, 0.00, -0.00, -1.00, 71.5, 406.0)">s</text><text xml:space="preserve" font-family="CenturyGothic" font-size="9.4" fill="#FFFFFF" transform="matrix(1.00, 0.00, -0.00, -1.00, 75.1, 406.0)">t</text><text xml:space="preserve" font-family="CenturyGothic" font-size="9.4" fill="#FFFFFF" transform="matrix(1.00, 0.00, -0.00, -1.00, 78.3, 406.0)">e</text><text xml:space="preserve" font-family="CenturyGothic" font-size="9.4" fill="#FFFFFF" transform="matrix(1.00, 0.00, -0.00, -1.00, 84.4, 406.0)">d</text><text xml:space="preserve" font-family="CenturyGothic" font-size="9.4" fill="#FFFFFF" transform="matrix(1.00, 0.00, -0.00, -1.00, 90.8, 406.0)"> </text><text xml:space="preserve" font-family="CenturyGothic" font-size="9.4" fill="#FFFFFF" transform="matrix(1.00, 0.00, -0.00, -1.00, 93.4, 406.0)">t</text><text xml:space="preserve" font-family="CenturyGothic" font-size="9.4" fill="#FFFFFF" transform="matrix(1.00, 0.00, -0.00, -1.00, 96.6, 406.0)">h</text><text xml:space="preserve" font-family="CenturyGothic" font-size="9.4" fill="#FFFFFF" transform="matrix(1.00, 0.00, -0.00, -1.00, 102.3, 406.0)">e</text><text xml:space="preserve" font-family="CenturyGothic" font-size="9.4" fill="#FFFFFF" transform="matrix(1.00, 0.00, -0.00, -1.00, 108.4, 406.0)"> </text><text xml:space="preserve" font-family="CenturyGothic" font-size="9.4" fill="#FFFFFF" transform="matrix(1.00, 0.00, -0.00, -1.00, 111.0, 406.0)">c</text><text xml:space="preserve" font-family="CenturyGothic" font-size="9.4" fill="#FFFFFF" transform="matrix(1.00, 0.00, -0.00, -1.00, 117.1, 406.0)">o</text><text xml:space="preserve" font-family="CenturyGothic" font-size="9.4" fill="#FFFFFF" transform="matrix(1.00, 0.00, -0.00, -1.00, 123.2, 406.0)">m</text><text xml:space="preserve" font-family="CenturyGothic" font-size="9.4" fill="#FFFFFF" transform="matrix(1.00, 0.00, -0.00, -1.00, 132.0, 406.0)">p</text><text xml:space="preserve" font-family="CenturyGothic" font-size="9.4" fill="#FFFFFF" transform="matrix(1.00, 0.00, -0.00, -1.00, 138.4, 406.0)">a</text><text xml:space="preserve" font-family="CenturyGothic" font-size="9.4" fill="#FFFFFF" transform="matrix(1.00, 0.00, -0.00, -1.00, 144.8, 406.0)">n</text><text xml:space="preserve" font-family="CenturyGothic" font-size="9.4" fill="#FFFFFF" transform="matrix(1.00, 0.00, -0.00, -1.00, 150.5, 406.0)">y</text><text xml:space="preserve" font-family="CenturyGothic" font-size="9.4" fill="#FFFFFF" transform="matrix(1.00, 0.00, -0.00, -1.00, 155.6, 406.0)"> </text><text xml:space="preserve" font-family="CenturyGothic" font-size="9.4" fill="#FFFFFF" transform="matrix(1.00, 0.00, -0.00, -1.00, 158.2, 406.0)">a</text><text xml:space="preserve" font-family="CenturyGothic" font-size="9.4" fill="#FFFFFF" transform="matrix(1.00, 0.00, -0.00, -1.00, 164.6, 406.0)">n</text><text xml:space="preserve" font-family="CenturyGothic" font-size="9.4" fill="#FFFFFF" transform="matrix(1.00, 0.00, -0.00, -1.00, 170.3, 406.0)">d</text><text xml:space="preserve" font-family="CenturyGothic" font-size="9.4" fill="#FFFFFF" transform="matrix(1.00, 0.00, -0.00, -1.00, 176.7, 406.0)"> </text><text xml:space="preserve" font-family="CenturyGothic" font-size="9.4" fill="#FFFFFF" transform="matrix(1.00, 0.00, -0.00, -1.00, 179.3, 406.0)">t</text><text xml:space="preserve" font-family="CenturyGothic" font-size="9.4" fill="#FFFFFF" transform="matrix(1.00, 0.00, -0.00, -1.00, 182.5, 406.0)">h</text><text xml:space="preserve" font-family="CenturyGothic" font-size="9.4" fill="#FFFFFF" transform="matrix(1.00, 0.00, -0.00, -1.00, 188.2, 406.0)">i</text><text xml:space="preserve" font-family="CenturyGothic" font-size="9.4" fill="#FFFFFF" transform="matrix(1.00, 0.00, -0.00, -1.00, 190.1, 406.0)">n</text><text xml:space="preserve" font-family="CenturyGothic" font-size="9.4" fill="#FFFFFF" transform="matrix(1.00, 0.00, -0.00, -1.00, 195.8, 406.0)">k</text><text xml:space="preserve" font-family="CenturyGothic" font-size="9.4" fill="#FFFFFF" transform="matrix(1.00, 0.00, -0.00, -1.00, 200.5, 406.0)"> </text><text xml:space="preserve" font-family="CenturyGothic" font-size="9.4" fill="#FFFFFF" transform="matrix(1.00, 0.00, -0.00, -1.00, 203.1, 406.0)">t</text><text xml:space="preserve" font-family="CenturyGothic" font-size="9.4" fill="#FFFFFF" transform="matrix(1.00, 0.00, -0.00, -1.00, 206.3, 406.0)">h</text><text xml:space="preserve" font-family="CenturyGothic" font-size="9.4" fill="#FFFFFF" transform="matrix(1.00, 0.00, -0.00, -1.00, 212.0, 406.0)">e</text><text xml:space="preserve" font-family="CenturyGothic" font-size="9.4" fill="#FFFFFF" transform="matrix(1.00, 0.00, -0.00, -1.00, 218.1, 406.0)"> </text><text xml:space="preserve" font-family="CenturyGothic" font-size="9.4" fill="#FFFFFF" transform="matrix(1.00, 0.00, -0.00, -1.00, 220.7, 406.0)">w</text><text xml:space="preserve" font-family="CenturyGothic" font-size="9.4" fill="#FFFFFF" transform="matrix(1.00, 0.00, -0.00, -1.00, 228.5, 406.0)">e</text><text xml:space="preserve" font-family="CenturyGothic" font-size="9.4" fill="#FFFFFF" transform="matrix(1.00, 0.00, -0.00, -1.00, 234.6, 406.0)">b</text><text xml:space="preserve" font-family="CenturyGothic" font-size="9.4" fill="#FFFFFF" transform="matrix(1.00, 0.00, -0.00, -1.00, 241.0, 406.0)">s</text><text xml:space="preserve" font-family="CenturyGothic" font-size="9.4" fill="#FFFFFF" transform="matrix(1.00, 0.00, -0.00, -1.00, 244.6, 406.0)">i</text><text xml:space="preserve" font-family="CenturyGothic" font-size="9.4" fill="#FFFFFF" transform="matrix(1.00, 0.00, -0.00, -1.00, 246.5, 406.0)">t</text><text xml:space="preserve" font-family="CenturyGothic" font-size="9.4" fill="#FFFFFF" transform="matrix(1.00, 0.00, -0.00, -1.00, 249.7, 406.0)">e</text><text xml:space="preserve" font-family="CenturyGothic" font-size="9.4" fill="#FFFFFF" transform="matrix(1.00, 0.00, -0.00, -1.00, 255.8, 406.0)"> </text><text xml:space="preserve" font-family="CenturyGothic" font-size="9.4" fill="#FFFFFF" transform="matrix(1.00, 0.00, -0.00, -1.00, 258.4, 406.0)">l</text><text xml:space="preserve" font-family="CenturyGothic" font-size="9.4" fill="#FFFFFF" transform="matrix(1.00, 0.00, -0.00, -1.00, 260.3, 406.0)">o</text><text xml:space="preserve" font-family="CenturyGothic" font-size="9.4" fill="#FFFFFF" transform="matrix(1.00, 0.00, -0.00, -1.00, 266.4, 406.0)">o</text><text xml:space="preserve" font-family="CenturyGothic" font-size="9.4" fill="#FFFFFF" transform="matrix(1.00, 0.00, -0.00, -1.00, 272.5, 406.0)">k</text><text xml:space="preserve" font-family="CenturyGothic" font-size="9.4" fill="#FFFFFF" transform="matrix(1.00, 0.00, -0.00, -1.00, 277.3, 406.0)">s</text><text xml:space="preserve" font-family="CenturyGothic" font-size="9.4" fill="#FFFFFF" transform="matrix(1.00, 0.00, -0.00, -1.00, 280.9, 406.0)"> </text><text xml:space="preserve" font-family="CenturyGothic" font-size="9.4" fill="#FFFFFF" transform="matrix(1.00, 0.00, -0.00, -1.00, 283.5, 406.0)">r</text><text xml:space="preserve" font-family="CenturyGothic" font-size="9.4" fill="#FFFFFF" transform="matrix(1.00, 0.00, -0.00, -1.00, 286.3, 406.0)">e</text><text xml:space="preserve" font-family="CenturyGothic" font-size="9.4" fill="#FFFFFF" transform="matrix(1.00, 0.00, -0.00, -1.00, 292.4, 406.0)">l</text><text xml:space="preserve" font-family="CenturyGothic" font-size="9.4" fill="#FFFFFF" transform="matrix(1.00, 0.00, -0.00, -1.00, 294.2, 406.0)">i</text><text xml:space="preserve" font-family="CenturyGothic" font-size="9.4" fill="#FFFFFF" transform="matrix(1.00, 0.00, -0.00, -1.00, 296.1, 406.0)">a</text><text xml:space="preserve" font-family="CenturyGothic" font-size="9.4" fill="#FFFFFF" transform="matrix(1.00, 0.00, -0.00, -1.00, 302.5, 406.0)">b</text><text xml:space="preserve" font-family="CenturyGothic" font-size="9.4" fill="#FFFFFF" transform="matrix(1.00, 0.00, -0.00, -1.00, 308.9, 406.0)">l</text><text xml:space="preserve" font-family="CenturyGothic" font-size="9.4" fill="#FFFFFF" transform="matrix(1.00, 0.00, -0.00, -1.00, 310.8, 406.0)">e</text><text xml:space="preserve" font-family="LucidaGrande" font-size="9.4" fill="#FFFFFF" transform="matrix(1.00, 0.00, -0.00, -1.00, 316.9, 406.0)"> </text><text xml:space="preserve" font-family="LucidaGrande" font-size="9.4" fill="#FFFFFF" transform="matrix(1.00, 0.00, -0.00, -1.00, 4.0, 395.0)"> </text></g></g><image xlink:href="../../5A05CCC6-1FDC-4835-83CD-9E25B9EEC5FF/assets/E4BF2466407E3B2116F1E6DCB356DBE4.png" width="81.00" height="26.00" transform="matrix(0.99, 0.00, -0.00, -1.00, 607.0, 504.0)"></image><image xlink:href="DC1379AFFB445C9CF710DBE67F401443.png" width="510.00" height="318.00" transform="matrix(1.00, 0.00, -0.00, -1.00, 89.0, 347.0)"></image></g></svg>