<?xml version="1.0" encoding="UTF-8" standalone="no"?><svg xmlns="http://www.w3.org/2000/svg" xmlns:xlink="http://www.w3.org/1999/xlink" clip-rule="evenodd" stroke-miterlimit="4.00" viewBox="0 0 720 540"><desc>SVG generated by Keynote</desc><defs></defs><g transform="matrix(1.00, 0.00, -0.00, -1.00, 0.0, 540.0)"><path d="M 0.0 540.0 L 720.0 540.0 L 720.0 0.0 L 0.0 0.0 Z M 0.0 540.0 " fill="#FFFFFF"></path><path d="M 72.0 540.0 L 701.9 540.0 L 701.9 525.6 L 72.0 525.6 Z M 72.0 540.0 " fill="#D6D9CD"></path><path d="M 72.0 14.4 L 701.9 14.4 L 701.9 0.0 L 72.0 0.0 Z M 72.0 14.4 " fill="#E3E5DD"></path><path d="M 0.0 389.5 L 702.0 389.5 L 702.0 301.0 L 0.0 301.0 Z M 0.0 389.5 " fill="#333333"></path><g><clipPath id="clip-0"><path d="M -7.4 301.0 L 709.4 301.0 L 709.4 389.5 L -7.4 389.5 Z M -7.4 301.0 "></path></clipPath><g clip-path="url(#clip-0)"><text xml:space="preserve" font-family="CenturyGothic" font-size="36.0" fill="#FFFFFF" transform="matrix(1.00, 0.00, -0.00, -1.00, 4.0, 332.0)">U</text><text xml:space="preserve" font-family="CenturyGothic" font-size="36.0" fill="#FFFFFF" transform="matrix(1.00, 0.00, -0.00, -1.00, 27.6, 332.0)">s</text><text xml:space="preserve" font-family="CenturyGothic" font-size="36.0" fill="#FFFFFF" transform="matrix(1.00, 0.00, -0.00, -1.00, 41.5, 332.0)">e</text><text xml:space="preserve" font-family="CenturyGothic" font-size="36.0" fill="#FFFFFF" transform="matrix(1.00, 0.00, -0.00, -1.00, 64.9, 332.0)">r</text><text xml:space="preserve" font-family="CenturyGothic" font-size="36.0" fill="#FFFFFF" transform="matrix(1.00, 0.00, -0.00, -1.00, 75.7, 332.0)"> </text><text xml:space="preserve" font-family="CenturyGothic" font-size="36.0" fill="#FFFFFF" transform="matrix(1.00, 0.00, -0.00, -1.00, 85.7, 332.0)">t</text><text xml:space="preserve" font-family="CenturyGothic" font-size="36.0" fill="#FFFFFF" transform="matrix(1.00, 0.00, -0.00, -1.00, 97.9, 332.0)">e</text><text xml:space="preserve" font-family="CenturyGothic" font-size="36.0" fill="#FFFFFF" transform="matrix(1.00, 0.00, -0.00, -1.00, 121.3, 332.0)">s</text><text xml:space="preserve" font-family="CenturyGothic" font-size="36.0" fill="#FFFFFF" transform="matrix(1.00, 0.00, -0.00, -1.00, 135.3, 332.0)">t</text><text xml:space="preserve" font-family="CenturyGothic" font-size="36.0" fill="#FFFFFF" transform="matrix(1.00, 0.00, -0.00, -1.00, 147.4, 332.0)">i</text><text xml:space="preserve" font-family="CenturyGothic" font-size="36.0" fill="#FFFFFF" transform="matrix(1.00, 0.00, -0.00, -1.00, 154.6, 332.0)">n</text><text xml:space="preserve" font-family="CenturyGothic" font-size="36.0" fill="#FFFFFF" transform="matrix(1.00, 0.00, -0.00, -1.00, 176.6, 332.0)">g</text><text xml:space="preserve" font-family="CenturyGothic" font-size="36.0" fill="#FFFFFF" transform="matrix(1.00, 0.00, -0.00, -1.00, 200.8, 332.0)"> </text><text xml:space="preserve" font-family="CenturyGothic" font-size="36.0" fill="#FFFFFF" transform="matrix(1.00, 0.00, -0.00, -1.00, 210.8, 332.0)">v</text><text xml:space="preserve" font-family="CenturyGothic" font-size="36.0" fill="#FFFFFF" transform="matrix(1.00, 0.00, -0.00, -1.00, 230.7, 332.0)">i</text><text xml:space="preserve" font-family="CenturyGothic" font-size="36.0" fill="#FFFFFF" transform="matrix(1.00, 0.00, -0.00, -1.00, 237.9, 332.0)">d</text><text xml:space="preserve" font-family="CenturyGothic" font-size="36.0" fill="#FFFFFF" transform="matrix(1.00, 0.00, -0.00, -1.00, 262.6, 332.0)">e</text><text xml:space="preserve" font-family="CenturyGothic" font-size="36.0" fill="#FFFFFF" transform="matrix(1.00, 0.00, -0.00, -1.00, 286.0, 332.0)">o</text><text xml:space="preserve" font-family="CenturyGothic" font-size="36.0" fill="#FFFFFF" transform="matrix(1.00, 0.00, -0.00, -1.00, 309.5, 332.0)">s</text><text xml:space="preserve" font-family="CenturyGothic" font-size="36.0" fill="#FFFFFF" transform="matrix(1.00, 0.00, -0.00, -1.00, 323.5, 332.0)"> </text><text xml:space="preserve" font-family="CenturyGothic" font-size="36.0" fill="#FFFFFF" transform="matrix(1.00, 0.00, -0.00, -1.00, 333.6, 332.0)">i</text><text xml:space="preserve" font-family="CenturyGothic" font-size="36.0" fill="#FFFFFF" transform="matrix(1.00, 0.00, -0.00, -1.00, 340.8, 332.0)">m</text><text xml:space="preserve" font-family="CenturyGothic" font-size="36.0" fill="#FFFFFF" transform="matrix(1.00, 0.00, -0.00, -1.00, 374.6, 332.0)">p</text><text xml:space="preserve" font-family="CenturyGothic" font-size="36.0" fill="#FFFFFF" transform="matrix(1.00, 0.00, -0.00, -1.00, 399.1, 332.0)">r</text><text xml:space="preserve" font-family="CenturyGothic" font-size="36.0" fill="#FFFFFF" transform="matrix(1.00, 0.00, -0.00, -1.00, 409.8, 332.0)">e</text><text xml:space="preserve" font-family="CenturyGothic" font-size="36.0" fill="#FFFFFF" transform="matrix(1.00, 0.00, -0.00, -1.00, 433.2, 332.0)">s</text><text xml:space="preserve" font-family="CenturyGothic" font-size="36.0" fill="#FFFFFF" transform="matrix(1.00, 0.00, -0.00, -1.00, 447.2, 332.0)">s</text><text xml:space="preserve" font-family="CenturyGothic" font-size="36.0" fill="#FFFFFF" transform="matrix(1.00, 0.00, -0.00, -1.00, 461.2, 332.0)">i</text><text xml:space="preserve" font-family="CenturyGothic" font-size="36.0" fill="#FFFFFF" transform="matrix(1.00, 0.00, -0.00, -1.00, 468.4, 332.0)">o</text><text xml:space="preserve" font-family="CenturyGothic" font-size="36.0" fill="#FFFFFF" transform="matrix(1.00, 0.00, -0.00, -1.00, 491.9, 332.0)">n</text><text xml:space="preserve" font-family="CenturyGothic" font-size="36.0" fill="#FFFFFF" transform="matrix(1.00, 0.00, -0.00, -1.00, 513.9, 332.0)">s</text></g></g><path d="M 72.0 301.1 L 702.0 301.1 L 702.0 0.0 L 72.0 0.0 Z M 72.0 301.1 " fill="#E3E5DD"></path><g><clipPath id="clip-1"><path d="M 72.0 0.0 L 702.0 0.0 L 702.0 301.1 L 72.0 301.1 Z M 72.0 0.0 "></path></clipPath><g clip-path="url(#clip-1)"><text xml:space="preserve" font-family="CenturyGothic-Bold" font-weight="bold" font-size="18.0" fill="#595959" transform="matrix(1.00, 0.00, -0.00, -1.00, 79.0, 234.0)">T</text><text xml:space="preserve" font-family="CenturyGothic-Bold" font-weight="bold" font-size="18.0" fill="#595959" transform="matrix(1.00, 0.00, -0.00, -1.00, 86.6, 234.0)">a</text><text xml:space="preserve" font-family="CenturyGothic-Bold" font-weight="bold" font-size="18.0" fill="#595959" transform="matrix(1.00, 0.00, -0.00, -1.00, 98.4, 234.0)">s</text><text xml:space="preserve" font-family="CenturyGothic-Bold" font-weight="bold" font-size="18.0" fill="#595959" transform="matrix(1.00, 0.00, -0.00, -1.00, 106.4, 234.0)">k</text><text xml:space="preserve" font-family="CenturyGothic-Bold" font-weight="bold" font-size="18.0" fill="#595959" transform="matrix(1.00, 0.00, -0.00, -1.00, 116.8, 234.0)"> </text><text xml:space="preserve" font-family="CenturyGothic-Bold" font-weight="bold" font-size="18.0" fill="#595959" transform="matrix(1.00, 0.00, -0.00, -1.00, 121.8, 234.0)">f</text><text xml:space="preserve" font-family="CenturyGothic-Bold" font-weight="bold" font-size="18.0" fill="#595959" transform="matrix(1.00, 0.00, -0.00, -1.00, 126.9, 234.0)">o</text><text xml:space="preserve" font-family="CenturyGothic-Bold" font-weight="bold" font-size="18.0" fill="#595959" transform="matrix(1.00, 0.00, -0.00, -1.00, 138.4, 234.0)">r</text><text xml:space="preserve" font-family="CenturyGothic-Bold" font-weight="bold" font-size="18.0" fill="#595959" transform="matrix(1.00, 0.00, -0.00, -1.00, 144.1, 234.0)"> </text><text xml:space="preserve" font-family="CenturyGothic-Bold" font-weight="bold" font-size="18.0" fill="#595959" transform="matrix(1.00, 0.00, -0.00, -1.00, 149.2, 234.0)">t</text><text xml:space="preserve" font-family="CenturyGothic-Bold" font-weight="bold" font-size="18.0" fill="#595959" transform="matrix(1.00, 0.00, -0.00, -1.00, 154.6, 234.0)">h</text><text xml:space="preserve" font-family="CenturyGothic-Bold" font-weight="bold" font-size="18.0" fill="#595959" transform="matrix(1.00, 0.00, -0.00, -1.00, 165.4, 234.0)">e</text><text xml:space="preserve" font-family="CenturyGothic-Bold" font-weight="bold" font-size="18.0" fill="#595959" transform="matrix(1.00, 0.00, -0.00, -1.00, 176.9, 234.0)"> </text><text xml:space="preserve" font-family="CenturyGothic-Bold" font-weight="bold" font-size="18.0" fill="#595959" transform="matrix(1.00, 0.00, -0.00, -1.00, 181.9, 234.0)">u</text><text xml:space="preserve" font-family="CenturyGothic-Bold" font-weight="bold" font-size="18.0" fill="#595959" transform="matrix(1.00, 0.00, -0.00, -1.00, 192.7, 234.0)">s</text><text xml:space="preserve" font-family="CenturyGothic-Bold" font-weight="bold" font-size="18.0" fill="#595959" transform="matrix(1.00, 0.00, -0.00, -1.00, 200.6, 234.0)">e</text><text xml:space="preserve" font-family="CenturyGothic-Bold" font-weight="bold" font-size="18.0" fill="#595959" transform="matrix(1.00, 0.00, -0.00, -1.00, 212.2, 234.0)">r</text><text xml:space="preserve" font-family="CenturyGothic-Bold" font-weight="bold" font-size="18.0" fill="#595959" transform="matrix(1.00, 0.00, -0.00, -1.00, 217.9, 234.0)">:</text><text xml:space="preserve" font-family="CenturyGothic-Bold" font-weight="bold" font-size="18.0" fill="#595959" transform="matrix(1.00, 0.00, -0.00, -1.00, 223.0, 234.0)"> </text><text xml:space="preserve" font-family="CenturyGothic-Bold" font-weight="bold" font-size="18.0" fill="#595959" transform="matrix(1.00, 0.00, -0.00, -1.00, 228.0, 234.0)"> </text><text xml:space="preserve" font-family="CenturyGothic" font-size="18.0" fill="#595959" transform="matrix(1.00, 0.00, -0.00, -1.00, 79.0, 192.0)">Y</text><text xml:space="preserve" font-family="CenturyGothic" font-size="18.0" fill="#595959" transform="matrix(1.00, 0.00, -0.00, -1.00, 88.0, 192.0)">o</text><text xml:space="preserve" font-family="CenturyGothic" font-size="18.0" fill="#595959" transform="matrix(1.00, 0.00, -0.00, -1.00, 99.8, 192.0)">u</text><text xml:space="preserve" font-family="CenturyGothic" font-size="18.0" fill="#595959" transform="matrix(1.00, 0.00, -0.00, -1.00, 110.8, 192.0)"> </text><text xml:space="preserve" font-family="CenturyGothic" font-size="18.0" fill="#595959" transform="matrix(1.00, 0.00, -0.00, -1.00, 115.8, 192.0)">n</text><text xml:space="preserve" font-family="CenturyGothic" font-size="18.0" fill="#595959" transform="matrix(1.00, 0.00, -0.00, -1.00, 126.7, 192.0)">e</text><text xml:space="preserve" font-family="CenturyGothic" font-size="18.0" fill="#595959" transform="matrix(1.00, 0.00, -0.00, -1.00, 138.4, 192.0)">e</text><text xml:space="preserve" font-family="CenturyGothic" font-size="18.0" fill="#595959" transform="matrix(1.00, 0.00, -0.00, -1.00, 150.1, 192.0)">d</text><text xml:space="preserve" font-family="CenturyGothic" font-size="18.0" fill="#595959" transform="matrix(1.00, 0.00, -0.00, -1.00, 162.5, 192.0)"> </text><text xml:space="preserve" font-family="CenturyGothic" font-size="18.0" fill="#595959" transform="matrix(1.00, 0.00, -0.00, -1.00, 167.4, 192.0)">t</text><text xml:space="preserve" font-family="CenturyGothic" font-size="18.0" fill="#595959" transform="matrix(1.00, 0.00, -0.00, -1.00, 173.5, 192.0)">o</text><text xml:space="preserve" font-family="CenturyGothic" font-size="18.0" fill="#595959" transform="matrix(1.00, 0.00, -0.00, -1.00, 185.3, 192.0)"> </text><text xml:space="preserve" font-family="CenturyGothic" font-size="18.0" fill="#595959" transform="matrix(1.00, 0.00, -0.00, -1.00, 190.3, 192.0)">b</text><text xml:space="preserve" font-family="CenturyGothic" font-size="18.0" fill="#595959" transform="matrix(1.00, 0.00, -0.00, -1.00, 202.6, 192.0)">u</text><text xml:space="preserve" font-family="CenturyGothic" font-size="18.0" fill="#595959" transform="matrix(1.00, 0.00, -0.00, -1.00, 213.5, 192.0)">y</text><text xml:space="preserve" font-family="CenturyGothic" font-size="18.0" fill="#595959" transform="matrix(1.00, 0.00, -0.00, -1.00, 223.2, 192.0)"> </text><text xml:space="preserve" font-family="CenturyGothic" font-size="18.0" fill="#595959" transform="matrix(1.00, 0.00, -0.00, -1.00, 228.2, 192.0)">a</text><text xml:space="preserve" font-family="CenturyGothic" font-size="18.0" fill="#595959" transform="matrix(1.00, 0.00, -0.00, -1.00, 240.5, 192.0)"> </text><text xml:space="preserve" font-family="CenturyGothic" font-size="18.0" fill="#595959" transform="matrix(1.00, 0.00, -0.00, -1.00, 245.4, 192.0)">n</text><text xml:space="preserve" font-family="CenturyGothic" font-size="18.0" fill="#595959" transform="matrix(1.00, 0.00, -0.00, -1.00, 256.4, 192.0)">e</text><text xml:space="preserve" font-family="CenturyGothic" font-size="18.0" fill="#595959" transform="matrix(1.00, 0.00, -0.00, -1.00, 268.1, 192.0)">w</text><text xml:space="preserve" font-family="CenturyGothic" font-size="18.0" fill="#595959" transform="matrix(1.00, 0.00, -0.00, -1.00, 283.1, 192.0)"> </text><text xml:space="preserve" font-family="CenturyGothic" font-size="18.0" fill="#595959" transform="matrix(1.00, 0.00, -0.00, -1.00, 288.0, 192.0)">s</text><text xml:space="preserve" font-family="CenturyGothic" font-size="18.0" fill="#595959" transform="matrix(1.00, 0.00, -0.00, -1.00, 295.0, 192.0)">h</text><text xml:space="preserve" font-family="CenturyGothic" font-size="18.0" fill="#595959" transform="matrix(1.00, 0.00, -0.00, -1.00, 306.0, 192.0)">e</text><text xml:space="preserve" font-family="CenturyGothic" font-size="18.0" fill="#595959" transform="matrix(1.00, 0.00, -0.00, -1.00, 317.7, 192.0)">l</text><text xml:space="preserve" font-family="CenturyGothic" font-size="18.0" fill="#595959" transform="matrix(1.00, 0.00, -0.00, -1.00, 321.3, 192.0)">f</text><text xml:space="preserve" font-family="CenturyGothic" font-size="18.0" fill="#595959" transform="matrix(1.00, 0.00, -0.00, -1.00, 327.0, 192.0)"> </text><text xml:space="preserve" font-family="CenturyGothic" font-size="18.0" fill="#595959" transform="matrix(1.00, 0.00, -0.00, -1.00, 331.9, 192.0)">f</text><text xml:space="preserve" font-family="CenturyGothic" font-size="18.0" fill="#595959" transform="matrix(1.00, 0.00, -0.00, -1.00, 337.6, 192.0)">o</text><text xml:space="preserve" font-family="CenturyGothic" font-size="18.0" fill="#595959" transform="matrix(1.00, 0.00, -0.00, -1.00, 349.4, 192.0)">r</text><text xml:space="preserve" font-family="CenturyGothic" font-size="18.0" fill="#595959" transform="matrix(1.00, 0.00, -0.00, -1.00, 354.8, 192.0)"> </text><text xml:space="preserve" font-family="CenturyGothic" font-size="18.0" fill="#595959" transform="matrix(1.00, 0.00, -0.00, -1.00, 359.8, 192.0)">y</text><text xml:space="preserve" font-family="CenturyGothic" font-size="18.0" fill="#595959" transform="matrix(1.00, 0.00, -0.00, -1.00, 369.4, 192.0)">o</text><text xml:space="preserve" font-family="CenturyGothic" font-size="18.0" fill="#595959" transform="matrix(1.00, 0.00, -0.00, -1.00, 381.2, 192.0)">u</text><text xml:space="preserve" font-family="CenturyGothic" font-size="18.0" fill="#595959" transform="matrix(1.00, 0.00, -0.00, -1.00, 392.2, 192.0)">r</text><text xml:space="preserve" font-family="CenturyGothic" font-size="18.0" fill="#595959" transform="matrix(1.00, 0.00, -0.00, -1.00, 397.6, 192.0)"> </text><text xml:space="preserve" font-family="CenturyGothic" font-size="18.0" fill="#595959" transform="matrix(1.00, 0.00, -0.00, -1.00, 402.5, 192.0)">h</text><text xml:space="preserve" font-family="CenturyGothic" font-size="18.0" fill="#595959" transform="matrix(1.00, 0.00, -0.00, -1.00, 413.5, 192.0)">o</text><text xml:space="preserve" font-family="CenturyGothic" font-size="18.0" fill="#595959" transform="matrix(1.00, 0.00, -0.00, -1.00, 425.3, 192.0)">m</text><text xml:space="preserve" font-family="CenturyGothic" font-size="18.0" fill="#595959" transform="matrix(1.00, 0.00, -0.00, -1.00, 442.2, 192.0)">e</text><text xml:space="preserve" font-family="CenturyGothic" font-size="18.0" fill="#595959" transform="matrix(1.00, 0.00, -0.00, -1.00, 453.9, 192.0)"> </text><text xml:space="preserve" font-family="CenturyGothic" font-size="18.0" fill="#595959" transform="matrix(1.00, 0.00, -0.00, -1.00, 458.9, 192.0)">t</text><text xml:space="preserve" font-family="CenturyGothic" font-size="18.0" fill="#595959" transform="matrix(1.00, 0.00, -0.00, -1.00, 465.0, 192.0)">o</text><text xml:space="preserve" font-family="CenturyGothic" font-size="18.0" fill="#595959" transform="matrix(1.00, 0.00, -0.00, -1.00, 476.7, 192.0)"> </text><text xml:space="preserve" font-family="CenturyGothic" font-size="18.0" fill="#595959" transform="matrix(1.00, 0.00, -0.00, -1.00, 481.7, 192.0)">s</text><text xml:space="preserve" font-family="CenturyGothic" font-size="18.0" fill="#595959" transform="matrix(1.00, 0.00, -0.00, -1.00, 488.7, 192.0)">t</text><text xml:space="preserve" font-family="CenturyGothic" font-size="18.0" fill="#595959" transform="matrix(1.00, 0.00, -0.00, -1.00, 494.8, 192.0)">o</text><text xml:space="preserve" font-family="CenturyGothic" font-size="18.0" fill="#595959" transform="matrix(1.00, 0.00, -0.00, -1.00, 506.6, 192.0)">r</text><text xml:space="preserve" font-family="CenturyGothic" font-size="18.0" fill="#595959" transform="matrix(1.00, 0.00, -0.00, -1.00, 511.9, 192.0)">e</text><text xml:space="preserve" font-family="CenturyGothic" font-size="18.0" fill="#595959" transform="matrix(1.00, 0.00, -0.00, -1.00, 523.6, 192.0)"> </text><text xml:space="preserve" font-family="CenturyGothic" font-size="18.0" fill="#595959" transform="matrix(1.00, 0.00, -0.00, -1.00, 528.6, 192.0)">b</text><text xml:space="preserve" font-family="CenturyGothic" font-size="18.0" fill="#595959" transform="matrix(1.00, 0.00, -0.00, -1.00, 540.9, 192.0)">o</text><text xml:space="preserve" font-family="CenturyGothic" font-size="18.0" fill="#595959" transform="matrix(1.00, 0.00, -0.00, -1.00, 552.7, 192.0)">o</text><text xml:space="preserve" font-family="CenturyGothic" font-size="18.0" fill="#595959" transform="matrix(1.00, 0.00, -0.00, -1.00, 564.5, 192.0)">k</text><text xml:space="preserve" font-family="CenturyGothic" font-size="18.0" fill="#595959" transform="matrix(1.00, 0.00, -0.00, -1.00, 573.5, 192.0)">s</text><text xml:space="preserve" font-family="CenturyGothic" font-size="18.0" fill="#595959" transform="matrix(1.00, 0.00, -0.00, -1.00, 580.5, 192.0)"> </text><text xml:space="preserve" font-family="CenturyGothic" font-size="18.0" fill="#595959" transform="matrix(1.00, 0.00, -0.00, -1.00, 585.5, 192.0)">a</text><text xml:space="preserve" font-family="CenturyGothic" font-size="18.0" fill="#595959" transform="matrix(1.00, 0.00, -0.00, -1.00, 597.8, 192.0)">n</text><text xml:space="preserve" font-family="CenturyGothic" font-size="18.0" fill="#595959" transform="matrix(1.00, 0.00, -0.00, -1.00, 608.7, 192.0)">d</text><text xml:space="preserve" font-family="CenturyGothic" font-size="18.0" fill="#595959" transform="matrix(1.00, 0.00, -0.00, -1.00, 621.1, 192.0)"> </text><text xml:space="preserve" font-family="CenturyGothic" font-size="18.0" fill="#595959" transform="matrix(1.00, 0.00, -0.00, -1.00, 626.1, 192.0)">o</text><text xml:space="preserve" font-family="CenturyGothic" font-size="18.0" fill="#595959" transform="matrix(1.00, 0.00, -0.00, -1.00, 637.8, 192.0)">f</text><text xml:space="preserve" font-family="CenturyGothic" font-size="18.0" fill="#595959" transform="matrix(1.00, 0.00, -0.00, -1.00, 643.5, 192.0)">f</text><text xml:space="preserve" font-family="CenturyGothic" font-size="18.0" fill="#595959" transform="matrix(1.00, 0.00, -0.00, -1.00, 649.2, 192.0)">i</text><text xml:space="preserve" font-family="CenturyGothic" font-size="18.0" fill="#595959" transform="matrix(1.00, 0.00, -0.00, -1.00, 652.8, 192.0)">c</text><text xml:space="preserve" font-family="CenturyGothic" font-size="18.0" fill="#595959" transform="matrix(1.00, 0.00, -0.00, -1.00, 664.4, 192.0)">e</text><text xml:space="preserve" font-family="CenturyGothic" font-size="18.0" fill="#595959" transform="matrix(1.00, 0.00, -0.00, -1.00, 676.1, 192.0)"> </text><text xml:space="preserve" font-family="CenturyGothic" font-size="18.0" fill="#595959" transform="matrix(1.00, 0.00, -0.00, -1.00, 79.0, 170.0)">s</text><text xml:space="preserve" font-family="CenturyGothic" font-size="18.0" fill="#595959" transform="matrix(1.00, 0.00, -0.00, -1.00, 86.0, 170.0)">u</text><text xml:space="preserve" font-family="CenturyGothic" font-size="18.0" fill="#595959" transform="matrix(1.00, 0.00, -0.00, -1.00, 96.9, 170.0)">p</text><text xml:space="preserve" font-family="CenturyGothic" font-size="18.0" fill="#595959" transform="matrix(1.00, 0.00, -0.00, -1.00, 109.2, 170.0)">p</text><text xml:space="preserve" font-family="CenturyGothic" font-size="18.0" fill="#595959" transform="matrix(1.00, 0.00, -0.00, -1.00, 121.5, 170.0)">l</text><text xml:space="preserve" font-family="CenturyGothic" font-size="18.0" fill="#595959" transform="matrix(1.00, 0.00, -0.00, -1.00, 125.1, 170.0)">i</text><text xml:space="preserve" font-family="CenturyGothic" font-size="18.0" fill="#595959" transform="matrix(1.00, 0.00, -0.00, -1.00, 128.7, 170.0)">e</text><text xml:space="preserve" font-family="CenturyGothic" font-size="18.0" fill="#595959" transform="matrix(1.00, 0.00, -0.00, -1.00, 140.4, 170.0)">s</text><text xml:space="preserve" font-family="CenturyGothic" font-size="18.0" fill="#595959" transform="matrix(1.00, 0.00, -0.00, -1.00, 147.4, 170.0)">.</text><text xml:space="preserve" font-family="CenturyGothic" font-size="18.0" fill="#595959" transform="matrix(1.00, 0.00, -0.00, -1.00, 152.4, 170.0)"> </text><text xml:space="preserve" font-family="CenturyGothic" font-size="18.0" fill="#595959" transform="matrix(1.00, 0.00, -0.00, -1.00, 157.4, 170.0)">Y</text><text xml:space="preserve" font-family="CenturyGothic" font-size="18.0" fill="#595959" transform="matrix(1.00, 0.00, -0.00, -1.00, 166.4, 170.0)">o</text><text xml:space="preserve" font-family="CenturyGothic" font-size="18.0" fill="#595959" transform="matrix(1.00, 0.00, -0.00, -1.00, 178.2, 170.0)">u</text><text xml:space="preserve" font-family="CenturyGothic" font-size="18.0" fill="#595959" transform="matrix(1.00, 0.00, -0.00, -1.00, 189.1, 170.0)"> </text><text xml:space="preserve" font-family="CenturyGothic" font-size="18.0" fill="#595959" transform="matrix(1.00, 0.00, -0.00, -1.00, 194.1, 170.0)">h</text><text xml:space="preserve" font-family="CenturyGothic" font-size="18.0" fill="#595959" transform="matrix(1.00, 0.00, -0.00, -1.00, 205.1, 170.0)">a</text><text xml:space="preserve" font-family="CenturyGothic" font-size="18.0" fill="#595959" transform="matrix(1.00, 0.00, -0.00, -1.00, 217.4, 170.0)">v</text><text xml:space="preserve" font-family="CenturyGothic" font-size="18.0" fill="#595959" transform="matrix(1.00, 0.00, -0.00, -1.00, 227.4, 170.0)">e</text><text xml:space="preserve" font-family="CenturyGothic" font-size="18.0" fill="#595959" transform="matrix(1.00, 0.00, -0.00, -1.00, 239.1, 170.0)"> </text><text xml:space="preserve" font-family="CenturyGothic" font-size="18.0" fill="#595959" transform="matrix(1.00, 0.00, -0.00, -1.00, 244.0, 170.0)">a</text><text xml:space="preserve" font-family="CenturyGothic" font-size="18.0" fill="#595959" transform="matrix(1.00, 0.00, -0.00, -1.00, 256.3, 170.0)"> </text><text xml:space="preserve" font-family="CenturyGothic" font-size="18.0" fill="#595959" transform="matrix(1.00, 0.00, -0.00, -1.00, 261.3, 170.0)">w</text><text xml:space="preserve" font-family="CenturyGothic" font-size="18.0" fill="#595959" transform="matrix(1.00, 0.00, -0.00, -1.00, 276.3, 170.0)">a</text><text xml:space="preserve" font-family="CenturyGothic" font-size="18.0" fill="#595959" transform="matrix(1.00, 0.00, -0.00, -1.00, 288.6, 170.0)">l</text><text xml:space="preserve" font-family="CenturyGothic" font-size="18.0" fill="#595959" transform="matrix(1.00, 0.00, -0.00, -1.00, 292.2, 170.0)">l</text><text xml:space="preserve" font-family="CenturyGothic" font-size="18.0" fill="#595959" transform="matrix(1.00, 0.00, -0.00, -1.00, 295.8, 170.0)"> </text><text xml:space="preserve" font-family="CenturyGothic" font-size="18.0" fill="#595959" transform="matrix(1.00, 0.00, -0.00, -1.00, 300.8, 170.0)">t</text><text xml:space="preserve" font-family="CenturyGothic" font-size="18.0" fill="#595959" transform="matrix(1.00, 0.00, -0.00, -1.00, 306.9, 170.0)">h</text><text xml:space="preserve" font-family="CenturyGothic" font-size="18.0" fill="#595959" transform="matrix(1.00, 0.00, -0.00, -1.00, 317.8, 170.0)">a</text><text xml:space="preserve" font-family="CenturyGothic" font-size="18.0" fill="#595959" transform="matrix(1.00, 0.00, -0.00, -1.00, 330.1, 170.0)">t</text><text xml:space="preserve" font-family="CenturyGothic" font-size="18.0" fill="#595959" transform="matrix(1.00, 0.00, -0.00, -1.00, 336.2, 170.0)"> </text><text xml:space="preserve" font-family="CenturyGothic" font-size="18.0" fill="#595959" transform="matrix(1.00, 0.00, -0.00, -1.00, 341.2, 170.0)">i</text><text xml:space="preserve" font-family="CenturyGothic" font-size="18.0" fill="#595959" transform="matrix(1.00, 0.00, -0.00, -1.00, 344.8, 170.0)">s</text><text xml:space="preserve" font-family="CenturyGothic" font-size="18.0" fill="#595959" transform="matrix(1.00, 0.00, -0.00, -1.00, 351.8, 170.0)"> </text><text xml:space="preserve" font-family="CenturyGothic" font-size="18.0" fill="#595959" transform="matrix(1.00, 0.00, -0.00, -1.00, 356.8, 170.0)">3</text><text xml:space="preserve" font-family="CenturyGothic" font-size="18.0" fill="#595959" transform="matrix(1.00, 0.00, -0.00, -1.00, 366.8, 170.0)"> </text><text xml:space="preserve" font-family="CenturyGothic" font-size="18.0" fill="#595959" transform="matrix(1.00, 0.00, -0.00, -1.00, 371.8, 170.0)">m</text><text xml:space="preserve" font-family="CenturyGothic" font-size="18.0" fill="#595959" transform="matrix(1.00, 0.00, -0.00, -1.00, 388.6, 170.0)">e</text><text xml:space="preserve" font-family="CenturyGothic" font-size="18.0" fill="#595959" transform="matrix(1.00, 0.00, -0.00, -1.00, 400.3, 170.0)">t</text><text xml:space="preserve" font-family="CenturyGothic" font-size="18.0" fill="#595959" transform="matrix(1.00, 0.00, -0.00, -1.00, 406.4, 170.0)">e</text><text xml:space="preserve" font-family="CenturyGothic" font-size="18.0" fill="#595959" transform="matrix(1.00, 0.00, -0.00, -1.00, 418.1, 170.0)">r</text><text xml:space="preserve" font-family="CenturyGothic" font-size="18.0" fill="#595959" transform="matrix(1.00, 0.00, -0.00, -1.00, 423.6, 170.0)">s</text><text xml:space="preserve" font-family="CenturyGothic" font-size="18.0" fill="#595959" transform="matrix(1.00, 0.00, -0.00, -1.00, 430.5, 170.0)"> </text><text xml:space="preserve" font-family="CenturyGothic" font-size="18.0" fill="#595959" transform="matrix(1.00, 0.00, -0.00, -1.00, 435.5, 170.0)">w</text><text xml:space="preserve" font-family="CenturyGothic" font-size="18.0" fill="#595959" transform="matrix(1.00, 0.00, -0.00, -1.00, 450.5, 170.0)">i</text><text xml:space="preserve" font-family="CenturyGothic" font-size="18.0" fill="#595959" transform="matrix(1.00, 0.00, -0.00, -1.00, 454.1, 170.0)">d</text><text xml:space="preserve" font-family="CenturyGothic" font-size="18.0" fill="#595959" transform="matrix(1.00, 0.00, -0.00, -1.00, 466.4, 170.0)">e</text><text xml:space="preserve" font-family="CenturyGothic" font-size="18.0" fill="#595959" transform="matrix(1.00, 0.00, -0.00, -1.00, 478.1, 170.0)">.</text><text xml:space="preserve" font-family="CenturyGothic" font-size="18.0" fill="#595959" transform="matrix(1.00, 0.00, -0.00, -1.00, 483.1, 170.0)"> </text><text xml:space="preserve" font-family="CenturyGothic" font-size="18.0" fill="#595959" transform="matrix(1.00, 0.00, -0.00, -1.00, 488.1, 170.0)">P</text><text xml:space="preserve" font-family="CenturyGothic" font-size="18.0" fill="#595959" transform="matrix(1.00, 0.00, -0.00, -1.00, 498.7, 170.0)">l</text><text xml:space="preserve" font-family="CenturyGothic" font-size="18.0" fill="#595959" transform="matrix(1.00, 0.00, -0.00, -1.00, 502.3, 170.0)">e</text><text xml:space="preserve" font-family="CenturyGothic" font-size="18.0" fill="#595959" transform="matrix(1.00, 0.00, -0.00, -1.00, 514.0, 170.0)">a</text><text xml:space="preserve" font-family="CenturyGothic" font-size="18.0" fill="#595959" transform="matrix(1.00, 0.00, -0.00, -1.00, 526.3, 170.0)">s</text><text xml:space="preserve" font-family="CenturyGothic" font-size="18.0" fill="#595959" transform="matrix(1.00, 0.00, -0.00, -1.00, 533.3, 170.0)">e</text><text xml:space="preserve" font-family="CenturyGothic" font-size="18.0" fill="#595959" transform="matrix(1.00, 0.00, -0.00, -1.00, 545.0, 170.0)"> </text><text xml:space="preserve" font-family="CenturyGothic" font-size="18.0" fill="#595959" transform="matrix(1.00, 0.00, -0.00, -1.00, 550.0, 170.0)">p</text><text xml:space="preserve" font-family="CenturyGothic" font-size="18.0" fill="#595959" transform="matrix(1.00, 0.00, -0.00, -1.00, 562.3, 170.0)">i</text><text xml:space="preserve" font-family="CenturyGothic" font-size="18.0" fill="#595959" transform="matrix(1.00, 0.00, -0.00, -1.00, 565.9, 170.0)">c</text><text xml:space="preserve" font-family="CenturyGothic" font-size="18.0" fill="#595959" transform="matrix(1.00, 0.00, -0.00, -1.00, 577.5, 170.0)">k</text><text xml:space="preserve" font-family="CenturyGothic" font-size="18.0" fill="#595959" transform="matrix(1.00, 0.00, -0.00, -1.00, 586.6, 170.0)"> </text><text xml:space="preserve" font-family="CenturyGothic" font-size="18.0" fill="#595959" transform="matrix(1.00, 0.00, -0.00, -1.00, 591.6, 170.0)">u</text><text xml:space="preserve" font-family="CenturyGothic" font-size="18.0" fill="#595959" transform="matrix(1.00, 0.00, -0.00, -1.00, 602.5, 170.0)">p</text><text xml:space="preserve" font-family="CenturyGothic" font-size="18.0" fill="#595959" transform="matrix(1.00, 0.00, -0.00, -1.00, 614.8, 170.0)"> </text><text xml:space="preserve" font-family="CenturyGothic" font-size="18.0" fill="#595959" transform="matrix(1.00, 0.00, -0.00, -1.00, 619.8, 170.0)">a</text><text xml:space="preserve" font-family="CenturyGothic" font-size="18.0" fill="#595959" transform="matrix(1.00, 0.00, -0.00, -1.00, 632.1, 170.0)"> </text><text xml:space="preserve" font-family="CenturyGothic" font-size="18.0" fill="#595959" transform="matrix(1.00, 0.00, -0.00, -1.00, 637.0, 170.0)">s</text><text xml:space="preserve" font-family="CenturyGothic" font-size="18.0" fill="#595959" transform="matrix(1.00, 0.00, -0.00, -1.00, 644.0, 170.0)">h</text><text xml:space="preserve" font-family="CenturyGothic" font-size="18.0" fill="#595959" transform="matrix(1.00, 0.00, -0.00, -1.00, 655.0, 170.0)">e</text><text xml:space="preserve" font-family="CenturyGothic" font-size="18.0" fill="#595959" transform="matrix(1.00, 0.00, -0.00, -1.00, 666.7, 170.0)">l</text><text xml:space="preserve" font-family="CenturyGothic" font-size="18.0" fill="#595959" transform="matrix(1.00, 0.00, -0.00, -1.00, 670.3, 170.0)">f</text><text xml:space="preserve" font-family="CenturyGothic" font-size="18.0" fill="#595959" transform="matrix(1.00, 0.00, -0.00, -1.00, 676.0, 170.0)"> </text><text xml:space="preserve" font-family="CenturyGothic" font-size="18.0" fill="#595959" transform="matrix(1.00, 0.00, -0.00, -1.00, 79.0, 148.0)">a</text><text xml:space="preserve" font-family="CenturyGothic" font-size="18.0" fill="#595959" transform="matrix(1.00, 0.00, -0.00, -1.00, 91.3, 148.0)">n</text><text xml:space="preserve" font-family="CenturyGothic" font-size="18.0" fill="#595959" transform="matrix(1.00, 0.00, -0.00, -1.00, 102.3, 148.0)">d</text><text xml:space="preserve" font-family="CenturyGothic" font-size="18.0" fill="#595959" transform="matrix(1.00, 0.00, -0.00, -1.00, 114.6, 148.0)"> </text><text xml:space="preserve" font-family="CenturyGothic" font-size="18.0" fill="#595959" transform="matrix(1.00, 0.00, -0.00, -1.00, 119.6, 148.0)">c</text><text xml:space="preserve" font-family="CenturyGothic" font-size="18.0" fill="#595959" transform="matrix(1.00, 0.00, -0.00, -1.00, 131.2, 148.0)">o</text><text xml:space="preserve" font-family="CenturyGothic" font-size="18.0" fill="#595959" transform="matrix(1.00, 0.00, -0.00, -1.00, 143.0, 148.0)">n</text><text xml:space="preserve" font-family="CenturyGothic" font-size="18.0" fill="#595959" transform="matrix(1.00, 0.00, -0.00, -1.00, 154.0, 148.0)">f</text><text xml:space="preserve" font-family="CenturyGothic" font-size="18.0" fill="#595959" transform="matrix(1.00, 0.00, -0.00, -1.00, 159.6, 148.0)">i</text><text xml:space="preserve" font-family="CenturyGothic" font-size="18.0" fill="#595959" transform="matrix(1.00, 0.00, -0.00, -1.00, 163.3, 148.0)">g</text><text xml:space="preserve" font-family="CenturyGothic" font-size="18.0" fill="#595959" transform="matrix(1.00, 0.00, -0.00, -1.00, 175.4, 148.0)">u</text><text xml:space="preserve" font-family="CenturyGothic" font-size="18.0" fill="#595959" transform="matrix(1.00, 0.00, -0.00, -1.00, 186.3, 148.0)">r</text><text xml:space="preserve" font-family="CenturyGothic" font-size="18.0" fill="#595959" transform="matrix(1.00, 0.00, -0.00, -1.00, 191.6, 148.0)">e</text><text xml:space="preserve" font-family="CenturyGothic" font-size="18.0" fill="#595959" transform="matrix(1.00, 0.00, -0.00, -1.00, 203.3, 148.0)"> </text><text xml:space="preserve" font-family="CenturyGothic" font-size="18.0" fill="#595959" transform="matrix(1.00, 0.00, -0.00, -1.00, 208.3, 148.0)">i</text><text xml:space="preserve" font-family="CenturyGothic" font-size="18.0" fill="#595959" transform="matrix(1.00, 0.00, -0.00, -1.00, 211.9, 148.0)">t</text><text xml:space="preserve" font-family="CenturyGothic" font-size="18.0" fill="#595959" transform="matrix(1.00, 0.00, -0.00, -1.00, 218.0, 148.0)"> </text><text xml:space="preserve" font-family="CenturyGothic" font-size="18.0" fill="#595959" transform="matrix(1.00, 0.00, -0.00, -1.00, 223.0, 148.0)">t</text><text xml:space="preserve" font-family="CenturyGothic" font-size="18.0" fill="#595959" transform="matrix(1.00, 0.00, -0.00, -1.00, 229.1, 148.0)">o</text><text xml:space="preserve" font-family="CenturyGothic" font-size="18.0" fill="#595959" transform="matrix(1.00, 0.00, -0.00, -1.00, 240.9, 148.0)"> </text><text xml:space="preserve" font-family="CenturyGothic" font-size="18.0" fill="#595959" transform="matrix(1.00, 0.00, -0.00, -1.00, 245.9, 148.0)">y</text><text xml:space="preserve" font-family="CenturyGothic" font-size="18.0" fill="#595959" transform="matrix(1.00, 0.00, -0.00, -1.00, 255.5, 148.0)">o</text><text xml:space="preserve" font-family="CenturyGothic" font-size="18.0" fill="#595959" transform="matrix(1.00, 0.00, -0.00, -1.00, 267.3, 148.0)">u</text><text xml:space="preserve" font-family="CenturyGothic" font-size="18.0" fill="#595959" transform="matrix(1.00, 0.00, -0.00, -1.00, 278.2, 148.0)">r</text><text xml:space="preserve" font-family="CenturyGothic" font-size="18.0" fill="#595959" transform="matrix(1.00, 0.00, -0.00, -1.00, 283.7, 148.0)"> </text><text xml:space="preserve" font-family="CenturyGothic" font-size="18.0" fill="#595959" transform="matrix(1.00, 0.00, -0.00, -1.00, 288.6, 148.0)">n</text><text xml:space="preserve" font-family="CenturyGothic" font-size="18.0" fill="#595959" transform="matrix(1.00, 0.00, -0.00, -1.00, 299.6, 148.0)">e</text><text xml:space="preserve" font-family="CenturyGothic" font-size="18.0" fill="#595959" transform="matrix(1.00, 0.00, -0.00, -1.00, 311.3, 148.0)">e</text><text xml:space="preserve" font-family="CenturyGothic" font-size="18.0" fill="#595959" transform="matrix(1.00, 0.00, -0.00, -1.00, 323.0, 148.0)">d</text><text xml:space="preserve" font-family="CenturyGothic" font-size="18.0" fill="#595959" transform="matrix(1.00, 0.00, -0.00, -1.00, 335.3, 148.0)">s</text><text xml:space="preserve" font-family="CenturyGothic" font-size="18.0" fill="#595959" transform="matrix(1.00, 0.00, -0.00, -1.00, 342.3, 148.0)">.</text><text xml:space="preserve" font-family="CenturyGothic" font-size="18.0" fill="#595959" transform="matrix(1.00, 0.00, -0.00, -1.00, 347.3, 148.0)"> </text></g></g><image xlink:href="E4BF2466407E3B2116F1E6DCB356DBE4.png" width="81.00" height="26.00" transform="matrix(0.99, 0.00, -0.00, -1.00, 607.0, 504.0)"></image></g></svg>