<?xml version="1.0" encoding="UTF-8" standalone="no"?><svg xmlns="http://www.w3.org/2000/svg" xmlns:xlink="http://www.w3.org/1999/xlink" clip-rule="evenodd" stroke-miterlimit="4.00" viewBox="0 0 705 75"><desc>SVG generated by Keynote</desc><defs></defs><g transform="matrix(1.00, 0.00, -0.00, -1.00, 0.0, 75.0)"><path d="M 2.0 73.5 L 703.9 73.5 L 703.9 1.5 L 2.0 1.5 Z M 2.0 73.5 " fill="#333333"></path><g><clipPath id="clip-23"><path d="M 2.0 1.5 L 703.9 1.5 L 703.9 73.5 L 2.0 73.5 Z M 2.0 1.5 "></path></clipPath><g clip-path="url(#clip-23)"><text xml:space="preserve" font-family="LucidaGrande-Bold" font-weight="bold" font-size="7.4" fill="#FFFFFF" transform="matrix(1.00, 0.00, -0.00, -1.00, 6.0, 62.0)"> </text><text xml:space="preserve" font-family="LucidaGrande-Bold" font-weight="bold" font-size="7.4" fill="#FFFFFF" transform="matrix(1.00, 0.00, -0.00, -1.00, 6.0, 53.0)"> </text><text xml:space="preserve" font-family="CenturyGothic-Bold" font-weight="bold" font-size="7.4" fill="#FFFFFF" transform="matrix(1.00, 0.00, -0.00, -1.00, 6.0, 44.0)">R</text><text xml:space="preserve" font-family="CenturyGothic-Bold" font-weight="bold" font-size="7.4" fill="#FFFFFF" transform="matrix(1.00, 0.00, -0.00, -1.00, 10.3, 44.0)">A</text><text xml:space="preserve" font-family="CenturyGothic-Bold" font-weight="bold" font-size="7.4" fill="#FFFFFF" transform="matrix(1.00, 0.00, -0.00, -1.00, 15.8, 44.0)">T</text><text xml:space="preserve" font-family="CenturyGothic-Bold" font-weight="bold" font-size="7.4" fill="#FFFFFF" transform="matrix(1.00, 0.00, -0.00, -1.00, 18.9, 44.0)">I</text><text xml:space="preserve" font-family="CenturyGothic-Bold" font-weight="bold" font-size="7.4" fill="#FFFFFF" transform="matrix(1.00, 0.00, -0.00, -1.00, 21.0, 44.0)">N</text><text xml:space="preserve" font-family="CenturyGothic-Bold" font-weight="bold" font-size="7.4" fill="#FFFFFF" transform="matrix(1.00, 0.00, -0.00, -1.00, 26.5, 44.0)">G</text><text xml:space="preserve" font-family="LucidaGrande-Bold" font-weight="bold" font-size="7.4" fill="#FFFFFF" transform="matrix(1.00, 0.00, -0.00, -1.00, 32.7, 44.0)"> </text><text xml:space="preserve" font-family="LucidaGrande-Bold" font-weight="bold" font-size="7.4" fill="#FFFFFF" transform="matrix(1.00, 0.00, -0.00, -1.00, 6.0, 35.0)"> </text><text xml:space="preserve" font-family="CenturyGothic" font-size="7.4" fill="#FFFFFF" transform="matrix(1.00, 0.00, -0.00, -1.00, 6.0, 26.0)">T</text><text xml:space="preserve" font-family="CenturyGothic" font-size="7.4" fill="#FFFFFF" transform="matrix(1.00, 0.00, -0.00, -1.00, 9.2, 26.0)">h</text><text xml:space="preserve" font-family="CenturyGothic" font-size="7.4" fill="#FFFFFF" transform="matrix(1.00, 0.00, -0.00, -1.00, 13.7, 26.0)">e</text><text xml:space="preserve" font-family="CenturyGothic" font-size="7.4" fill="#FFFFFF" transform="matrix(1.00, 0.00, -0.00, -1.00, 18.5, 26.0)"> </text><text xml:space="preserve" font-family="CenturyGothic" font-size="7.4" fill="#FFFFFF" transform="matrix(1.00, 0.00, -0.00, -1.00, 20.6, 26.0)">u</text><text xml:space="preserve" font-family="CenturyGothic" font-size="7.4" fill="#FFFFFF" transform="matrix(1.00, 0.00, -0.00, -1.00, 25.1, 26.0)">s</text><text xml:space="preserve" font-family="CenturyGothic" font-size="7.4" fill="#FFFFFF" transform="matrix(1.00, 0.00, -0.00, -1.00, 27.9, 26.0)">e</text><text xml:space="preserve" font-family="CenturyGothic" font-size="7.4" fill="#FFFFFF" transform="matrix(1.00, 0.00, -0.00, -1.00, 32.8, 26.0)">r</text><text xml:space="preserve" font-family="CenturyGothic" font-size="7.4" fill="#FFFFFF" transform="matrix(1.00, 0.00, -0.00, -1.00, 35.0, 26.0)">s</text><text xml:space="preserve" font-family="CenturyGothic" font-size="7.4" fill="#FFFFFF" transform="matrix(1.00, 0.00, -0.00, -1.00, 37.9, 26.0)"> </text><text xml:space="preserve" font-family="CenturyGothic" font-size="7.4" fill="#FFFFFF" transform="matrix(1.00, 0.00, -0.00, -1.00, 39.9, 26.0)">g</text><text xml:space="preserve" font-family="CenturyGothic" font-size="7.4" fill="#FFFFFF" transform="matrix(1.00, 0.00, -0.00, -1.00, 44.9, 26.0)">a</text><text xml:space="preserve" font-family="CenturyGothic" font-size="7.4" fill="#FFFFFF" transform="matrix(1.00, 0.00, -0.00, -1.00, 50.0, 26.0)">v</text><text xml:space="preserve" font-family="CenturyGothic" font-size="7.4" fill="#FFFFFF" transform="matrix(1.00, 0.00, -0.00, -1.00, 54.1, 26.0)">e</text><text xml:space="preserve" font-family="CenturyGothic" font-size="7.4" fill="#FFFFFF" transform="matrix(1.00, 0.00, -0.00, -1.00, 58.9, 26.0)"> </text><text xml:space="preserve" font-family="CenturyGothic" font-size="7.4" fill="#FFFFFF" transform="matrix(1.00, 0.00, -0.00, -1.00, 61.0, 26.0)">g</text><text xml:space="preserve" font-family="CenturyGothic" font-size="7.4" fill="#FFFFFF" transform="matrix(1.00, 0.00, -0.00, -1.00, 66.0, 26.0)">o</text><text xml:space="preserve" font-family="CenturyGothic" font-size="7.4" fill="#FFFFFF" transform="matrix(1.00, 0.00, -0.00, -1.00, 70.8, 26.0)">o</text><text xml:space="preserve" font-family="CenturyGothic" font-size="7.4" fill="#FFFFFF" transform="matrix(1.00, 0.00, -0.00, -1.00, 75.7, 26.0)">d</text><text xml:space="preserve" font-family="CenturyGothic" font-size="7.4" fill="#FFFFFF" transform="matrix(1.00, 0.00, -0.00, -1.00, 80.8, 26.0)"> </text><text xml:space="preserve" font-family="CenturyGothic" font-size="7.4" fill="#FFFFFF" transform="matrix(1.00, 0.00, -0.00, -1.00, 82.8, 26.0)">r</text><text xml:space="preserve" font-family="CenturyGothic" font-size="7.4" fill="#FFFFFF" transform="matrix(1.00, 0.00, -0.00, -1.00, 85.1, 26.0)">a</text><text xml:space="preserve" font-family="CenturyGothic" font-size="7.4" fill="#FFFFFF" transform="matrix(1.00, 0.00, -0.00, -1.00, 90.1, 26.0)">t</text><text xml:space="preserve" font-family="CenturyGothic" font-size="7.4" fill="#FFFFFF" transform="matrix(1.00, 0.00, -0.00, -1.00, 92.6, 26.0)">i</text><text xml:space="preserve" font-family="CenturyGothic" font-size="7.4" fill="#FFFFFF" transform="matrix(1.00, 0.00, -0.00, -1.00, 94.1, 26.0)">n</text><text xml:space="preserve" font-family="CenturyGothic" font-size="7.4" fill="#FFFFFF" transform="matrix(1.00, 0.00, -0.00, -1.00, 98.7, 26.0)">g</text><text xml:space="preserve" font-family="CenturyGothic" font-size="7.4" fill="#FFFFFF" transform="matrix(1.00, 0.00, -0.00, -1.00, 103.6, 26.0)"> </text><text xml:space="preserve" font-family="CenturyGothic" font-size="7.4" fill="#FFFFFF" transform="matrix(1.00, 0.00, -0.00, -1.00, 105.7, 26.0)">r</text><text xml:space="preserve" font-family="CenturyGothic" font-size="7.4" fill="#FFFFFF" transform="matrix(1.00, 0.00, -0.00, -1.00, 107.9, 26.0)">e</text><text xml:space="preserve" font-family="CenturyGothic" font-size="7.4" fill="#FFFFFF" transform="matrix(1.00, 0.00, -0.00, -1.00, 112.7, 26.0)">s</text><text xml:space="preserve" font-family="CenturyGothic" font-size="7.4" fill="#FFFFFF" transform="matrix(1.00, 0.00, -0.00, -1.00, 115.6, 26.0)">u</text><text xml:space="preserve" font-family="CenturyGothic" font-size="7.4" fill="#FFFFFF" transform="matrix(1.00, 0.00, -0.00, -1.00, 120.1, 26.0)">l</text><text xml:space="preserve" font-family="CenturyGothic" font-size="7.4" fill="#FFFFFF" transform="matrix(1.00, 0.00, -0.00, -1.00, 121.6, 26.0)">t</text><text xml:space="preserve" font-family="CenturyGothic" font-size="7.4" fill="#FFFFFF" transform="matrix(1.00, 0.00, -0.00, -1.00, 124.1, 26.0)">s</text><text xml:space="preserve" font-family="CenturyGothic" font-size="7.4" fill="#FFFFFF" transform="matrix(1.00, 0.00, -0.00, -1.00, 127.0, 26.0)"> </text><text xml:space="preserve" font-family="CenturyGothic" font-size="7.4" fill="#FFFFFF" transform="matrix(1.00, 0.00, -0.00, -1.00, 129.1, 26.0)">f</text><text xml:space="preserve" font-family="CenturyGothic" font-size="7.4" fill="#FFFFFF" transform="matrix(1.00, 0.00, -0.00, -1.00, 131.4, 26.0)">o</text><text xml:space="preserve" font-family="CenturyGothic" font-size="7.4" fill="#FFFFFF" transform="matrix(1.00, 0.00, -0.00, -1.00, 136.2, 26.0)">r</text><text xml:space="preserve" font-family="CenturyGothic" font-size="7.4" fill="#FFFFFF" transform="matrix(1.00, 0.00, -0.00, -1.00, 138.5, 26.0)"> </text><text xml:space="preserve" font-family="CenturyGothic" font-size="7.4" fill="#FFFFFF" transform="matrix(1.00, 0.00, -0.00, -1.00, 140.5, 26.0)">t</text><text xml:space="preserve" font-family="CenturyGothic" font-size="7.4" fill="#FFFFFF" transform="matrix(1.00, 0.00, -0.00, -1.00, 143.0, 26.0)">h</text><text xml:space="preserve" font-family="CenturyGothic" font-size="7.4" fill="#FFFFFF" transform="matrix(1.00, 0.00, -0.00, -1.00, 147.6, 26.0)">e</text><text xml:space="preserve" font-family="CenturyGothic" font-size="7.4" fill="#FFFFFF" transform="matrix(1.00, 0.00, -0.00, -1.00, 152.4, 26.0)"> </text><text xml:space="preserve" font-family="CenturyGothic" font-size="7.4" fill="#FFFFFF" transform="matrix(1.00, 0.00, -0.00, -1.00, 154.5, 26.0)">K</text><text xml:space="preserve" font-family="CenturyGothic" font-size="7.4" fill="#FFFFFF" transform="matrix(1.00, 0.00, -0.00, -1.00, 158.8, 26.0)">o</text><text xml:space="preserve" font-family="CenturyGothic" font-size="7.4" fill="#FFFFFF" transform="matrix(1.00, 0.00, -0.00, -1.00, 163.7, 26.0)">n</text><text xml:space="preserve" font-family="CenturyGothic" font-size="7.4" fill="#FFFFFF" transform="matrix(1.00, 0.00, -0.00, -1.00, 168.2, 26.0)">f</text><text xml:space="preserve" font-family="CenturyGothic" font-size="7.4" fill="#FFFFFF" transform="matrix(1.00, 0.00, -0.00, -1.00, 170.5, 26.0)">i</text><text xml:space="preserve" font-family="CenturyGothic" font-size="7.4" fill="#FFFFFF" transform="matrix(1.00, 0.00, -0.00, -1.00, 172.0, 26.0)">g</text><text xml:space="preserve" font-family="CenturyGothic" font-size="7.4" fill="#FFFFFF" transform="matrix(1.00, 0.00, -0.00, -1.00, 177.0, 26.0)">u</text><text xml:space="preserve" font-family="CenturyGothic" font-size="7.4" fill="#FFFFFF" transform="matrix(1.00, 0.00, -0.00, -1.00, 181.5, 26.0)">r</text><text xml:space="preserve" font-family="CenturyGothic" font-size="7.4" fill="#FFFFFF" transform="matrix(1.00, 0.00, -0.00, -1.00, 183.8, 26.0)">a</text><text xml:space="preserve" font-family="CenturyGothic" font-size="7.4" fill="#FFFFFF" transform="matrix(1.00, 0.00, -0.00, -1.00, 188.8, 26.0)">t</text><text xml:space="preserve" font-family="CenturyGothic" font-size="7.4" fill="#FFFFFF" transform="matrix(1.00, 0.00, -0.00, -1.00, 191.3, 26.0)">o</text><text xml:space="preserve" font-family="CenturyGothic" font-size="7.4" fill="#FFFFFF" transform="matrix(1.00, 0.00, -0.00, -1.00, 196.2, 26.0)">r</text><text xml:space="preserve" font-family="CenturyGothic" font-size="7.4" fill="#FFFFFF" transform="matrix(1.00, 0.00, -0.00, -1.00, 198.4, 26.0)"> </text><text xml:space="preserve" font-family="LucidaGrande" font-size="7.4" fill="#FFFFFF" transform="matrix(1.00, 0.00, -0.00, -1.00, 200.5, 26.0)"> </text><text xml:space="preserve" font-family="LucidaGrande" font-size="7.4" fill="#FFFFFF" transform="matrix(1.00, 0.00, -0.00, -1.00, 6.0, 17.0)"> </text></g></g></g></svg>